<svg fill="none" viewBox="0 0 169 169" width="100" xmlns="http://www.w3.org/2000/svg">
    <g clip-path="url(#clip0)">
        <path
            d="M103.623 150.582c1.758.013 41.239-.447 42.24 6.974 1.002 7.433-74.77 19-129.083 4.508 0 .012-29.165-12.315 86.843-11.482z"
            fill="#F7CDDC"></path>
        <path
            d="M74.306 125.72v36.283H58.577c-2.491 0-4.995 0-7.486.036-2.457.036-4.879.29-7.312-.218-1.374-.29-1.316-1.426-.186-2.139 2.934-1.861 5.914-3.589 8.883-5.366V125.72h21.83z"
            fill="#EA663F"></path>
        <path
            d="M47.33 162.306c.71 0 1.41-.025 2.108-.049.547-.024 1.106-.036 1.665-.048 2.584-.036 5.192-.036 7.486-.036h15.88v-36.621H52.315v28.668c-.769.459-1.526.906-2.294 1.366-2.142 1.269-4.366 2.586-6.508 3.952-.652.411-1.002.991-.909 1.511.047.278.257.761 1.153.942 1.188.254 2.387.315 3.575.315zm26.814-.46H58.577c-2.305 0-4.901 0-7.486.037-.559.012-1.118.024-1.665.048-1.84.06-3.749.133-5.612-.266-.523-.109-.838-.35-.885-.677-.058-.374.222-.822.757-1.16 2.143-1.366 4.366-2.671 6.497-3.952l2.375-1.414.082-.049V125.89h21.504v35.956zM80.896 125.72v36.283h15.73c2.491 0 4.994 0 7.486.036 2.456.036 4.878.29 7.311-.218 1.374-.29 1.316-1.426.187-2.139-2.934-1.861-5.915-3.589-8.884-5.366V125.72h-21.83z"
            fill="#EA663F"></path>
        <path
            d="M107.872 162.304c1.188 0 2.387-.072 3.586-.326.885-.193 1.106-.677 1.153-.943.093-.519-.256-1.099-.908-1.51-2.154-1.366-4.389-2.695-6.532-3.965-.757-.447-1.513-.894-2.27-1.353v-28.668H80.733v36.62h15.892c2.294 0 4.902 0 7.487.037.559.012 1.106.024 1.653.048.699.036 1.409.06 2.107.06zm-5.309-36.403v28.523l.082.049c.78.471 1.572.93 2.352 1.402a251.978 251.978 0 016.531 3.964c.524.338.815.773.757 1.16-.058.327-.373.568-.885.677-1.863.399-3.772.326-5.612.266a77.105 77.105 0 00-1.665-.048c-2.584-.037-5.192-.037-7.486-.037H81.071v-35.944h21.492v-.012z"
            fill="#EA663F"></path>
        <path
            d="M103.029 138.303l-22.32 12.787v-9.935l22.32-2.852zM74.458 140.526v10.454l-14.646-10.756 14.646.302z"
            fill="#103655"></path>
        <path
            d="M78.999 143.668c-32.28 0-58.447-27.164-58.447-60.672 0-33.509 26.168-60.673 58.447-60.673s58.446 27.164 58.446 60.673c0 33.508-26.167 60.672-58.446 60.672z"
            fill="#EA663F"></path>
        <path
            d="M105.788 40.815c4.355-6.84 12.877-9.717 20.236-6.683 4.005 1.656 7.346 4.435 10.932 6.852 3.796 2.563 8.336 4.835 12.935 3.505 1.84-.531 2.62 2.43.78 2.962-8.697 2.501-15.531-4.605-22.4-8.775-3.365-2.03-7.091-3.312-11.003-2.465-3.621.773-6.881 2.924-8.941 6.151-1.025 1.644-3.586.11-2.539-1.547z"
            fill="#EA663F"></path>
        <path
            d="M154.711 36.97c-5.018 2.261-9.919.158-14.413-2.368-4.832-2.707-9.64-5.898-14.845-7.795-4.948-1.801-10.432-2.116-14.914 1.111-3.679 2.647-5.996 6.962-7.091 11.373-.477 1.91-3.329 1.1-2.852-.81 1.758-7.07 6.566-13.898 13.703-15.639 8.884-2.175 17.208 3.312 24.66 7.518 4.098 2.32 9.407 6.152 14.262 3.964 1.723-.785 3.225 1.861 1.49 2.647z"
            fill="#EA663F"></path>
        <path
            d="M96.346 40.176c-2.783-8.158.57-17.247 7.23-22.154 3.33-2.466 7.382-3.831 11.457-4.121 4.773-.339 9.43 1.087 13.971 2.393 5.123 1.462 10.897 2.96 16.02.676 1.723-.773 3.237 1.874 1.49 2.647-8.615 3.832-17.091-.652-25.625-2.26-7.836-1.486-16.579 1.318-20.596 8.896-2.13 4.024-2.573 8.786-1.106 13.113.64 1.861-2.212 2.659-2.841.81z"
            fill="#EA663F"></path>
        <path
            d="M136.665 10.793c-4.622 1.342-9.488.87-14.087-.314-3.435-.882-6.73-1.861-10.293-2.103-6.508-.423-14.262.895-17.778 7.3-2.724 4.931-1.432 10.769.43 15.748.688 1.838-2.165 2.635-2.852.81-1.723-4.629-2.852-9.802-1.513-14.697 1.082-3.964 3.725-7.311 7.16-9.354 6.392-3.795 14.612-3.493 21.562-1.8 5.554 1.353 10.886 3.105 16.591 1.45 1.828-.532 2.608 2.429.78 2.96z"
            fill="#EA663F"></path>
        <path
            d="M85.89 33.744c-4.493-5.027-6.519-12.11-5.18-18.854C81.979 8.496 86.345 2.925 92.003.157c1.712-.834 3.214 1.813 1.49 2.647a18.35 18.35 0 00-9.85 12.46c-1.28 5.766.478 12.002 4.332 16.305 1.304 1.45-.78 3.626-2.084 2.175zM72.909 27.337c-3.9-8.448-.303-17.464 4.983-24.22 1.2-1.535 3.283.653 2.084 2.163-4.377 5.584-7.789 13.452-4.529 20.51.827 1.765-1.723 3.324-2.538 1.547z"
            fill="#EA663F"></path>
        <path d="M128.574 94.538c-.629 0-.641-1.027 0-1.027.64 0 .64 1.028 0 1.028z" fill="#000"></path>
        <path
            d="M85.414 90.912c.058 4.702 3.737 8.605 8.313 8.605 4.575-.012 8.254-3.891 8.312-8.605.035-2.635 3.971-2.635 3.936 0-.07 5.33-3.237 10.019-8.045 11.917-4.67 1.837-10.304.326-13.506-3.65a13.294 13.294 0 01-2.957-8.255c-.035-2.647 3.912-2.647 3.947-.012zM54.549 90.912c.058 4.702 3.737 8.605 8.313 8.605 4.575-.012 8.254-3.891 8.312-8.605.035-2.635 3.97-2.635 3.936 0-.07 5.33-3.237 10.019-8.045 11.917-4.67 1.837-10.304.326-13.506-3.65a13.295 13.295 0 01-2.957-8.255c-.023-2.647 3.912-2.647 3.947-.012zM90.851 112.837c-7.463 3.783-16.498 5.825-23.577.072-.838-.676-.686-2.175 0-2.888.827-.858 1.945-.677 2.783 0 5.495 4.46 13.191 2.139 18.803-.713.955-.484 2.13-.266 2.69.737.523.894.267 2.308-.699 2.792z"
            fill="#103655"></path>
        <path
            d="M36.165 105.512c-5.19 0-9.396-4.367-9.396-9.754 0-5.386 4.207-9.753 9.396-9.753 5.189 0 9.395 4.367 9.395 9.753 0 5.387-4.206 9.754-9.395 9.754zM121.297 105.512c-5.189 0-9.396-4.367-9.396-9.754 0-5.386 4.207-9.753 9.396-9.753 5.189 0 9.396 4.367 9.396 9.753 0 5.387-4.207 9.754-9.396 9.754z"
            fill="#F7CDDC"></path>
    </g>
    <defs>
        <clipPath id="relaxed-mascot">
            <path fill="#fff" transform="matrix(-1 0 0 1 155.48 0)" d="M0 0h141.96v169H0z"></path>
        </clipPath>
    </defs>
</svg>