<svg xmlns="http://www.w3.org/2000/svg" viewBox="0 0 3935.92 2362.08"><defs><style>.cls-1{fill:#c5e4f7;}.cls-2{fill:#15a373;}.cls-3{fill:#0a8d5e;}.cls-4{fill:#3db885;}.cls-5{fill:#fff;}.cls-6{fill:#a6bde2;}.cls-7{fill:#f6b54c;}.cls-8{fill:#e25263;}.cls-9{fill:#1f1f39;}.cls-10{fill:#ffc767;}.cls-11{fill:#f0646f;}.cls-12{fill:#2b2950;}.cls-13{fill:#282952;}.cls-14,.cls-15{fill:none;stroke:#f1a029;stroke-linecap:round;stroke-miterlimit:10;}.cls-14{stroke-width:0.3px;}.cls-15{stroke-width:0.28px;}.cls-16{fill:#98434b;}.cls-17{fill:#893a44;}.cls-18{fill:#b14d53;}.cls-19{fill:#86bfe8;}.cls-20{fill:#e7f5fd;}.cls-21{fill:#e19f42;}.cls-22{fill:#7a57a3;}.cls-23{fill:#65498e;}.cls-24{fill:#3e2555;}.cls-25{fill:#a29fce;}</style></defs><title>Fichier 1</title><g id="Calque_2" data-name="Calque 2"><g id="Ñëîé_1" data-name="Ñëîé 1"><path class="cls-1" d="M3241.77,291.77C2993.63,80.11,1074.13-44,855.16,14.43,776,35.53,712.27,149.31,670.23,211c-199.65,292.81-353.49,624.36-483.68,953-67.67,170.8-356.94,839.81-43.35,927.6,39.49,11,1641-19.59,3600.13-11.23,117.15.5,207.73-103.35,190.48-219.23C3859.55,1362.36,3399.53,426.33,3241.77,291.77Z"/><path class="cls-2" d="M318.76,1829.47c6.65-40.69,13.14-74.13,29.28-113.2,34.94-84.56,73.88-164.13,84-255.63,3.67-33.16,12.15-160.19-52.9-138.09-14.23,4.84-24.77,17.94-28.68,32.46-5.48,20.36,1.75,44.41,4.62,64.92,10.39,74.23-18.8,148.49-36.66,219.38-11.89,47.22-19.92,97.58-12.38,145A194.36,194.36,0,0,0,318.76,1829.47Z"/><path class="cls-3" d="M348.68,1660.58c-10.55,0-10.67,16.41-.08,16.41S359.27,1660.58,348.68,1660.58Z"/><path class="cls-3" d="M327.24,1653.33c-9.69,0-10,15.05-.27,15.05S337,1653.33,327.24,1653.33Z"/><path class="cls-3" d="M370.55,1614.72A8.83,8.83,0,0,0,368,1609a8.61,8.61,0,0,0-4.93-2.23,8.24,8.24,0,0,0-8.9,6.26,17.53,17.53,0,0,0-.32,3,8.39,8.39,0,0,0,2.71,5.69,8.59,8.59,0,0,0,6.13,2.17,8.47,8.47,0,0,0,5.69-2.72l1.27-1.85a8.23,8.23,0,0,0,.89-4.28Z"/><path class="cls-3" d="M343.69,1595.31c-8.5,0-10,13.24-1.43,13.24S352.25,1595.31,343.69,1595.31Z"/><path class="cls-3" d="M387.14,1545.66c-1.4-1.65-3.56-3.26-5.82-3.26a9.56,9.56,0,0,0-6.23,1.76,8.8,8.8,0,0,0-3.26,5.82,8.64,8.64,0,0,0,1.76,6.23c1.4,1.65,3.56,3.26,5.82,3.26a9.52,9.52,0,0,0,6.23-1.76,8.58,8.58,0,0,0,1.5-12Z"/><path class="cls-3" d="M360.84,1564.66c-11.51,0-11,17.88.53,17.88S372.36,1564.66,360.84,1564.66Z"/><path class="cls-3" d="M407.84,1514.68c-11.69,0-9.94,18.13,1.71,18.13S419.5,1514.68,407.84,1514.68Z"/><path class="cls-3" d="M380,1502.27c-1.45-1.73-3.74-3.53-6.11-3.53a6.94,6.94,0,0,0-3.62.33,6.82,6.82,0,0,0-3.19,1.5,9.2,9.2,0,0,0-1.7,12.92c1.45,1.73,3.73,3.52,6.1,3.52a10.25,10.25,0,0,0,6.82-1.82,9.23,9.23,0,0,0,1.7-12.92Z"/><path class="cls-3" d="M413.42,1468.47c-11.32,0-11.77,17.62-.38,17.62S424.8,1468.47,413.42,1468.47Z"/><path class="cls-3" d="M395,1468.06a9.1,9.1,0,0,0-2.86-6.15,9.74,9.74,0,0,0-6.56-2.39,9,9,0,0,0-5.68,15.57,9.78,9.78,0,0,0,6.56,2.39,9,9,0,0,0,8.54-9.42Z"/><path class="cls-3" d="M382.85,1410.89c-12.58,0-10.66,19.47,1.83,19.47S395.34,1410.89,382.85,1410.89Z"/><path class="cls-3" d="M419.71,1405.38a9.61,9.61,0,0,0-6.43-3.18H413a9.73,9.73,0,0,0-6.79,2.34,9.39,9.39,0,0,0-.81,13.25c1.6,1.66,4,3.3,6.46,3.15l.23,0a10.35,10.35,0,0,0,6.8-2.3,9.36,9.36,0,0,0,.87-13.23Z"/><path class="cls-3" d="M413.7,1402.22Z"/><path class="cls-3" d="M413.51,1402.21h0Z"/><path class="cls-3" d="M413.28,1402.2Z"/><path class="cls-3" d="M393.52,1371.4c-9.37,0-10.83,14.6-1.38,14.6S403,1371.4,393.52,1371.4Z"/><path class="cls-3" d="M416.68,1345.75a9.28,9.28,0,0,0-3.44-6l-2.05-1.22a9.22,9.22,0,0,0-4.84-.66c-2.13,0-4.78,1.85-6,3.44a9.18,9.18,0,0,0,1.55,12.91l2.05,1.22a9.26,9.26,0,0,0,4.85.67c2.13,0,4.77-1.85,6-3.44A9.4,9.4,0,0,0,416.68,1345.75Z"/><path class="cls-3" d="M393.88,1577.81a7.33,7.33,0,0,0-5.07-2.52,7.83,7.83,0,0,0-5.37,1.8,7.52,7.52,0,0,0-2.52,5.07,7.42,7.42,0,0,0,1.8,5.36,7.34,7.34,0,0,0,5.07,2.53,7.85,7.85,0,0,0,5.37-1.81,7.56,7.56,0,0,0,2.52-5.06A7.44,7.44,0,0,0,393.88,1577.81Z"/><path class="cls-3" d="M376.26,1351.86a8.13,8.13,0,0,0-5.64-2.76,8.58,8.58,0,0,0-5.76,2,8.08,8.08,0,0,0-.78,11.39,8.11,8.11,0,0,0,5.63,2.76,8.56,8.56,0,0,0,5.76-2,8.09,8.09,0,0,0,.79-11.4Z"/><path class="cls-4" d="M315.42,1776.23c10.59-66.65-.68-137.42-17.39-203.78-25.09-99.6-66.12-204-51.52-308.25,4-28.82,14.19-62.63,6.49-91.23-5.49-20.4-20.29-38.82-40.29-45.61-91.41-31-79.5,147.45-74.34,194,14.25,128.57,69,240.38,118.06,359.2,22.69,54.9,31.8,101.9,41.15,159.07A274.1,274.1,0,0,0,315.42,1776.23Z"/><path class="cls-2" d="M167,1172c-11.54,0-10.78,17.93.77,17.93S178.57,1172,167,1172Z"/><path class="cls-2" d="M201.58,1175.72c-3.63,0-7.09,3.24-6.91,7a7.07,7.07,0,0,0,7,6.91c3.63,0,7.09-3.24,6.91-7A7.07,7.07,0,0,0,201.58,1175.72Z"/><path class="cls-2" d="M218.46,1222.76a8.71,8.71,0,0,0-4.42-3.22,11.29,11.29,0,0,0-1.18-.29l.1,0-.85,0a7.81,7.81,0,0,0-1.08-.05h-.25a6.78,6.78,0,0,0-2,.42l-.13,0-.1,0a5.07,5.07,0,0,0-.57.29,9.37,9.37,0,0,0-1.34.78l-.27.19a8,8,0,0,0-.77.65,5.56,5.56,0,0,0-.47.5,6.55,6.55,0,0,0-.49.56,7.41,7.41,0,0,0-.77,1.3,1,1,0,0,0-.07.15,8.44,8.44,0,0,0,5.15,11.56,8,8,0,0,0,6.33-.54,8.13,8.13,0,0,0,4.49-6s0,0,0-.06A8.78,8.78,0,0,0,218.46,1222.76Z"/><path class="cls-2" d="M175.08,1241c-10.92,0-13,17.07-1.9,17.07C184.1,1258.05,186.15,1241,175.08,1241Z"/><path class="cls-2" d="M166.62,1214.75A8.11,8.11,0,0,0,161,1212a8.56,8.56,0,0,0-5.76,2,8.29,8.29,0,0,0-2.76,5.64,8.05,8.05,0,0,0,7.61,8.51,8.57,8.57,0,0,0,5.76-2,8.08,8.08,0,0,0,.78-11.39Z"/><path class="cls-2" d="M159.28,1272.86c-9.79,0-9.66,15.18.12,15.18S169.06,1272.86,159.28,1272.86Z"/><path class="cls-2" d="M199,1282.56c-11.41,0-11.38,17.76.08,17.76S210.48,1282.56,199,1282.56Z"/><path class="cls-2" d="M179.29,1339.44c-11.1,0-12.48,17.32-1.26,17.32S190.51,1339.44,179.29,1339.44Z"/><path class="cls-2" d="M162.19,1363.19c-11.16,0-12.31,17.41-1.05,17.41S173.45,1363.19,162.19,1363.19Z"/><path class="cls-2" d="M227.84,1368.37c-10.34,0-11.34,16.12-.91,16.12S238.27,1368.37,227.84,1368.37Z"/><path class="cls-2" d="M231.67,1325.88a7.52,7.52,0,0,0-10.64-.19,7.52,7.52,0,0,0-.19,10.64,7.52,7.52,0,0,0,10.64.19,7.52,7.52,0,0,0,.19-10.64Z"/><path class="cls-2" d="M198.26,1433.86c-9.27,0-7.58,14.32,1.59,14.32S207.44,1433.86,198.26,1433.86Z"/><path class="cls-2" d="M245.15,1422.67c-4.37-2.07-10.26.61-11,5.62a8.14,8.14,0,0,0,1.19,5.73,7.32,7.32,0,0,0,3.71,2.86,4.79,4.79,0,0,0,.75.27,5.71,5.71,0,0,0,2.57.28,8,8,0,0,0,5.3-2.68A7.84,7.84,0,0,0,245.15,1422.67Z"/><path class="cls-2" d="M199.35,1402.48c-8.77,0-9.37,13.62-.59,13.62S208.14,1402.48,199.35,1402.48Z"/><path class="cls-2" d="M172.24,1424.05c-8.71,0-9.5,13.55-.76,13.55S181,1424.05,172.24,1424.05Z"/><path class="cls-2" d="M209,1493.63c-11,0-12.81,17.16-1.69,17.16S220.09,1493.63,209,1493.63Z"/><path class="cls-2" d="M247.51,1477.31c-10.12,0-11.95,15.8-1.71,15.8S257.75,1477.31,247.51,1477.31Z"/><path class="cls-2" d="M220.33,1461c-9.25,0-11.1,14.43-1.75,14.43S229.68,1461,220.33,1461Z"/><path class="cls-2" d="M191.42,1472.74c-8.77,0-9.38,13.62-.59,13.62S200.21,1472.74,191.42,1472.74Z"/><path class="cls-2" d="M257.48,1545a7.16,7.16,0,0,0,.35-2.72,2.89,2.89,0,0,1,0,.29,1.75,1.75,0,0,0,0-.51,9.45,9.45,0,0,0-2.59-6.18,8.9,8.9,0,0,0-12.58,0,9.81,9.81,0,0,0-2.62,6.4c0,.11,0,.23,0,.35a9,9,0,0,0,2.64,6.17,8.91,8.91,0,0,0,12.6-.06,10.57,10.57,0,0,0,2.22-3.7C257.46,1545.07,257.46,1545.08,257.48,1545Z"/><path class="cls-2" d="M268.08,1513.89l-.05.11a4,4,0,0,0-1.32-.24q-4.29,9.51-2.36,12.13c.32,1,1.17,1.31,2.57,1h.35l.44,0a6.53,6.53,0,0,0,5.81-6.31C273.61,1517.46,271.33,1514.21,268.08,1513.89Z"/><path class="cls-2" d="M214,1542.31c-9.64,0-10.13,15-.46,15S223.69,1542.31,214,1542.31Z"/><path class="cls-2" d="M251.93,1584l-1.5-1.2c-4.89-3.93-12.19.52-12.53,6.22-.33,5.47,6.32,11.16,11.58,7.74l1.07-.7C254.37,1593.53,256,1587.21,251.93,1584Z"/><path class="cls-2" d="M278.9,1569.43c-11.15,0-12.3,17.41-1,17.41S290.17,1569.43,278.9,1569.43Z"/><path class="cls-2" d="M265.82,1613c-12,0-13.31,18.72-1.21,18.72S277.92,1613,265.82,1613Z"/><path class="cls-2" d="M297.52,1642.41a5.92,5.92,0,0,0-1-2.78l-5-3.35a7.67,7.67,0,0,0-7.28,2.46,7.73,7.73,0,0,0,4.29,12.7,6.84,6.84,0,0,0,1.94.13,8.12,8.12,0,0,0,2-.37,8.36,8.36,0,0,0,1.14-.5l.08,0a7.88,7.88,0,0,0,2.15-1.68l-.13,0a8.8,8.8,0,0,0,.7-.91,7.33,7.33,0,0,0,1.28-3.75A3.8,3.8,0,0,0,297.52,1642.41Z"/><path class="cls-2" d="M286.2,1674.63a8.49,8.49,0,0,0-5.95-3.13,9.32,9.32,0,0,0-6.23,1.93,8.65,8.65,0,0,0-1.19,12.18,8.49,8.49,0,0,0,5.95,3.13,9.31,9.31,0,0,0,6.22-1.93,8.64,8.64,0,0,0,1.2-12.18Z"/><path class="cls-5" d="M479.25,1736.84s-9,243.16-20.28,283.7-27,49.52-63,49.52H211.32c-29.27,0-54-27-60.8-72s-4.5-261.18-4.5-261.18Z"/><path class="cls-6" d="M269.13,2070.06H211.32c-29.27,0-54-27-60.8-72s-4.5-261.18-4.5-261.18h98.83v267.44C244.85,2025.78,256.73,2050.58,269.13,2070.06Z"/><path class="cls-2" d="M3609.94,1784.32c7.54-47.43-.49-97.79-12.38-145-17.86-70.89-47-145.15-36.66-219.38,2.87-20.51,10.1-44.56,4.62-64.92-3.91-14.52-14.45-27.62-28.68-32.46-65.05-22.1-56.57,104.93-52.9,138.09,10.14,91.5,49.08,171.07,84,255.63,16.14,39.07,22.63,72.51,29.28,113.2A195.35,195.35,0,0,0,3609.94,1784.32Z"/><path class="cls-3" d="M3567.32,1660.58c10.55,0,10.67,16.41.08,16.41S3556.73,1660.58,3567.32,1660.58Z"/><path class="cls-3" d="M3588.76,1653.33c9.69,0,10,15.05.26,15.05S3579.05,1653.33,3588.76,1653.33Z"/><path class="cls-3" d="M3545.45,1614.72A8.78,8.78,0,0,1,3548,1609a8.61,8.61,0,0,1,4.93-2.23,8.24,8.24,0,0,1,8.9,6.26,17.53,17.53,0,0,1,.32,3,8.39,8.39,0,0,1-2.71,5.69,8.59,8.59,0,0,1-6.13,2.17,8.47,8.47,0,0,1-5.69-2.72l-1.27-1.85a8.23,8.23,0,0,1-.89-4.28Z"/><path class="cls-3" d="M3572.31,1595.31c8.5,0,10,13.24,1.43,13.24S3563.75,1595.31,3572.31,1595.31Z"/><path class="cls-3" d="M3528.86,1545.66c1.4-1.65,3.56-3.26,5.82-3.26a9.56,9.56,0,0,1,6.23,1.76,8.8,8.8,0,0,1,3.26,5.82,8.64,8.64,0,0,1-1.76,6.23c-1.4,1.65-3.56,3.26-5.82,3.26a9.52,9.52,0,0,1-6.23-1.76,8.58,8.58,0,0,1-1.5-12Z"/><path class="cls-3" d="M3555.16,1564.66c11.51,0,11,17.88-.53,17.88S3543.64,1564.66,3555.16,1564.66Z"/><path class="cls-3" d="M3508.16,1514.68c11.69,0,9.94,18.13-1.71,18.13S3496.5,1514.68,3508.16,1514.68Z"/><path class="cls-3" d="M3536,1502.27c1.45-1.73,3.74-3.53,6.11-3.53a6.94,6.94,0,0,1,3.62.33,6.82,6.82,0,0,1,3.19,1.5,9.2,9.2,0,0,1,1.7,12.92c-1.45,1.73-3.73,3.52-6.1,3.52a10.25,10.25,0,0,1-6.82-1.82,9.23,9.23,0,0,1-1.7-12.92Z"/><path class="cls-3" d="M3502.58,1468.47c11.32,0,11.77,17.62.38,17.62S3491.2,1468.47,3502.58,1468.47Z"/><path class="cls-3" d="M3521,1468.06a9.1,9.1,0,0,1,2.86-6.15,9.74,9.74,0,0,1,6.56-2.39,9,9,0,0,1,5.68,15.57,9.79,9.79,0,0,1-6.57,2.39,9,9,0,0,1-8.53-9.42Z"/><path class="cls-3" d="M3533.15,1410.89c12.58,0,10.66,19.47-1.84,19.47S3520.66,1410.89,3533.15,1410.89Z"/><path class="cls-3" d="M3496.29,1405.38a9.59,9.59,0,0,1,6.43-3.18h.33a9.73,9.73,0,0,1,6.79,2.34,9.39,9.39,0,0,1,.81,13.25c-1.6,1.66-4,3.3-6.46,3.15l-.23,0a10.35,10.35,0,0,1-6.8-2.3,9.36,9.36,0,0,1-.87-13.23Z"/><path class="cls-3" d="M3502.3,1402.22Z"/><path class="cls-3" d="M3502.49,1402.21h0Z"/><path class="cls-3" d="M3502.72,1402.2Z"/><path class="cls-3" d="M3522.47,1371.4c9.38,0,10.84,14.6,1.39,14.6S3513,1371.4,3522.47,1371.4Z"/><path class="cls-3" d="M3499.32,1345.75a9.28,9.28,0,0,1,3.44-6l2-1.22a9.22,9.22,0,0,1,4.84-.66c2.13,0,4.78,1.85,6,3.44a9.18,9.18,0,0,1-1.55,12.91l-2,1.22a9.26,9.26,0,0,1-4.85.67c-2.13,0-4.77-1.85-6-3.44A9.4,9.4,0,0,1,3499.32,1345.75Z"/><path class="cls-3" d="M3522.12,1577.81a7.33,7.33,0,0,1,5.07-2.52,7.83,7.83,0,0,1,5.37,1.8,7.52,7.52,0,0,1,2.52,5.07,7.42,7.42,0,0,1-1.8,5.36,7.34,7.34,0,0,1-5.07,2.53,7.85,7.85,0,0,1-5.37-1.81,7.39,7.39,0,0,1-.72-10.43Z"/><path class="cls-3" d="M3539.74,1351.86a8.11,8.11,0,0,1,5.64-2.76,8.58,8.58,0,0,1,5.76,2,8.08,8.08,0,0,1,.78,11.39,8.11,8.11,0,0,1-5.63,2.76,8.56,8.56,0,0,1-5.76-2,8.29,8.29,0,0,1-2.76-5.64A8.17,8.17,0,0,1,3539.74,1351.86Z"/><path class="cls-4" d="M3618.42,1839.67c9.35-57.17,18.46-104.17,41.15-159.07,49.09-118.82,103.81-230.63,118.06-359.2,5.16-46.59,17.07-225.09-74.34-194-20,6.79-34.8,25.21-40.29,45.61-7.7,28.6,2.45,62.41,6.49,91.23,14.6,104.3-26.43,208.65-51.52,308.25-16.71,66.36-28,137.13-17.39,203.78A273.6,273.6,0,0,0,3618.42,1839.67Z"/><path class="cls-2" d="M3749,1172c11.54,0,10.78,17.93-.77,17.93S3737.43,1172,3749,1172Z"/><path class="cls-2" d="M3714.42,1175.72c3.63,0,7.09,3.24,6.91,7a7.07,7.07,0,0,1-7,6.91c-3.63,0-7.09-3.24-6.91-7A7.07,7.07,0,0,1,3714.42,1175.72Z"/><path class="cls-2" d="M3697.54,1222.76a8.71,8.71,0,0,1,4.42-3.22,11.29,11.29,0,0,1,1.18-.29l-.1,0,.85,0a7.81,7.81,0,0,1,1.08-.05h.25a6.78,6.78,0,0,1,2,.42l.13,0,.1,0a6.1,6.1,0,0,1,.57.29,9.37,9.37,0,0,1,1.34.78l.27.19a8,8,0,0,1,.77.65,5.56,5.56,0,0,1,.47.5,6.55,6.55,0,0,1,.49.56,7.41,7.41,0,0,1,.77,1.3,1,1,0,0,1,.07.15,8.44,8.44,0,0,1-5.15,11.56,8,8,0,0,1-6.33-.54,8.11,8.11,0,0,1-4.49-6s0,0,0-.06A8.78,8.78,0,0,1,3697.54,1222.76Z"/><path class="cls-2" d="M3740.92,1241c10.91,0,13,17.07,1.9,17.07S3729.85,1241,3740.92,1241Z"/><path class="cls-2" d="M3749.38,1214.75A8.11,8.11,0,0,1,3755,1212a8.56,8.56,0,0,1,5.76,2,8.09,8.09,0,0,1,.79,11.4,8.14,8.14,0,0,1-5.64,2.75,8.57,8.57,0,0,1-5.76-2,8.08,8.08,0,0,1-.78-11.39Z"/><path class="cls-2" d="M3756.72,1272.86c9.79,0,9.66,15.18-.12,15.18S3746.94,1272.86,3756.72,1272.86Z"/><path class="cls-2" d="M3717,1282.56c11.41,0,11.38,17.76-.08,17.76S3705.52,1282.56,3717,1282.56Z"/><path class="cls-2" d="M3736.71,1339.44c11.1,0,12.48,17.32,1.26,17.32S3725.49,1339.44,3736.71,1339.44Z"/><path class="cls-2" d="M3753.81,1363.19c11.16,0,12.31,17.41,1.05,17.41S3742.55,1363.19,3753.81,1363.19Z"/><path class="cls-2" d="M3688.16,1368.37c10.34,0,11.34,16.12.9,16.12S3677.73,1368.37,3688.16,1368.37Z"/><path class="cls-2" d="M3684.33,1325.88a7.52,7.52,0,0,1,10.64-.19,7.52,7.52,0,0,1,.19,10.64,7.52,7.52,0,0,1-10.64.19,7.52,7.52,0,0,1-.19-10.64Z"/><path class="cls-2" d="M3717.73,1433.86c9.28,0,7.59,14.32-1.59,14.32S3708.56,1433.86,3717.73,1433.86Z"/><path class="cls-2" d="M3670.85,1422.67c4.37-2.07,10.25.61,11,5.62a8.14,8.14,0,0,1-1.2,5.73,7.29,7.29,0,0,1-3.7,2.86,4.79,4.79,0,0,1-.75.27,5.71,5.71,0,0,1-2.57.28,8,8,0,0,1-5.3-2.68A7.84,7.84,0,0,1,3670.85,1422.67Z"/><path class="cls-2" d="M3716.64,1402.48c8.77,0,9.38,13.62.59,13.62S3707.86,1402.48,3716.64,1402.48Z"/><path class="cls-2" d="M3743.76,1424.05c8.71,0,9.5,13.55.76,13.55S3735,1424.05,3743.76,1424.05Z"/><path class="cls-2" d="M3707,1493.63c11,0,12.81,17.16,1.69,17.16S3695.91,1493.63,3707,1493.63Z"/><path class="cls-2" d="M3668.49,1477.31c10.12,0,12,15.8,1.71,15.8S3658.25,1477.31,3668.49,1477.31Z"/><path class="cls-2" d="M3695.67,1461c9.25,0,11.1,14.43,1.75,14.43S3686.32,1461,3695.67,1461Z"/><path class="cls-2" d="M3724.58,1472.74c8.77,0,9.38,13.62.59,13.62S3715.79,1472.74,3724.58,1472.74Z"/><path class="cls-2" d="M3658.52,1545a7.16,7.16,0,0,1-.35-2.72,2.89,2.89,0,0,0,0,.29,1.46,1.46,0,0,1,0-.51,9.45,9.45,0,0,1,2.59-6.18,8.9,8.9,0,0,1,12.58,0,9.81,9.81,0,0,1,2.62,6.4c0,.11,0,.23,0,.35a9,9,0,0,1-2.64,6.17,8.91,8.91,0,0,1-12.6-.06,10.42,10.42,0,0,1-2.22-3.7C3658.53,1545.07,3658.53,1545.08,3658.52,1545Z"/><path class="cls-2" d="M3647.92,1513.89a1.17,1.17,0,0,0,0,.11,4,4,0,0,1,1.32-.24q4.29,9.51,2.36,12.13c-.32,1-1.17,1.31-2.57,1h-.35l-.44,0a6.53,6.53,0,0,1-5.81-6.31C3642.39,1517.46,3644.67,1514.21,3647.92,1513.89Z"/><path class="cls-2" d="M3702,1542.31c9.64,0,10.13,15,.46,15S3692.31,1542.31,3702,1542.31Z"/><path class="cls-2" d="M3664.07,1584l1.5-1.2c4.89-3.93,12.18.52,12.53,6.22.33,5.47-6.32,11.16-11.58,7.74l-1.07-.7C3661.63,1593.53,3660,1587.21,3664.07,1584Z"/><path class="cls-2" d="M3637.1,1569.43c11.15,0,12.3,17.41,1,17.41S3625.83,1569.43,3637.1,1569.43Z"/><path class="cls-2" d="M3650.18,1613c12,0,13.31,18.72,1.21,18.72S3638.08,1613,3650.18,1613Z"/><path class="cls-2" d="M3618.48,1642.41a5.92,5.92,0,0,1,1.05-2.78l5-3.35a7.67,7.67,0,0,1,7.28,2.46,7.73,7.73,0,0,1-4.29,12.7,6.84,6.84,0,0,1-1.94.13,8,8,0,0,1-2-.37,8.36,8.36,0,0,1-1.14-.5l-.08,0a7.73,7.73,0,0,1-2.15-1.68l.13,0a8.8,8.8,0,0,1-.7-.91,7.33,7.33,0,0,1-1.28-3.75A3.8,3.8,0,0,1,3618.48,1642.41Z"/><path class="cls-2" d="M3629.8,1674.63a8.49,8.49,0,0,1,5.95-3.13,9.33,9.33,0,0,1,6.23,1.93,8.65,8.65,0,0,1,1.19,12.18,8.49,8.49,0,0,1-6,3.13,9.32,9.32,0,0,1-6.23-1.93,8.86,8.86,0,0,1-3.13-6A8.75,8.75,0,0,1,3629.8,1674.63Z"/><path class="cls-5" d="M3436.75,1736.84s9,243.16,20.28,283.7,27,49.52,63,49.52h184.61c29.27,0,54.05-27,60.8-72s4.5-261.18,4.5-261.18Z"/><path class="cls-6" d="M3646.87,2070.06h57.81c29.27,0,54.05-27,60.8-72s4.5-261.18,4.5-261.18h-98.83v267.44C3671.15,2025.78,3659.27,2050.58,3646.87,2070.06Z"/><path class="cls-7" d="M863.47,1850.54s-6.8,74.79-2.55,87.54c9.35,18.69,67.14,102,76.49,127.48H838s-39.94-92.64-45.89-105.39c5.1-22.09,10.2-39.94,10.2-39.94l-9.35-68.84Z"/><path class="cls-8" d="M800.58,1925.05s32.86,91.22,39.66,98c23.23-7.93,56.66-16.43,73.66-2.26,14.16,20.4,37.39,34.56,39.09,44.76H829.48l-24.93-53.26-5.1,55H780.18s-2.83-64.59,2.84-92.35A202.66,202.66,0,0,1,800.58,1925.05Z"/><path class="cls-9" d="M878.68,1172.34s4,87,2.83,151.56-7.93,235.7-12.46,335.42,6.8,236.83,6.8,236.83H734.2s-3.4-122.38-1.13-174.51,27.19-165.44,31.72-215.3-28.32-223.23-37.39-266.29-7.93-97.45-7.93-97.45l145-2.27Z"/><path class="cls-10" d="M598.22,1850.54s-6.8,74.79-2.55,87.54c9.35,18.69,67.14,102,76.49,127.48H572.72s-39.94-92.64-45.89-105.39c5.1-22.09,10.2-39.94,10.2-39.94l-9.35-68.84Z"/><path class="cls-11" d="M535.33,1925.05s32.86,91.22,39.66,98c23.23-7.93,56.66-16.43,73.66-2.26,14.16,20.4,37.39,34.56,39.09,44.76H564.22l-24.93-53.26-5.09,55H514.93s-2.83-64.59,2.84-92.35A202.66,202.66,0,0,1,535.33,1925.05Z"/><path class="cls-12" d="M754.6,1151.09S671.31,1548.84,656,1608.33s-42.49,278.76-42.49,278.76h-153s-8.5-86.69,10.2-156.38,88.38-215.87,91.78-253.26-5.09-249.87,17-317.86C635.61,1144.3,754.6,1151.09,754.6,1151.09Z"/><path class="cls-2" d="M919.11,954.21s-40.23-11.92-89.4-105.05c-9.69-79.71,30.54-104.3,30.54-104.3L969,883.43Z"/><path class="cls-2" d="M599.87,738.16c-19.67,4.14-31.06,15.53-43.49,40.38s-45.57,136.69-31.07,160.51,62.14,26.93,83.88,11.39C624.72,861.39,599.87,738.16,599.87,738.16Z"/><path class="cls-4" d="M878.68,1172.34H574.42s-12-41.47,35.87-118.23C589,873.94,589.7,752.67,590.55,743.32c.43-4.75,28.58-11.81,52.71-22.41,12.14-5.32,24.12-10.31,32.81-13.84,7.92-3.23,13.09-5.27,13.09-5.27L796.89,711s14.29,4.77,30.45,11.25c17.82,7.14,37.89,16.33,43.69,23.45,11.05,13.6-27.49,311.4-27.49,311.4S860,1083.1,878.68,1172.34Z"/><polygon class="cls-2" points="748.83 733.14 740.3 1172.34 728.57 1172.34 742.87 734.15 748.83 733.14"/><path class="cls-2" d="M633,1067.83h62s10.08,61.28-34.13,61.28C620.56,1129.11,633,1067.83,633,1067.83Z"/><path class="cls-2" d="M762.56,1065.84h62.05s10.08,61.27-34.13,61.27C750.14,1127.11,762.56,1065.84,762.56,1065.84Z"/><path class="cls-13" d="M803,620.86s27-48.79,22.77-56.87-46.32-17.84-46.32-17.84,5.5-18.59-6-20.83c-10.13-2-67,6.5-90.28,25.2-9.56,7.69-49.52,105-34.6,115.36,18.22,12.72,49.24,26,88.34,27.72s75.21-20.82,75.21-20.82Z"/><path class="cls-10" d="M796.89,711S760,753.75,742.7,752.22s-70.25-41.36-70.25-41.36,26.79-12.39,28.32-17c1.42-4.3,3.87-16.55,6.25-29.56,3.48-18.9,6.85-39.4,6.85-39.4l51.88,20s-4.29,32.47-1.45,46.93a16,16,0,0,0,1.63,4.88C771.7,706.3,796.89,711,796.89,711Z"/><path class="cls-7" d="M764.3,691.82a65.3,65.3,0,0,1-25-4.76c-14-5.52-24.73-14.61-32.28-22.76,3.48-18.9,6.85-39.4,6.85-39.4l51.88,20S761.46,677.36,764.3,691.82Z"/><path class="cls-7" d="M790.13,613.16s5.73-11.91,13.5-9.87,7.74,13.21,2.53,23.64-17.06,15.25-20.15,13S790.13,613.16,790.13,613.16Z"/><path class="cls-10" d="M699.34,591.66s2,44.4,9.7,57.6c17.28,29.47,63.18,27.77,69.69,17.57,13.46-21.07,19.94-72,19.94-72s-27.3-9.42-36-28.84C745,583.65,747.4,587.66,699.34,591.66Z"/><path class="cls-14" d="M763,594.8l-.72,30.38a2.58,2.58,0,0,1-2.58,2.53h-8.84"/><path class="cls-5" d="M736.33,635.15,768.45,643s-6.27,9-16.46,8.62S736.33,635.15,736.33,635.15Z"/><path class="cls-13" d="M776.74,608.29a4.21,4.21,0,0,0-3,1,5,5,0,0,0-1.56,2.15,4.66,4.66,0,0,0,1.57,5.32c2.71,2.06,7,.84,7.75-2.64A4.78,4.78,0,0,0,776.74,608.29Z"/><path class="cls-13" d="M767.55,601a41.86,41.86,0,0,1,9.55.49,47.64,47.64,0,0,1,9.07,2.75s-1.89-7.39-9.23-7.77A10.81,10.81,0,0,0,767.55,601Z"/><path class="cls-13" d="M742.5,609.08a4.19,4.19,0,0,1,3,1,5,5,0,0,1,1.55,2.14,4.67,4.67,0,0,1-1.57,5.33c-2.71,2-7,.84-7.75-2.64A4.77,4.77,0,0,1,742.5,609.08Z"/><path class="cls-13" d="M751.69,601.75a41.55,41.55,0,0,0-9.55.48,47.81,47.81,0,0,0-9.06,2.76s1.88-7.4,9.22-7.77A10.78,10.78,0,0,1,751.69,601.75Z"/><path class="cls-5" d="M666.33,608.42c3.17-1.67,29.17-16.83,31.67-17.17s4-1.33,7,3.84,30.33,52.83,32.16,55.66.17,5.5-2.67,7.66-28.16,18.84-30.83,19.5-3.83,0-5.83-2.66-33.16-57.67-33.83-60S663.17,610.08,666.33,608.42Z"/><path class="cls-11" d="M742.7,752.21s-6.8,109.36-19.55,119.56c-15.13,12.11-66-32.3-62.61-49.29S742.7,752.21,742.7,752.21Z"/><path class="cls-8" d="M737.32,778.85s-31.17,87-20.4,89.24S737.32,778.85,737.32,778.85Z"/><path class="cls-11" d="M742.7,752.21s6.8,109.36,19.55,119.56c15.13,12.11,66-32.3,62.6-49.29S742.7,752.21,742.7,752.21Z"/><path class="cls-8" d="M748.08,778.85s31.16,87,20.4,89.24S748.08,778.85,748.08,778.85Z"/><path class="cls-5" d="M742.7,752.21s-35.13,56.1-53.83,49.3c-15.35-5.59-35.68-59.12-45.61-80.6,12.14-5.32,24.12-10.31,32.81-13.84C692.28,721.84,720.86,745.7,742.7,752.21Z"/><path class="cls-5" d="M827.34,722.25c-7,27.14-22.88,66.23-29.68,69.63-21.65,10.82-55-39.67-55-39.67L796.89,711S811.18,715.77,827.34,722.25Z"/><path class="cls-10" d="M672.88,632.67s22.92-16.25,23.86-18.76c1.22-3.26-.07-4.89-3.06-4.89s-26.44,14.13-31.6,19.57-6.76,79-6.76,79l29.56,7.79S698.13,700,700,689.9s0-21.78,0-21.78,17.62-16.35,18.32-17.85c1-2.09-.9-5.24-5.17-4.62-2.81.41-16.46,12-24.24,16.34-4,2.26-3.66-.3-3.61-1.59.09-2.07,29.21-22.36,29.48-24.81s-2.16-5.07-5.23-5c-5.71.2-30.53,24-33.92,19.36-1.64-2.26,33.45-26.09,32.09-28.81s-3.54-4.35-6.8-2.44S670.23,639,670.23,639A10.15,10.15,0,0,1,672.88,632.67Z"/><path class="cls-10" d="M689.16,701.79s-15.92,91.48-42.78,164.31C616.92,946,601.3,954.3,577,959c-25.88,5-61.87-21.35-51.86-50.41S663.38,695,663.38,695Z"/><path class="cls-2" d="M605.87,774.6l69.69,27.2s-34,171.67-109.64,160.62-42.49-68.84-29.74-85S605.87,774.6,605.87,774.6Z"/><path class="cls-10" d="M922.31,787.35S988,897.83,992.56,912s.57,51-11.33,55-48.73-6.24-57.23-20.4-32.29-136-30.59-142.78S922.31,787.35,922.31,787.35Z"/><path class="cls-13" d="M840.15,651.37c-11.9-2.27-15.86-3.4-19.26,13S797.66,780,795.39,792.45s.57,19.26,13.6,22.66,81,14.73,88.38,14.16,10.77-4,14.17-16.43S938.17,693.3,939.3,686.5s4-14.17-14.16-17.57C908.23,665.76,840.15,651.37,840.15,651.37Z"/><path class="cls-10" d="M943.27,754.2s-12.75,39.1-16.15,43.35-15.3,6-15.3,6l2.55-13.6s-12.25-7.16-14.24-10.85a13.71,13.71,0,0,1-1.33-5.37,25.64,25.64,0,0,1,.07-4.18s-7.31-2.84-7.58-4.67c-.44-2.83-.71-7.09,2.48-7.87a52.62,52.62,0,0,1,8.06-.85l-.31-.07c-.08,0-.2,0-.34-.07-1.73-.41-6.35-1.77-6.35-4.52,0-.6,0-1.26,0-2,.09-3.21.53-7,3.1-7.18,3-.28,28.16,3.29,30.68,3.65-2.45-.6-27.35-6.65-28.7-9.32-1.41-2.83.29-11,4.25-11.33,0,0,42.5,7.65,45.05,14.45S943.27,754.2,943.27,754.2Z"/><path class="cls-7" d="M930.32,762.28l-28.49-6.17-.31-.07-.34-.07c-1.73-.41-6.35-1.77-6.35-4.52,0-.6,0-1.26,0-2Z"/><path class="cls-7" d="M923.59,777.57l-24.79-3.89a25.64,25.64,0,0,1,.07-4.18Z"/><path class="cls-2" d="M900.48,873.75l61.84-33.53s32.78,60.35,37.25,76-3.73,56.62-16.39,57.37-55.13-7.45-64.07-19.37S900.48,873.75,900.48,873.75Z"/><path class="cls-13" d="M3310.12,705.89c-6.14.18-12.06,2.2-18,3.8s-12.23,2.8-18.2,1.34c-9.57-2.35-16-10.57-24.12-15.55a30.93,30.93,0,0,0-13.56-4.62c-5.24-.4-10.94.65-15.72-2.09-4.53-2.59-6.73-7.92-7.75-13s-1.23-10.45-3.21-15.28c-2.41-5.86-7.18-10.36-11.37-15.12s-8.05-10.45-8-16.79c.15-9.81,8.91-17,12.55-25.62,5.92-13.89-7.83-34.37,12.94-40.3,5.1-1.46,10.5-1.25,15.8-1.15s10.76,0,15.7-1.87c8.37-3.25,13.7-11,21.36-15.39,9.11-5.19,19.32-3.53,28.66.16,8.1,3.21,16.31,7.33,25,6.7,9.59-.69,18.35-7.14,27.93-6.39,7.82.62,15.7,3.67,19.82,10.35,2.89,4.67,4.42,10,5.75,15.28,1.09,4.35.6,8.37,2.56,12.51a34.63,34.63,0,0,0,20.25,17.95c9,2.93,21.12,3.4,27.49,11.41,4,5,4,10.23,2.4,16-2.18,8.14-4,16.89-1.46,25.17,3.16,10.45,12.63,18.28,14.92,29,1.65,7.7-.94,17-7.42,21.8-7.08,5.19-16.38,5.78-24.85,5.46-9.06-.35-18.38-1.53-27,1.23-9.94,3.17-17.94,11.26-28.14,13.44a26.64,26.64,0,0,1-23.77-7.16C3324.37,710.9,3320,705.6,3310.12,705.89Z"/><path class="cls-10" d="M3385.5,721.83S3355.16,770,3318.57,769s-55.37-40.77-55.37-40.77,9.13-1.61,21.17-9.79c8-5.43,9.62-14.43,8-22a22.46,22.46,0,0,0-4.62-9.8c-2.32-2.69-5.4-3.51-8.84-3.86-5.82-.57-12.75.21-19.1-4.33-10.11-7.22-13-73.22-13-73.22,14.06,1.13,12.48-8.66,17.79-8.64,5.58,0,6.74,4.34,15.9,6.75s13.95-8.2,21.18-11.56,9.15.48,15.89,7.7,16.86,6.74,16.86,6.74-1.94,83.31,12.52,96.79S3385.5,721.83,3385.5,721.83Z"/><path class="cls-7" d="M3323.05,673.83s-19,16.86-30.68,22.65a22.46,22.46,0,0,0-4.62-9.8c-2.32-2.69-5.4-3.51-8.84-3.86a135.83,135.83,0,0,0,25.91-4.15Z"/><path class="cls-15" d="M3275.28,612.82q-.17,12.72-.32,25.43c0,1.32-.07,2.89.94,3.75,1.32,1.13,7.41,1.13,9.11.85"/><path class="cls-13" d="M3296.81,621.78a3.69,3.69,0,0,0-2.59.89,4.41,4.41,0,0,0-1.36,1.88,4.1,4.1,0,0,0,1.38,4.66,4.3,4.3,0,0,0,6.78-2.31A4.18,4.18,0,0,0,3296.81,621.78Z"/><path class="cls-13" d="M3292.24,614.81a43.16,43.16,0,0,1,10,.51,49.35,49.35,0,0,1,9.5,2.88s-2-7.75-9.67-8.14A11.31,11.31,0,0,0,3292.24,614.81Z"/><path class="cls-13" d="M3262.53,621.78a3.65,3.65,0,0,0-2.58.89,4.44,4.44,0,0,0-1.37,1.88,4.1,4.1,0,0,0,1.38,4.66,4.3,4.3,0,0,0,6.78-2.31A4.18,4.18,0,0,0,3262.53,621.78Z"/><path class="cls-13" d="M3270.14,614.66a65.85,65.85,0,0,0-8.64.71,39.08,39.08,0,0,0-7.65,2.12s1.65-6.47,8.07-6.8A9.46,9.46,0,0,1,3270.14,614.66Z"/><path class="cls-5" d="M3278.64,653.33s3,7.79,13.45,7.36,11.48-13,11.48-13Z"/><path class="cls-10" d="M3333.1,634.77c.21-.85,4.25-17,14.87-17.42s11.26,11.26,9.57,19.55-8.29,19.12-15.09,18.48a15.09,15.09,0,0,1-10.2-5.1Z"/><path class="cls-7" d="M3350.74,637.85s4.56-9.77.42-12.53-12.11,1.91-15.93,14.76c4.14-2,6.58-.22,7.22,2.45s-3.08,7.43-6.37,6.27c4.46,2.23,10.83-1.17,11.36-4.89s-3.4-7.44-8.6-6.91c2.23-5.1,6.25-7.72,8.28-7.11C3350,630.74,3350.74,637.85,3350.74,637.85Z"/><polygon class="cls-13" points="3274.15 1968.51 3268.49 2072.2 3248.66 2072.2 3245.26 1983.81 3274.15 1968.51"/><path class="cls-10" d="M3270.18,1984.93c-32.85,39.68-58.93,87.27-58.93,87.27H3093.41a23.75,23.75,0,0,1,10.2-20.4c3.82-2.67,14.31-15.64,26.92-32.14,15.2-19.89,33.44-44.92,46.68-63.21a105.61,105.61,0,0,0,19.19-48.29c.32-2.49.56-5,.7-7.48,1.88-32.81.56-58.52.56-58.52l78.18-2.27-10.7,70.1-1.75,11.49S3296.24,1952.08,3270.18,1984.93Z"/><path class="cls-7" d="M3197.66,1842.16l78.18-2.27-10.7,70.1-68.74-1.83c.32-2.49.56-5,.7-7.48C3199,1867.87,3197.66,1842.16,3197.66,1842.16Z"/><path class="cls-13" d="M3270.19,1984.93c-32.86,39.68-58.93,87.27-58.93,87.27H3093.41a23.75,23.75,0,0,1,10.2-20.4c3.83-2.67,14.31-15.64,26.92-32.14,8.5-1.72,17.65-2.75,25.21-1.85,19.26,2.26,36.26,18.12,36.26,18.12s31.73-15.86,71.39-114.45C3263.39,1921.48,3296.24,1952.08,3270.19,1984.93Z"/><path class="cls-16" d="M3306.83,1152.06l-.46,74.19-3.82,619.8-.26,41.44H3156.11s-2.73-14.91-5.25-41.44c-6.92-73-12.13-234.06,46-415.23-15.69-97.31-25.35-162-31.29-204.57-9.1-65.07-9.51-78.71-9.51-78.71Z"/><path class="cls-17" d="M3306.83,1152.06l-.46,74.19H3165.62c-9.1-65.07-9.51-78.71-9.51-78.71Z"/><path class="cls-17" d="M3302.55,1846.05l-.26,41.44H3156.11s-2.73-14.91-5.25-41.44Z"/><polygon class="cls-13" points="3425.24 1968.51 3419.57 2072.2 3399.74 2072.2 3396.35 1983.81 3425.24 1968.51"/><path class="cls-10" d="M3421.28,1984.93c-32.86,39.68-58.93,87.27-58.93,87.27H3244.5a23.75,23.75,0,0,1,10.2-20.4c3.82-2.67,14.31-15.64,26.92-32.14,15.2-19.89,33.44-44.92,46.68-63.21a105.68,105.68,0,0,0,19.89-55.77c1.88-32.81.56-58.52.56-58.52l78.19-2.27L3415.61,1914l-1.13,7.46S3447.33,1952.08,3421.28,1984.93Z"/><path class="cls-7" d="M3426.94,1839.89,3415.61,1914l-68.73-1.84a104.82,104.82,0,0,0,1.31-11.5c1.88-32.81.56-58.52.56-58.52Z"/><path class="cls-13" d="M3421.28,1984.93c-32.86,39.68-58.93,87.27-58.93,87.27H3244.5a23.75,23.75,0,0,1,10.2-20.4c3.82-2.67,14.31-15.64,26.92-32.14,8.5-1.72,17.65-2.75,25.21-1.85,19.26,2.26,36.26,18.12,36.26,18.12s31.73-15.86,71.39-114.45C3414.48,1921.48,3447.33,1952.08,3421.28,1984.93Z"/><path class="cls-18" d="M3482.65,1846.05c-1.87,27.62-3.58,44.84-3.58,44.84H3329.49c-1.56-8.86-3.06-24.29-4.47-44.84-8.92-128.57-15.21-456.91-17.88-619.8-.95-57.65-1.45-94.59-1.45-94.59h133.72c5.42,12.53,4.08,50.79.22,94.1C3433,1299.92,3419,1388.9,3419,1388.9s51,89.51,63.46,216.43C3490.83,1690.44,3486.44,1789.82,3482.65,1846.05Z"/><path class="cls-16" d="M3439.63,1225.76c-38.07-.14-86.19.12-132.49.49-.95-57.65-1.45-94.59-1.45-94.59h133.72C3444.83,1144.19,3443.49,1182.45,3439.63,1225.76Z"/><path class="cls-16" d="M3482.65,1846.05c-1.87,27.62-3.58,44.84-3.58,44.84H3329.49c-1.56-8.86-3.06-24.29-4.47-44.84Z"/><polygon class="cls-10" points="3060.08 1086.36 3016.24 1102.37 2982.01 1114.88 2963.77 1091.46 2994.62 1067.46 3026.34 1042.78 3060.08 1086.36"/><polygon class="cls-7" points="3060.08 1086.36 3016.24 1102.37 2994.62 1067.46 3026.34 1042.78 3060.08 1086.36"/><path class="cls-10" d="M2910.57,1158.13l.13.08a11.27,11.27,0,0,0,2.77,1c.51.14,1.06.29,1.66.41a84.07,84.07,0,0,0,10.76,1.52c1.69.16,3.46.29,5.28.37h0c3.51.16,7.17.2,10.77.09,2-.07,4.05-.19,6-.37,8.51-.75,15.87-2.61,18.67-6.12,4.87-6.08,17.15-22.82,25.61-34.43a19.74,19.74,0,0,0-2.61-26.13,35,35,0,0,0-13.2-8c-15-4.55-36,13.07-36,13.07s-1.93,2.33-4.95,6c-11,13.45-35.63,46.81-35.8,49.12C2899.32,1160,2907.15,1160.35,2910.57,1158.13Z"/><path class="cls-7" d="M2935.48,1105.71c7.65,5.44,24.11,8,29.06,9.41,5.89,1.66,28.74-17.18,25.09-20.53a35,35,0,0,0-13.2-8c-15-4.55-36,13.07-36,13.07S2938.5,1102,2935.48,1105.71Z"/><path class="cls-10" d="M2941.69,1080.43c-5.33,1.78-33.56,36.53-32.93,38.47s5.49,4.28,10.94.91,20.73-20.13,20.73-20.13,17,3.07,22.83,3.55,25-9,23.48-12.25C2980.72,1078.1,2950,1077.65,2941.69,1080.43Z"/><path class="cls-7" d="M2910.7,1158.21a11.27,11.27,0,0,0,2.77,1c.51.14,1.06.29,1.66.41,7.46-10.38,20.59-28.71,22.91-31.84,3.26-4.42,1.54-5.38.21-6.37C2937.12,1120.63,2916.8,1149.5,2910.7,1158.21Z"/><path class="cls-7" d="M2925.89,1161.19c1.69.16,3.46.29,5.28.37h0c7.32-10.2,16.34-22.77,18.23-25.32,3.26-4.41,1.83-6.72.21-6.36C2947.71,1130.29,2934.1,1149.55,2925.89,1161.19Z"/><path class="cls-7" d="M2942,1161.64c2-.07,4.05-.19,6-.37,5.62-7.82,10.89-15.15,12.28-17,3.26-4.41,1.82-6.73.21-6.36C2957.74,1138.49,2949.38,1150.79,2942,1161.64Z"/><path class="cls-7" d="M2932.45,1119.69l33.61,24.83s-2.06-7.11-10.92-14.07C2940.66,1119.09,2932.45,1119.69,2932.45,1119.69Z"/><path class="cls-19" d="M3184.16,758c-16.51,7.34-104,229.75-104,229.75l-77.05,62.33,37.39,48.72s76.49-23.79,119-64.59c28.33-27.19,68-196.32,68-196.32C3236.85,800.5,3245.35,730.81,3184.16,758Z"/><path class="cls-5" d="M3414.31,1041.93c73.53,75,38.67,152.37,38.67,152.37H3149s-7.58-48.51,2.28-84.91c14.86-54.83,63.67-97,63.67-97s-37.14-212.24-34.11-250.89c4.55-15.17,58.57-27.68,58.57-27.68l29.7-1.17,39.36,29,6.19,4.56,3.93,2.89,57.65-40.66,31.45-1.24s56.67,17.66,62,29S3438.56,918.36,3414.31,1041.93Z"/><path class="cls-1" d="M3263.2,787.18c1.7,1.14,38,53.26,46.46,55.53s49.86-57.79,49.86-57.79L3318.57,769Z"/><path class="cls-1" d="M3309,1194.3h-6.49c.6-57.29,1.82-176,2.41-225.53.6-49.25,2.4-145.82,3.57-207.2l6.19,4.56C3312.59,877.14,3308.65,1103.58,3309,1194.3Z"/><path class="cls-20" d="M3407.68,727.12s-11.34,71.39-35.14,74.23-54-32.33-54-32.33l57.65-40.66,9.27-6.53Z"/><path class="cls-20" d="M3318.58,769s-39.52,42.53-58.22,39.13-21-74.37-21-74.37l23.8-5.52,5.9,4.35Z"/><path class="cls-19" d="M3191,1068.21h72.24s-18.7,34-39.1,29.74S3191,1068.21,3191,1068.21Z"/><path class="cls-19" d="M3343.09,1068.21h72.24s-18.7,34-39.1,29.74S3343.09,1068.21,3343.09,1068.21Z"/><rect class="cls-19" x="3360.93" y="854.04" width="58.64" height="9.35"/><path class="cls-10" d="M3431.05,1078.41s-2.28-.33-55.87-1.26c-7.62-.14-16.29-.29-26.14-.44-21.88,27.35-42,33.4-55.16,34.11-7.28.41-12.41-.81-14.53-1-5.95-.42-14.88-5.52-14.88-5.52s-19.12-3.4-21.67-4.25-.42-4.67,3-6.8,37.39-2.12,40.79-2.12,27.81-33.63,29.25-35.61c-.83.68-8.68,7.27-13.1,9.68-4.68,2.55-8.08,3.83-17.42,3s-13.18-4.25-11.9-7.23,14.45-3,14.45-3,25.49-27.2,29.74-27.62,22.52,16.15,22.52,16.15l27-8.43,42.31-13.25Z"/><path class="cls-7" d="M3431.05,1078.41s-2.28-.33-55.87-1.26l-8.11-39,42.31-13.25Z"/><path class="cls-7" d="M3319.26,1088.37c-.65,1.05-11.15,17.93-24.06,22-.42.14-.86.28-1.32.41-7.28.41-12.41-.81-14.53-1-5.95-.42-14.88-5.52-14.88-5.52h29.32C3301.24,1104.33,3318.37,1089.13,3319.26,1088.37Z"/><path class="cls-19" d="M3385.22,1028.4c0,2.31,17.68,54.57,17.68,54.57s138.35-1.53,150.65-17.67S3532.8,864.68,3515.89,824s-31.52-69.18-59.95-78.4-46,54.93-26.14,129.9c20,75.32,34.59,116.06,34.59,116.06Z"/><rect class="cls-6" x="2885.32" y="1647.81" width="31.6" height="401.29"/><path class="cls-12" d="M3176.89,1168.11h0a44.46,44.46,0,0,0-44.32,40.87l-26.74,330.14a119.17,119.17,0,0,0,27.71,86.48h0Z"/><path class="cls-9" d="M2655.87,1658.23h0a55.48,55.48,0,0,1,53.48-40.73h288.5a259.47,259.47,0,0,1,134.2,37.4l5.52,3.33Z"/><polygon class="cls-12" points="3112.29 1658.23 3137.57 1658.23 3196.55 1168.11 3176.89 1168.11 3112.29 1658.23"/><path class="cls-12" d="M3137.57,1658.23h0a21.07,21.07,0,0,1-21.07,21.07H2996.66a21.06,21.06,0,0,1-21.06-21.07h162Z"/><polygon class="cls-5" points="2877.29 1818.81 2922.23 1818.81 2922.23 2055.09 2876.36 2055.09 2877.29 1818.81"/><polygon class="cls-12" points="2648.99 2069.39 2673.46 2027.12 3110.97 2027.12 3138.5 2071.08 2648.99 2069.39"/><path class="cls-10" d="M2617.6,1375.48H2408.53l52.7-19.55L2440,1339.5s-17,0-35.13,2c-16.41,1.81-22.1,0-23.8-4.24s44.77-15.1,59.22-15.59c8.5-.27,56.65,27.48,56.65,27.48l59.65-19.88,24.49-8.16Z"/><polygon class="cls-7" points="2617.6 1375.48 2572.76 1375.48 2556.57 1329.25 2581.06 1321.09 2617.6 1375.48"/><path class="cls-20" d="M2704.58,1079.72c-14.89,14.74-40.95,208.36-40.95,208.36L2570,1319.81l34.75,55.15h151.08s34-191.88,34.75-231.16S2732.69,1051.91,2704.58,1079.72Z"/><path class="cls-7" d="M2440,1339.5s-51,19-56.94,36h28.47l61.19-17.85Z"/><path class="cls-17" d="M2564.91,1979.81s-14.71,65-14.43,90.25l-235.38,2.62c14.92-41.95,149.3-92,149.3-92Z"/><path class="cls-9" d="M2782.37,1430.93s-218.25,20.23-253.57,54.62-143.2,521.75-143.2,521.75l172.36,9.42,94.17-447.55s297.51,3.48,315.88-25.62,3.82-114.73,3.82-114.73Z"/><path class="cls-16" d="M2758.28,1995.41s2.11,48.31,2.11,73.57H2525c15.39-41.79,150.31-90.35,150.31-90.35Z"/><path class="cls-12" d="M3089.85,1433.27s26.68,168.84-17.63,184.56c-22.94,8.14-331.6,4.29-331.6,4.29s17.15,345.9,17.15,377.34c-150.08,0-164.37,1.43-164.37,1.43s-20-380.2-15.72-421.65,14.29-81.47,85.76-98.62S2897.85,1462,2897.85,1462l11.43-50Z"/><path class="cls-10" d="M2860.24,988.36s-27.19,59.49-53.54,57.79-43.77-22.52-43.77-22.52,7.65-4.67,10.63-13.17c.71-2.06.23-5.64-1.11-9.88a71.32,71.32,0,0,0-9.23-18.47c-5.45-7.84-10.49-14.14-10.49-14.14L2791,917l22.09,9.35s3.62,25.36,12.43,37.68c.25.35.49.67.75,1C2835.6,976.89,2860.24,988.36,2860.24,988.36Z"/><path class="cls-7" d="M2825.5,964c-2.7,7.48-6.58,16-11.58,21.39-7.46,8.05-29.2,13-41.47,15.19a71.32,71.32,0,0,0-9.23-18.47c-5.45-7.84-10.49-14.14-10.49-14.14L2791,917l22.09,9.35S2816.69,951.68,2825.5,964Z"/><path class="cls-13" d="M2830.17,860.68c-14-13.42-116.92-13.72-120.8-5.37s2.09,27.74,2.09,27.74-7.46,9-8.05,17.9c-.51,7.62,10.24,16.33,13.8,19.47a6.61,6.61,0,0,1,1.11,1.11l61.74,21.17c7.75-1.49,57.34-20.06,61.14-29.82S2844.19,874.1,2830.17,860.68Z"/><path class="cls-7" d="M2720.68,925.48s-4-12.6-12-11.68-9.52,12-5.83,23,14.74,17.52,18.12,15.67S2720.68,925.48,2720.68,925.48Z"/><path class="cls-10" d="M2737.27,878.63c-11.53.46-20.28,1.84-21.2,16.13s5.07,76.49,9.67,86.17,17.52,10.6,37.33,8.29,38.86-12.72,43.78-18c6.91-7.37,8.75-34.1,8.75-34.1s6.46,14.75,19.36,7.84,10.6-38.25,5.53-42.4-16.13-7.37-23,13.83c-4.61-11.53-6-13.83-6-13.83s-15.21,2.3-17.05-3.69.46-20.73.46-20.73Z"/><path class="cls-14" d="M2745.87,902.13V938.2a4.49,4.49,0,0,0,4.5,4.5h9.07"/><path class="cls-5" d="M2758.77,952.21c-5.22,0-7.68,20.58,2.15,20.89S2771.06,952.21,2758.77,952.21Z"/><path class="cls-13" d="M2773.35,913.25a4.51,4.51,0,0,0-3.21,1.1,5.53,5.53,0,0,0-1.69,2.33,5.07,5.07,0,0,0,1.71,5.78c2.94,2.22,7.6.91,8.4-2.87A5.17,5.17,0,0,0,2773.35,913.25Z"/><path class="cls-13" d="M2763.53,905.53a45.29,45.29,0,0,1,10.36.52,51.94,51.94,0,0,1,9.84,3s-2.05-8-10-8.43A11.73,11.73,0,0,0,2763.53,905.53Z"/><path class="cls-13" d="M2731.3,913.48a4.48,4.48,0,0,1,3.2,1.1,5.55,5.55,0,0,1,1.7,2.33,5.07,5.07,0,0,1-1.71,5.78c-2.94,2.22-7.6.91-8.41-2.87A5.18,5.18,0,0,1,2731.3,913.48Z"/><path class="cls-13" d="M2741.27,905.53a45.29,45.29,0,0,0-10.36.52,52,52,0,0,0-9.83,3s2-8,10-8.43A11.73,11.73,0,0,1,2741.27,905.53Z"/><path class="cls-7" d="M2837.4,922.64s2.09-11.51-3-13.26-12.17,5.36-12.62,19.89c3.78-3.26,6.84-2,8.25.57s-1.17,8.65-5,8.33c5.3,1.11,11-4.22,10.57-8.27s-5.63-6.85-10.94-4.86c.93-6,4.43-9.82,6.72-9.75C2834.65,915.38,2837.4,922.64,2837.4,922.64Z"/><path class="cls-5" d="M3090.76,1432.47H2785.91s-83-342.31-81.87-352c.74-6.63,28-30.83,44.92-45.26l7.82-6.61c3.33-2.77,5.39-4.46,5.39-4.46l14.79-5.42,24,19.28,9.81,7.88,7.22-11.47,25.14-39.88.09-.13,16.15-5.93s6.56,1,17,2.77c2.74.45,5.74,1,9,1.51,39.93,6.76,113.89,30.65,126.75,39.71,32.38,22.81,51.29,208,51.29,208Z"/><path class="cls-1" d="M2977.64,1038s-37.93.09-55.78,46.83S2910.81,1271,2910.81,1271l-43.63,87,20.46,21.62s131.13,21.35,159.15-2.36C3068.89,1358.48,3062.09,1037.23,2977.64,1038Z"/><path class="cls-1" d="M2886.22,992.75c-3.51,27.28-16.76,94.33-16.76,94.33l-43.64-31.15-13.6,4-20.95-.56s-4.54,17.56-10.78,36.25c-9.77-11.11-24.8-46.32-30.8-60.93,2.67-2.28,5.1-4.3,7.11-6,3.77-3.13,6.13-5.05,6.13-5.05l13.84-5,24.15,19.43,9.81,7.88,7.22-11.47,25.14-39.88,17.15-6.22s6.22,1,16.19,2.7Z"/><polygon class="cls-13" points="2804.05 1057.79 2839.55 1357.78 2887.64 1379.54 2918.55 1344.04 2823.52 1052.07 2804.05 1057.79"/><path class="cls-13" d="M2831.77,1031.57s-.51,4.35-1.24,9.79c-1.09,8-2.67,18.32-3.86,20.52-2,3.68-19.83,5.38-24.08,2.84-2.79-1.69-9.13-11.31-13.16-17.7-2.09-3.35-3.55-5.83-3.55-5.83l15-3.14,9.81,7.88,7.22-11.47Z"/><path class="cls-5" d="M2810.73,1045.93s-11.83,1-21.3,1.09c-1.09,0-2.12,0-3.13,0-2.12,3.83-3.62,7.43-9.34,20.62-6.43-9.47-17-32-20.16-38.94,0,0,0,0,0,0l-.94-2,14.74-13,6.19,5,.19.15,24,19.28Z"/><polygon class="cls-5" points="2876.92 989.76 2876.43 991.06 2876.34 991.28 2852.32 1055.77 2830.53 1041.36 2830.43 1041.29 2810.73 1045.93 2817.95 1034.46 2843.09 994.58 2843.18 994.45 2851.66 980.99 2876.92 989.76"/><path class="cls-10" d="M2881.91,1350.54s-19.61-4.19-44.44-9.62c-36.29-7.9-83.73-18.4-97.2-22.09-22.67-6.24-37.88-41.29-37.88-41.29s-33.5,1.62-41.44,1-7.77-5-5.1-7.36c3.6-3.26,38.24-6.66,51-7.37-19.12-7.16-41-8.86-49.09-10.34-7.26-1.34-10.47-6.44-6.15-8.72,5.66-3,27.4.22,51.84,2.64-1.7-3.69-7.22-5.59-12.75-8.59-11.4-3.75-27.8-5.08-35.69-6.15-12.46-1.7-11.15-8.6-5.3-10.4a27.86,27.86,0,0,1,7.3-.68c15.17,0,44.32,4.49,44.32,4.49a24.43,24.43,0,0,0-14.33-8c-9.67-1.65-25-4.3-32.84-5.78-11.9-2.26-8.64-6.51-6.38-9.34s56.81.85,65.31,7.64,28.89,55,29.46,57.23l86.05,1.82,47.09,1Z"/><path class="cls-7" d="M2881.91,1350.54s-19.61-4.19-44.44-9.62l-8.88-71.27,47.09,1Z"/><path class="cls-5" d="M2863.47,1265.59l3.71,92.33s151.28,19.83,166.58-5.67,11.72-170.93,2.27-235.7c-9.67-66.2-29.3-79.29-58.39-78.56-16.67.42-36,16.17-42.18,41.45s-4.36,186.15-4.36,186.15Z"/><rect class="cls-12" x="2273.09" y="1230.43" width="169.58" height="359.25" transform="translate(4715.76 2820.11) rotate(180)"/><rect class="cls-12" x="2132.34" y="1125.15" width="402.92" height="371.42" rx="4.8" ry="4.8" transform="translate(4667.61 2621.71) rotate(180)"/><rect class="cls-6" x="2192.58" y="1607.53" width="33.47" height="438.17"/><polygon class="cls-5" points="2184.08 1831.54 2231.68 1831.54 2231.68 2052.03 2183.09 2052.03 2184.08 1831.54"/><polygon class="cls-12" points="1942.23 2067.19 1968.16 2022.41 2431.61 2022.41 2460.78 2068.98 1942.23 2067.19"/><path class="cls-9" d="M1920.53,1625.38h564.54a49,49,0,0,0-49-49h-466.5a49,49,0,0,0-49,49Z"/><path class="cls-12" d="M2485.07,1625.38h0a32.61,32.61,0,0,1-32.61,32.6H2303.37a32.61,32.61,0,0,1-32.6-32.6h214.3Z"/><path class="cls-13" d="M2074.36,865.27s-25.22,26.91-25.78,50.14,26.63,24.08,37.11,49.16-2.27,48,8.21,75.49,44.76,58.08,119,53.26,114.16-8.78,124.08-57.22-60.91-76.49-88.67-115.59-43.06-69.69-59.78-81.3-101.13-13.88-110.76-3.4S2074.36,865.27,2074.36,865.27Z"/><path class="cls-7" d="M1783.27,1082.13c0-2.12-14.87-23.8-19.12-26.34s-32.08-1.7-32.08-1.7-12.11-5.32-17.64-3.62c-4.89,1.51,3.62,8.71,9.56,12.11s15.94,3.83,15.94,3.83l12.32,17.42Z"/><path class="cls-7" d="M1721.66,1076.32s-32-35.41-40-39.09c-7.56-3.51-11.61-3.4-10.48-1.42s33.15,43.35,33.15,43.35Z"/><path class="cls-10" d="M1854.92,1137l-49,36.29L1775.86,1125l-14.46-23.22s-41.71-8.41-47.22-10.6-33.64-23.24-41.8-29.65c-5.88-5.2-12.75-5.4-5.05-9.24s45.66,22,45.66,22,53.66-9.89,64.91-1.09c6.58,5.14,23.8,19.4,40.29,33.13C1837,1122,1854.92,1137,1854.92,1137Z"/><path class="cls-7" d="M1854.92,1137l-49,36.29L1775.86,1125l42.33-18.68C1837,1122,1854.92,1137,1854.92,1137Z"/><path class="cls-8" d="M1778.6,1154s67.42,92.35,114.45,96.32,170-84.43,170-84.43l-36.26-116.71-128.61,107.08L1842.06,1116Z"/><polygon class="cls-5" points="1770.95 1149.41 1785.82 1174.91 1856.36 1123.07 1840.21 1108.62 1770.95 1149.41"/><path class="cls-7" d="M1860.92,2069h-85.45c2.14-22.44,42.72-33.44,60.89-44.13,17.45-10.26,51.7-77.8,54.3-83-2.12-6.48-24.32-139.35-45.94-236.81-2.8-12.68-5.61-24.76-8.36-35.9-17.1-69.19-13.69-101.08,0-114.29,31-29.9,66.22-31,95.06,9.62,10.78,15.18,18,66,22.76,123.78,8,96.7,9.28,212.69,9.28,212.69s6.77,18.69,13.76,37.31c5.72,15.28,11.6,30.51,14,35.32C1996.58,1984.26,1860.92,2069,1860.92,2069Z"/><path class="cls-21" d="M1954.18,1688.27c-19.75,2.89-72,10.62-109.46,16.79-2.8-12.68-5.61-24.76-8.36-35.9-17.1-69.19-13.69-101.08,0-114.29,31-29.9,66.22-31,95.06,9.62C1942.2,1579.67,1949.39,1630.53,1954.18,1688.27Z"/><path class="cls-12" d="M1860.92,2069h-85.45c2.14-22.44,42.72-33.44,60.89-44.13l43.78-1s39.54,1.83,97.08-85.53c5.72,15.28,11.6,30.51,14,35.32C1996.58,1984.26,1860.92,2069,1860.92,2069Z"/><path class="cls-10" d="M2093.8,1711.88a453.33,453.33,0,0,1-10.38,59.08c-11.12,43.74-39.69,126.26-58.14,178.12a184.52,184.52,0,0,0-10.3,67.85c.11,3.62.33,7.22.63,10.85,1.12,13,.29,28-5.85,41.2h-194.9a96.82,96.82,0,0,1,32.87-28.34c5.39-2.84,14.11-7.78,24.13-13.63,11-6.42,23.67-13.9,35.24-20.82a84.11,84.11,0,0,0,40.68-64.86l22-251.31,12.83-146.83,115.58,78.19A722.08,722.08,0,0,1,2093.8,1711.88Z"/><path class="cls-7" d="M2093.8,1711.88,1969.74,1690l12.83-146.83,115.58,78.19A722.08,722.08,0,0,1,2093.8,1711.88Z"/><path class="cls-12" d="M2009.76,2069h-194.9a96.82,96.82,0,0,1,32.87-28.34c5.39-2.84,14.11-7.78,24.13-13.63,23.26,1.89,51.74,8,69.92,25a757.59,757.59,0,0,0,73.2-35c.11,3.62.33,7.22.63,10.85C2016.73,2040.76,2015.9,2055.75,2009.76,2069Z"/><path class="cls-22" d="M2353.86,1468.86c-.93,26.81-4.6,53.63-14.34,67.54-23.8,34-189.24,70.25-189.24,70.25l-21.53,64.59H1803.53s-11.33-103.13,11.33-136c16.23-23.53,149.78-84.23,224.34-116.81,29.6-12.94,49.89-21.43,49.89-21.43l92.84-2,168.92-3.67S2355.2,1430.11,2353.86,1468.86Z"/><path class="cls-23" d="M2353.86,1468.86c-80-12.74-237.5-37.83-314.66-50.41,29.6-12.94,49.89-21.43,49.89-21.43l92.84-2,168.92-3.67S2355.2,1430.11,2353.86,1468.86Z"/><path class="cls-23" d="M2181.93,1395c-79.7,51.11-194.21,127.58-199.36,148.18-5.92,23.63-8.67,93.8-9.71,128H1803.53s-11.33-103.13,11.33-136S2089.09,1397,2089.09,1397Z"/><path class="cls-11" d="M2056.51,1407.77l62.89-34.84s-2.16-6.65-5.78-17.85c-2-6.22-4.49-13.83-7.29-22.5-3.94-12.21-8.57-26.48-13.53-41.83-23.42-72.43-54.56-168.75-59.24-183.83-7.65-24.65-12.75-43.34-6.8-57.79,3.35-8.13,27.93-18.94,48.79-26.84,2.85-1.09,5.66-2.13,8.31-3.08,12.44-4.48,21.94-7.48,21.94-7.48l114.73-1.27s8.42,1.46,20.77,4c4.37.9,9.25,2,14.42,3.12,21.23,4.8,47.49,11.68,65.1,19.62,19.33,8.7,30.14,23.71,36.17,45.06,4.59,16.2,6.44,36,7.17,59.47,1.7,54.4,2.55,266,2.55,266Z"/><path class="cls-8" d="M2286,1083.12,2236.89,1308l-130.56,24.58c-3.94-12.21-8.57-26.48-13.53-41.83,36.9-10,114.53-30.92,114.53-30.92Z"/><path class="cls-8" d="M2255.72,1017.61c-1.51,29.68-7.4,92.66-30.09,95.26-29.74,3.4-72.24-39.95-72.24-39.95s-14.44,44.2-46.74,36.55c-24.46-5.8-29.9-60.83-31.1-87.18,2.85-1.09,5.66-2.13,8.31-3.08,12.44-4.48,21.94-7.48,21.94-7.48l114.73-1.27s8.42,1.46,20.77,4C2245.67,1015.39,2250.55,1016.44,2255.72,1017.61Z"/><path class="cls-8" d="M2056.51,1407.77l62.89-34.84s-2.16-6.65-5.78-17.85h131.56l94.34-290.65s8,.42,17.47,17.86c4.59,16.2,6.44,36,7.17,59.47,1.7,54.4,2.55,266,2.55,266Z"/><path class="cls-5" d="M2241.3,1014.49c-.74,19.51-4.25,58.72-20.2,70.89-21.52,16.44-69.69-35.11-69.69-35.11s-24.36,43-44.76,35.69c-14.89-5.39-20.72-45.5-22.79-66.75,12.44-4.48,21.94-7.48,21.94-7.48l114.73-1.27S2229,1011.92,2241.3,1014.49Z"/><path class="cls-11" d="M2108.35,1375.06h185.27c16.15,0,40.8-78.62,49.3-115.16s24.64-183.58-3.4-195.47-39.1-.85-53.55,18.69-66.29,196.32-66.29,196.32l-143.62,39.1Z"/><path class="cls-10" d="M2108.35,1375.06H1997.87c-12.75,0-27.2-10.2-27.2-10.2l-21.53,9.35h-49.86c7.65-15.3,40-37.82,40-37.82h-.09c-1.7.33-29,5.53-35.18,5.93-6.38.43-10.63.19-11.48-5.52-.37-2.53,57.37-18.7,67.57-16.57a17,17,0,0,1,2.84.88c11.49,4.49,33.28,21.64,33.28,21.64l79.89-24.22Z"/><polygon class="cls-7" points="1964.38 1351.04 1935.45 1374.2 1927.06 1374.2 1958.99 1352.38 1958.99 1346.79 1964.38 1351.04"/><polygon class="cls-7" points="1950.99 1345.38 1916.72 1374.2 1908.05 1374.2 1945.6 1346.74 1945.6 1341.13 1950.99 1345.38"/><path class="cls-7" d="M1962.89,1321.12c-9.2,3.57-23.66,15.27-23.66,15.27h-.09c-1.7.33-29,5.53-35.18,5.93-6.38.43-10.63.19-11.48-5.52-.37-2.53,57.37-18.7,67.57-16.57A17,17,0,0,1,1962.89,1321.12Z"/><polygon class="cls-5" points="2055.66 1317.39 2081.59 1375.06 2125.01 1375.06 2087.02 1310.15 2055.66 1317.39"/><path class="cls-10" d="M2220.53,1010.46c-4.25,7.22-31,41.22-64.59,40.37s-42.07-13.17-50.14-39.1c11.47-2.55,16.57-7.65,17.85-12.32.63-2.33,1-8.14.17-13.92s-3.15-11.54-7.82-13.7a18.27,18.27,0,0,0-5.25-1.39c-6.87-.94-15.28.06-21.95-5.83-10.35-9.15-11-62-10.62-73.52s4.25-23.37,10.2-28.89c0,0,7.65,10.62,22.95,23.79s50.56,17,50.56,17,9.35,64.17,16.57,79.46S2201.84,1004.51,2220.53,1010.46Z"/><path class="cls-7" d="M2151.13,951.1c-1.85,15.61-6.66,29-27.31,34.39-.92-5.8-3.15-11.54-7.82-13.7a18.27,18.27,0,0,0-5.25-1.39C2121.51,970.36,2142.46,968,2151.13,951.1Z"/><path class="cls-13" d="M2129,906.64a4.17,4.17,0,0,0-3,1,5.1,5.1,0,0,0-1.56,2.14,4.67,4.67,0,0,0,1.57,5.33c2.71,2,7,.84,7.75-2.64A4.77,4.77,0,0,0,2129,906.64Z"/><path class="cls-13" d="M2120,899.52a41.31,41.31,0,0,1,9.56.49,47.38,47.38,0,0,1,9.06,2.75s-1.89-7.4-9.23-7.77A10.8,10.8,0,0,0,2120,899.52Z"/><path class="cls-13" d="M2090.23,906.85a4.16,4.16,0,0,1,2.95,1,5,5,0,0,1,1.56,2.15,4.66,4.66,0,0,1-1.57,5.32c-2.71,2.06-7,.84-7.75-2.64A4.77,4.77,0,0,1,2090.23,906.85Z"/><path class="cls-13" d="M2099.42,899.52a41.22,41.22,0,0,0-9.55.49,47.64,47.64,0,0,0-9.07,2.75s1.89-7.4,9.23-7.77A10.78,10.78,0,0,1,2099.42,899.52Z"/><path class="cls-5" d="M2103.82,942.33s25.49-7.93,26.91-7.93c-1.13,8.78-3.4,15-12.46,16.71S2103.82,942.33,2103.82,942.33Z"/><path class="cls-15" d="M2105.67,894.24l-.61,28.8a2.37,2.37,0,0,0,2.37,2.42h8"/><path class="cls-10" d="M2162.32,926.11c0-.85,5.95-20.19,18.91-22.31s11.26,14.87,9.77,20.61-6.8,17-14.66,17.42a22,22,0,0,1-13.81-4.46Z"/><path class="cls-7" d="M2184.76,923.42s5.2-9.44,1.25-12.48-12.21,1.1-16.88,13.68c4.27-1.74,6.59.21,7,2.92s-3.57,7.21-6.78,5.82c4.3,2.53,10.89-.44,11.67-4.11s-2.9-7.65-8.13-7.47c2.57-4.94,6.76-7.28,8.74-6.55C2184.49,916.27,2184.76,923.42,2184.76,923.42Z"/><rect class="cls-6" x="1035.1" y="1647.81" width="31.6" height="401.29"/><path class="cls-12" d="M775.13,1168.11h0A44.46,44.46,0,0,1,819.44,1209l26.74,330.14a119.2,119.2,0,0,1-27.7,86.48h0Z"/><path class="cls-9" d="M1296.14,1658.23h0a55.47,55.47,0,0,0-53.48-40.73H954.17A259.44,259.44,0,0,0,820,1654.9l-5.52,3.33Z"/><polygon class="cls-12" points="839.73 1658.23 814.45 1658.23 755.47 1168.11 775.13 1168.11 839.73 1658.23"/><path class="cls-12" d="M814.45,1658.23h0a21.07,21.07,0,0,0,21.07,21.07H955.35a21.07,21.07,0,0,0,21.07-21.07h-162Z"/><polygon class="cls-5" points="1074.72 1818.81 1029.78 1818.81 1029.78 2055.09 1075.66 2055.09 1074.72 1818.81"/><polygon class="cls-12" points="1303.03 2069.39 1278.55 2027.12 841.05 2027.12 813.51 2071.08 1303.03 2069.39"/><path class="cls-17" d="M1357.61,1995.41s-2.1,48.31-2.1,73.57H1590.9c-15.39-41.79-150.32-90.35-150.32-90.35Z"/><path class="cls-9" d="M1026.05,1433.27s-26.69,168.84,17.62,184.56c22.94,8.14,331.61,4.29,331.61,4.29s-17.16,345.9-17.16,377.34c150.08,0,164.38,1.43,164.38,1.43s20-380.2,15.72-421.65-14.3-81.47-85.76-98.62S1218.05,1462,1218.05,1462l-11.43-50Z"/><path class="cls-13" d="M1271,928.16c1.14-.85,13.6-19.26,14.17-25.21s8.5-37.68,5.38-42.49-39.38-6.52-39.38-6.52-2.26-15.58-12.18-18.13-83.29.85-95.47,20.11,3.69,66,13.32,83.86,13.31,26.91,13.31,26.91Z"/><path class="cls-10" d="M1131.68,988.36s27.2,59.49,53.54,57.79,43.77-22.52,43.77-22.52-7.65-4.67-10.62-13.17c-.71-2.06-.24-5.64,1.1-9.88a72,72,0,0,1,9.23-18.47c5.46-7.84,10.49-14.14,10.49-14.14L1201,917l-22.1,9.35s-3.62,25.36-12.43,37.68c-.25.35-.49.67-.74,1C1156.33,976.89,1131.68,988.36,1131.68,988.36Z"/><path class="cls-7" d="M1166.42,964c2.71,7.48,6.58,16,11.58,21.39,7.46,8.05,29.2,13,41.47,15.19a72,72,0,0,1,9.23-18.47c5.46-7.84,10.49-14.14,10.49-14.14L1201,917l-22.1,9.35S1175.23,951.68,1166.42,964Z"/><path class="cls-7" d="M1271.25,925.48s4-12.6,12-11.68,9.52,12,5.84,23-14.75,17.52-18.13,15.67S1271.25,925.48,1271.25,925.48Z"/><path class="cls-10" d="M1275.86,894.76c1.15,14.26-5.07,76.49-9.68,86.17s-17.51,10.6-37.33,8.29-38.85-12.72-43.77-18c-6.92-7.37-8.76-34.1-8.76-34.1S1169.87,951.9,1157,945s-10.6-38.25-5.53-42.4,16.13-7.37,23,13.83c4.61-11.53,6-13.83,6-13.83s60.25-7.57,66.77-32.79C1252.05,869.24,1275.28,887.65,1275.86,894.76Z"/><path class="cls-14" d="M1246.06,902.13V938.2a4.5,4.5,0,0,1-4.5,4.5h-9.07"/><path class="cls-5" d="M1241.22,965c0,5.22-20.5,7.89-20.91-1.93S1241.09,952.66,1241.22,965Z"/><path class="cls-13" d="M1218.57,913.25a4.51,4.51,0,0,1,3.21,1.1,5.53,5.53,0,0,1,1.69,2.33,5.08,5.08,0,0,1-1.7,5.78c-2.94,2.22-7.61.91-8.41-2.87A5.17,5.17,0,0,1,1218.57,913.25Z"/><path class="cls-13" d="M1228.39,905.53a45.3,45.3,0,0,0-10.36.52,52,52,0,0,0-9.83,3s2-8,10-8.43A11.71,11.71,0,0,1,1228.39,905.53Z"/><path class="cls-13" d="M1260.63,913.48a4.51,4.51,0,0,0-3.21,1.1,5.53,5.53,0,0,0-1.69,2.33,5.08,5.08,0,0,0,1.7,5.78c2.94,2.22,7.61.91,8.41-2.87A5.17,5.17,0,0,0,1260.63,913.48Z"/><path class="cls-13" d="M1250.65,905.53a45.38,45.38,0,0,1,10.37.52,52,52,0,0,1,9.83,3s-2-8-10-8.43A11.73,11.73,0,0,0,1250.65,905.53Z"/><path class="cls-7" d="M1154.52,922.64s-2.08-11.51,3-13.26,12.16,5.36,12.61,19.89c-3.78-3.26-6.84-2-8.25.57s1.18,8.65,4.95,8.33c-5.29,1.11-11-4.22-10.56-8.27s5.62-6.85,10.93-4.86c-.93-6-4.42-9.82-6.72-9.75C1157.27,915.38,1154.52,922.64,1154.52,922.64Z"/><path class="cls-10" d="M1541.08,1064.58c-9.5,24.14-22.11,48-31.53,64.61-7.67,13.51-13.2,22.16-13.2,22.16l-44.1-33.52,20.35-23.36,54.91-63S1539.12,1046.08,1541.08,1064.58Z"/><path class="cls-7" d="M1509.55,1129.19c-7.67,13.51-13.2,22.16-13.2,22.16l-44.1-33.52,20.35-23.36Z"/><path class="cls-10" d="M1612,1056.58c0,.05,0,.09,0,.15a11.44,11.44,0,0,1-1.21,2.76c-.25.47-.54,1-.88,1.49a84.09,84.09,0,0,1-6.55,8.89q-1.63,2-3.5,4.1h0c-2.39,2.66-5,5.34-7.61,7.87-1.5,1.44-3,2.81-4.55,4.1-6.59,5.64-13.18,9.66-17.72,9.2-7.88-.8-28.78-3.81-43.22-5.94a20.08,20.08,0,0,1-17.1-20.5,35.83,35.83,0,0,1,3.61-15.26c7.36-14.11,35.12-16.81,35.12-16.81s3.06.26,7.89.7c17.59,1.59,59.33,7.47,61.13,9C1621.35,1049.77,1616,1055.68,1612,1056.58Z"/><path class="cls-7" d="M1556.19,1037.33c-1.5,9.42-11.34,23.21-13.86,27.79-3,5.46-32.93,8.61-32.76,3.58a35.83,35.83,0,0,1,3.61-15.26c7.36-14.11,35.12-16.81,35.12-16.81S1551.36,1036.89,1556.19,1037.33Z"/><path class="cls-10" d="M1533.43,1023.84c5.08-2.6,50.4,1.65,51.36,3.5s-.81,7-7.13,8.59-29.37.7-29.37.7-9.85,14.5-13.68,19.09-24.34,11.69-25.6,8.32C1503.94,1050.5,1525.46,1027.92,1533.43,1023.84Z"/><path class="cls-7" d="M1611.92,1056.73a11.44,11.44,0,0,1-1.21,2.76c-.25.47-.54,1-.88,1.49-12.84-2-35.49-5.5-39.41-6-5.52-.77-5-2.71-4.77-4.38C1565.85,1049.14,1601.27,1055,1611.92,1056.73Z"/><path class="cls-7" d="M1603.28,1069.87q-1.63,2-3.5,4.1h0c-12.62-2-28.16-4.35-31.35-4.8-5.52-.78-6.18-3.46-4.77-4.38C1565.32,1063.7,1589,1067.54,1603.28,1069.87Z"/><path class="cls-7" d="M1592.16,1081.84c-1.5,1.44-3,2.81-4.55,4.1-9.67-1.49-18.74-2.88-21.1-3.21-5.52-.78-6.18-3.48-4.76-4.38C1564.13,1076.82,1579,1079.51,1592.16,1081.84Z"/><path class="cls-7" d="M1568.49,1045.09c-.13.89-5.91,42.05-5.91,42.05s-3.69-6.54-2.43-17.93C1562.21,1050.62,1568.49,1045.09,1568.49,1045.09Z"/><path class="cls-20" d="M1509.57,1148.85c-41.44,80.71-66.83,126.73-76.53,137.94-14.19,16.37-31.66,26.73-74.21-2.19-61-36.89-115.48-68.36-129.72-98.36-23.74-50,22.55-90.17,30.4-102.44,12.55-19.66,28.38-3.28,28.38-3.28l103,102,62.89-74.79Z"/><path class="cls-16" d="M1233.64,1995.41s-2.11,48.31-2.11,73.57h235.4c-15.39-41.79-150.32-90.35-150.32-90.35Z"/><path class="cls-12" d="M902.07,1433.27s-26.68,168.84,17.63,184.56c22.94,8.14,331.6,4.29,331.6,4.29s-17.15,345.9-17.15,377.34c150.08,0,164.37,1.43,164.37,1.43s20-380.2,15.73-421.65-14.3-81.47-85.76-98.62S1094.08,1462,1094.08,1462l-11.44-50Z"/><path class="cls-5" d="M901.16,1432.47H1206s83-342.31,81.88-352c-.75-6.63-28-30.83-44.93-45.26-3-2.55-5.67-4.81-7.81-6.61l-5.39-4.46-14.79-5.42-24,19.28-9.81,7.88-7.22-11.47-25.14-39.88-.08-.13-16.15-5.93s-6.56,1-17,2.77c-2.74.45-5.75,1-9,1.51-39.93,6.76-113.88,30.65-126.75,39.71-32.38,22.81-51.28,208-51.28,208Z"/><path class="cls-20" d="M1014.28,1038s37.94.09,55.79,46.83,11,186.13,11,186.13l43.63,87-20.45,21.62s-131.14,21.35-159.16-2.36C923,1358.48,929.84,1037.23,1014.28,1038Z"/><path class="cls-20" d="M1105.71,992.75c3.5,27.28,16.76,94.33,16.76,94.33l43.63-31.15,13.6,4,21-.56s4.54,17.56,10.77,36.25c9.78-11.11,24.8-46.32,30.8-60.93-2.67-2.28-5.1-4.3-7.1-6-3.78-3.13-6.14-5.05-6.14-5.05l-13.83-5L1191,1038.05l-9.81,7.88-7.22-11.47-25.14-39.88-17.15-6.22s-6.22,1-16.18,2.7Z"/><polygon class="cls-11" points="1187.87 1057.79 1152.38 1357.78 1104.29 1379.54 1073.37 1344.04 1168.41 1052.07 1187.87 1057.79"/><path class="cls-11" d="M1160.15,1031.57s.51,4.35,1.24,9.79c1.09,8,2.67,18.32,3.86,20.52,2,3.68,19.84,5.38,24.09,2.84,2.78-1.69,9.13-11.31,13.15-17.7,2.09-3.35,3.56-5.83,3.56-5.83l-15-3.14-9.81,7.88-7.22-11.47Z"/><path class="cls-5" d="M1181.19,1045.93s11.84,1,21.3,1.09c1.09,0,2.13,0,3.13,0,2.13,3.83,3.62,7.43,9.35,20.62,6.42-9.47,17-32,20.16-38.94,0,0,0,0,0,0,.59-1.31.93-2,.93-2l-14.74-13-6.18,5-.19.15-24,19.28Z"/><polygon class="cls-5" points="1115.01 989.76 1115.5 991.06 1115.59 991.28 1139.6 1055.77 1161.39 1041.36 1161.5 1041.29 1181.19 1045.93 1173.97 1034.46 1148.83 994.58 1148.75 994.45 1140.27 980.99 1115.01 989.76"/><path class="cls-13" d="M1329.22,1090.77H1441.5a19.54,19.54,0,0,1,19,24l-37,158.11a19.54,19.54,0,0,1-19,15.08H1292.26a19.53,19.53,0,0,1-19-24l37-158.11A19.54,19.54,0,0,1,1329.22,1090.77Z"/><path class="cls-10" d="M1110,1350.54s19.62-4.19,44.45-9.62c36.29-7.9,83.73-18.4,97.19-22.09,22.67-6.24,37.89-41.29,37.89-41.29s33.5,1.62,41.44,1,7.77-5,5.1-7.36c-3.61-3.26-38.25-6.66-51-7.37,19.13-7.16,41-8.86,49.09-10.34,7.26-1.34,10.47-6.44,6.16-8.72-5.66-3-27.4.22-51.85,2.64,1.7-3.69,7.23-5.59,12.75-8.59,11.41-3.75,27.81-5.08,35.7-6.15,12.46-1.7,11.15-8.6,5.3-10.4a28,28,0,0,0-7.31-.68c-15.16,0-44.31,4.49-44.31,4.49a24.4,24.4,0,0,1,14.33-8c9.67-1.65,25-4.3,32.84-5.78,11.89-2.26,8.63-6.51,6.37-9.34s-56.8.85-65.3,7.64-28.9,55-29.46,57.23l-86.06,1.82-47.08,1Z"/><path class="cls-7" d="M1110,1350.54s19.62-4.19,44.45-9.62l8.87-71.27-47.08,1Z"/><path class="cls-5" d="M1128.45,1265.59l-3.71,92.33s-151.28,19.83-166.57-5.67-11.73-170.93-2.27-235.7c9.66-66.2,29.3-79.29,58.38-78.56,16.67.42,36,16.17,42.18,41.45s4.36,186.15,4.36,186.15Z"/><polygon class="cls-19" points="2252.57 1165.56 2270.82 1347.21 2507.22 1347.21 2488.96 1165.56 2252.57 1165.56"/><polygon class="cls-5" points="2252.57 1165.56 2270.82 1347.21 2498.92 1347.21 2480.68 1165.56 2252.57 1165.56"/><rect class="cls-20" x="2270.82" y="1345.65" width="348.37" height="15.55"/><circle class="cls-1" cx="2369.49" cy="1273.63" r="17.2"/><polygon class="cls-19" points="1671.61 1165.56 1689.87 1347.21 1926.26 1347.21 1908.01 1165.56 1671.61 1165.56"/><polygon class="cls-5" points="1671.61 1165.56 1689.87 1347.21 1917.96 1347.21 1899.72 1165.56 1671.61 1165.56"/><rect class="cls-20" x="1689.87" y="1345.65" width="348.37" height="15.55"/><path class="cls-1" d="M1771.33,1273.63a17.2,17.2,0,1,0,17.2-17.2A17.21,17.21,0,0,0,1771.33,1273.63Z"/><polygon class="cls-19" points="1536.53 1335.2 1515.04 1335.2 1499.69 1335.2 1478.21 1335.2 1472.07 1360.37 1499.69 1360.37 1515.04 1360.37 1542.66 1360.37 1536.53 1335.2"/><path class="cls-5" d="M1457.18,1236.36v17.35H1443.5c-8.29,0-13.82,3.22-14.74,8.75s-2.3,55.71,4.61,60.77c1.67,1.25,5,2.23,9,3a142,142,0,0,0,14.86,2v6.43a15,15,0,0,0,15,14.95h70.44a14.94,14.94,0,0,0,15-14.95v-98.31Zm0,81.31c-5.73.22-11.46.07-14.36-1a5.22,5.22,0,0,1-.71-.31c-6-3.23-6.9-50.65-2.3-52.49a22,22,0,0,1,5.55-.77c3.31-.17,7.57-.21,11.82-.17Z"/><path class="cls-1" d="M1457.18,1253.71v9.19c-4.25,0-8.51,0-11.82.17.16-3.45.31-6.61.44-9.36Z"/><path class="cls-1" d="M1457.18,1317.67v10.57a142,142,0,0,1-14.86-2c.16-2.91.33-6.15.5-9.61C1445.72,1317.74,1451.45,1317.89,1457.18,1317.67Z"/><path class="cls-5" d="M1585,1106a18.82,18.82,0,0,0-3.57-3.67c-14.07-11-38-5.24-44.18,12-4.6,12.89,2.6,29.22-5.93,39.93-4.59,5.76-13.21,8.89-14.43,16.16-1.29,7.6,6.69,14,6.88,21.7.17,6.91-5.74,12.18-10.58,17.12s-9.23,12.43-5.67,18.36c-2.14-3.57,13.41-10.5,15.34-11.22,6.61-2.47,12.84-3.23,16.84-9.88,3.13-5.21,4.08-11.39,5.3-17.34s2.91-12.12,7.09-16.53c7.15-7.53,20.39-8.75,24.59-18.24,2.59-5.84.62-12.82,2.69-18.87,1.89-5.5,6.89-9.54,8.61-15.1C1589.46,1115.48,1588,1110.11,1585,1106Z"/><polygon class="cls-19" points="2147.57 1334.69 2169.06 1334.69 2184.41 1334.69 2205.89 1334.69 2212.03 1359.85 2184.41 1359.85 2169.06 1359.85 2141.44 1359.85 2147.57 1334.69"/><path class="cls-5" d="M2126.56,1235.85v98.3a14.94,14.94,0,0,0,15,15H2212a15,15,0,0,0,15-15v-6.43a142.09,142.09,0,0,0,14.86-2c4-.8,7.28-1.77,8.95-3,6.91-5.07,5.53-55.25,4.61-60.78s-6.45-8.74-14.74-8.74h-13.68v-17.35Zm100.36,26.54c4.26,0,8.51,0,11.82.16a22.33,22.33,0,0,1,5.55.78c4.6,1.84,3.68,49.26-2.3,52.48a5.67,5.67,0,0,1-.7.31c-2.91,1.11-8.64,1.25-14.37,1Z"/><path class="cls-1" d="M2226.92,1253.2v9.19c4.26,0,8.51,0,11.82.16-.16-3.44-.31-6.61-.44-9.35Z"/><path class="cls-1" d="M2226.92,1317.15v10.57a142.09,142.09,0,0,0,14.86-2c-.16-2.91-.33-6.15-.49-9.62C2238.38,1317.23,2232.65,1317.37,2226.92,1317.15Z"/><path class="cls-5" d="M2144.59,1156.65c-4.58,3.23-10.75,10.38-5.18,19.1,2.35,3.68,5.7,4.7,8.87,5.54a60.65,60.65,0,0,0,12.58,2.38c2.93.15,6-.22,8.47-3,5.52-6.35,8.61-15.93,3.4-21.45C2166.67,1152.79,2150.63,1152.41,2144.59,1156.65Z"/><path class="cls-5" d="M2224.86,1088c-8.82-1.06-18.12.26-25.65,6.66-13.9,11.81-14.43,33.48-8.56,49.24,3.34,9,7.36,18.33,5.66,27.74-1.22,6.79-5.3,12.69-9.58,18.1s-8.91,10.71-11.59,17.07-3,14.19,1,19.76c2.46-12.44,14.68-20.11,25.8-26.21,9.36-5.13,21.4-11.68,25.12-22.48s-3.79-23.51,2.16-33.63c3-5.17,8.56-5.73,12.79-9,8.12-6.2,10.08-22.57,5.32-33.54S2234.11,1089.13,2224.86,1088Z"/><polygon class="cls-19" points="2549.01 1337.1 2570.5 1337.1 2585.84 1337.1 2607.33 1337.1 2613.47 1362.27 2585.84 1362.27 2570.5 1362.27 2542.87 1362.27 2549.01 1337.1"/><path class="cls-5" d="M2528,1238.26v98.3a15,15,0,0,0,15,15h70.44a15,15,0,0,0,15-15v-6.42a144.75,144.75,0,0,0,14.86-2c4-.79,7.28-1.77,9-3,6.91-5.07,5.53-55.25,4.61-60.77s-6.45-8.75-14.74-8.75h-13.68v-17.35Zm100.37,26.54c4.25,0,8.51,0,11.82.16a22.33,22.33,0,0,1,5.55.78c4.6,1.84,3.68,49.26-2.31,52.48a4.59,4.59,0,0,1-.7.31c-2.91,1.11-8.63,1.26-14.36,1Z"/><path class="cls-1" d="M2628.36,1255.61v9.19c4.25,0,8.51,0,11.82.16-.16-3.44-.31-6.61-.44-9.35Z"/><path class="cls-1" d="M2628.36,1319.57v10.57a144.75,144.75,0,0,0,14.86-2c-.16-2.91-.33-6.15-.5-9.62C2639.81,1319.64,2634.09,1319.79,2628.36,1319.57Z"/><path class="cls-5" d="M2595.85,1189.49c0-3.87-.19-7.77,0-11.62.52-11,6.56-20.11,17.33-23.39,13.46-4.11,17.93,9.43,9.62,18.92-2.69,3.07-5.75,6-7.21,9.8-2.28,6-.18,12.82-2,18.92-4,13-22.53,15.44-29.2,27.27-1.24-4.91.53-10.1,2.91-14.57s5.43-8.65,7-13.46A38.26,38.26,0,0,0,2595.85,1189.49Z"/><polygon class="cls-18" points="3170.8 2074.78 3113.6 2074.78 2958.65 1450.87 2942.03 1383.9 2999.22 1383.9 3015.85 1450.87 3170.8 2074.78"/><polygon class="cls-16" points="3015.85 1450.87 2958.65 1450.87 2942.03 1383.9 2999.22 1383.9 3015.85 1450.87"/><polygon class="cls-18" points="986.04 1383.9 968.65 1453.92 814.46 2074.78 757.26 2074.78 911.46 1453.92 928.85 1383.9 986.04 1383.9"/><polygon class="cls-16" points="986.04 1383.9 968.65 1453.92 911.46 1453.92 928.85 1383.9 986.04 1383.9"/><rect class="cls-18" x="733.11" y="1357.97" width="2391.93" height="60.26"/><path class="cls-2" d="M321.45,1698.83c-1.37-1.65-3.52-3.32-5.77-3.32a6.47,6.47,0,0,0-3.27.31,6.66,6.66,0,0,0-3,1.38,8.77,8.77,0,0,0-3.31,5.77,8.66,8.66,0,0,0,1.69,6.23c1.37,1.65,3.53,3.31,5.77,3.31a6.51,6.51,0,0,0,3.28-.3,6.63,6.63,0,0,0,2.95-1.38,8.77,8.77,0,0,0,3.31-5.77A8.61,8.61,0,0,0,321.45,1698.83Z"/><path class="cls-5" d="M1510,680.49A113.33,113.33,0,0,0,1393.9,567.2c-59.86,1.43-108.76,50.06-110.51,109.91A113.33,113.33,0,0,0,1348,782.84c19,9.06,20.59,35.65,2.8,46.89l-.46.28c31.08.15,46.44-13.72,54-26.64a26.58,26.58,0,0,1,17.21-12.3A113.36,113.36,0,0,0,1510,680.49Z"/><g id="_Groupe_" data-name="&lt;Groupe&gt;"><g id="_Groupe_2" data-name="&lt;Groupe&gt;"><path id="_Tracé_" data-name="&lt;Tracé&gt;" class="cls-19" d="M1386.21,680.67v-10a2.28,2.28,0,0,0-2.29-2.29h-10a2.11,2.11,0,0,1-2-1.39c-.23-.64-.5-1.27-.78-1.89a2.1,2.1,0,0,1,.42-2.38l7.05-7.06a2.28,2.28,0,0,0,0-3.24l-7.07-7.07a2.28,2.28,0,0,0-3.24,0l-7.06,7a2.1,2.1,0,0,1-2.38.42c-.62-.28-1.25-.55-1.89-.78a2.11,2.11,0,0,1-1.39-2v-10a2.29,2.29,0,0,0-2.29-2.29h-10a2.29,2.29,0,0,0-2.29,2.29v10a2.11,2.11,0,0,1-1.39,2c-.64.23-1.27.5-1.89.78a2.1,2.1,0,0,1-2.38-.42l-7.06-7a2.27,2.27,0,0,0-3.23,0l-7.08,7.07a2.28,2.28,0,0,0,0,3.24l7,7.06a2.09,2.09,0,0,1,.42,2.38c-.28.62-.55,1.25-.78,1.89a2.11,2.11,0,0,1-2,1.39h-10a2.29,2.29,0,0,0-2.29,2.29v10a2.3,2.3,0,0,0,2.29,2.29h10a2.11,2.11,0,0,1,2,1.39c.23.64.5,1.27.78,1.89a2.09,2.09,0,0,1-.42,2.38l-7,7.06a2.27,2.27,0,0,0,0,3.23l7.08,7.08a2.27,2.27,0,0,0,3.23,0l7.06-7a2.09,2.09,0,0,1,2.38-.42c.62.28,1.25.55,1.89.78a2.11,2.11,0,0,1,1.39,2v10a2.3,2.3,0,0,0,2.29,2.29h10a2.3,2.3,0,0,0,2.29-2.29v-10a2.11,2.11,0,0,1,1.39-2c.64-.23,1.27-.5,1.89-.78a2.09,2.09,0,0,1,2.38.42l7.06,7a2.28,2.28,0,0,0,3.24,0l7.07-7.08a2.27,2.27,0,0,0,0-3.23l-7.05-7.06a2.11,2.11,0,0,1-.42-2.38c.28-.62.55-1.25.78-1.89a2.11,2.11,0,0,1,2-1.39h10A2.29,2.29,0,0,0,1386.21,680.67Z"/><path id="_Tracé_2" data-name="&lt;Tracé&gt;" class="cls-1" d="M1364.56,675.66a16.24,16.24,0,1,1-16.23-16.23A16.24,16.24,0,0,1,1364.56,675.66Z"/><path id="_Tracé_3" data-name="&lt;Tracé&gt;" class="cls-5" d="M1358.57,675.66a10.25,10.25,0,1,1-10.24-10.24A10.24,10.24,0,0,1,1358.57,675.66Z"/></g><g id="_Groupe_3" data-name="&lt;Groupe&gt;"><path id="_Tracé_4" data-name="&lt;Tracé&gt;" class="cls-19" d="M1453.12,731.15v-10a2.3,2.3,0,0,0-2.29-2.29h-10a2.12,2.12,0,0,1-2-1.38c-.24-.65-.5-1.28-.78-1.9a2.09,2.09,0,0,1,.42-2.38l7-7.06a2.27,2.27,0,0,0,0-3.23l-7.08-7.08a2.28,2.28,0,0,0-3.24,0l-7,7a2.09,2.09,0,0,1-2.38.42c-.62-.28-1.25-.54-1.9-.78a2.12,2.12,0,0,1-1.38-2v-10a2.3,2.3,0,0,0-2.29-2.29h-10a2.29,2.29,0,0,0-2.29,2.29v10a2.11,2.11,0,0,1-1.39,2q-1,.36-1.89.78a2.09,2.09,0,0,1-2.38-.42l-7.06-7a2.28,2.28,0,0,0-3.24,0l-7.07,7.08a2.27,2.27,0,0,0,0,3.23l7,7.06a2.11,2.11,0,0,1,.42,2.38c-.29.62-.55,1.25-.78,1.9a2.12,2.12,0,0,1-2,1.38h-10a2.29,2.29,0,0,0-2.29,2.29v10a2.28,2.28,0,0,0,2.29,2.29h10a2.12,2.12,0,0,1,2,1.39q.35,1,.78,1.89a2.1,2.1,0,0,1-.42,2.38l-7,7.06a2.28,2.28,0,0,0,0,3.24l7.07,7.07a2.28,2.28,0,0,0,3.24,0l7.06-7.05a2.1,2.1,0,0,1,2.38-.42q.93.43,1.89.78a2.11,2.11,0,0,1,1.39,2v10a2.28,2.28,0,0,0,2.29,2.29h10a2.29,2.29,0,0,0,2.29-2.29v-10a2.12,2.12,0,0,1,1.38-2c.65-.23,1.28-.49,1.9-.78a2.11,2.11,0,0,1,2.38.42l7,7.05a2.28,2.28,0,0,0,3.24,0l7.08-7.07a2.28,2.28,0,0,0,0-3.24l-7-7.06a2.09,2.09,0,0,1-.42-2.38q.42-.93.78-1.89a2.11,2.11,0,0,1,2-1.39h10A2.29,2.29,0,0,0,1453.12,731.15Z"/><circle id="_Tracé_5" data-name="&lt;Tracé&gt;" class="cls-1" cx="1415.23" cy="726.15" r="16.24"/><path id="_Tracé_6" data-name="&lt;Tracé&gt;" class="cls-5" d="M1425.48,726.15a10.25,10.25,0,1,1-10.25-10.25A10.24,10.24,0,0,1,1425.48,726.15Z"/></g><g id="_Groupe_4" data-name="&lt;Groupe&gt;"><path id="_Tracé_7" data-name="&lt;Tracé&gt;" class="cls-19" d="M1469.36,650.85v-10a2.3,2.3,0,0,0-2.3-2.29h-10a2.09,2.09,0,0,1-2-1.39c-.24-.64-.5-1.27-.79-1.89a2.12,2.12,0,0,1,.42-2.38l7.06-7.06a2.29,2.29,0,0,0,0-3.23l-7.08-7.08a2.28,2.28,0,0,0-3.24,0l-7,7.05a2.09,2.09,0,0,1-2.38.42c-.62-.28-1.25-.55-1.9-.78a2.13,2.13,0,0,1-1.39-2v-10a2.29,2.29,0,0,0-2.29-2.29h-10a2.29,2.29,0,0,0-2.29,2.29v10a2.13,2.13,0,0,1-1.39,2c-.65.23-1.28.5-1.9.78a2.09,2.09,0,0,1-2.38-.42l-7-7.05a2.28,2.28,0,0,0-3.24,0l-7.08,7.08a2.29,2.29,0,0,0,0,3.23l7.06,7.06a2.12,2.12,0,0,1,.42,2.38c-.29.62-.55,1.25-.79,1.89a2.09,2.09,0,0,1-2,1.39h-10a2.3,2.3,0,0,0-2.3,2.29v10a2.3,2.3,0,0,0,2.3,2.29h10a2.09,2.09,0,0,1,2,1.39c.24.64.5,1.27.79,1.89a2.12,2.12,0,0,1-.42,2.38l-7.06,7.06a2.3,2.3,0,0,0,0,3.24l7.08,7.07a2.28,2.28,0,0,0,3.24,0l7-7a2.11,2.11,0,0,1,2.38-.42c.62.29,1.25.55,1.9.78a2.13,2.13,0,0,1,1.39,2v10a2.28,2.28,0,0,0,2.29,2.29h10a2.28,2.28,0,0,0,2.29-2.29v-10a2.13,2.13,0,0,1,1.39-2c.65-.23,1.28-.49,1.9-.78a2.11,2.11,0,0,1,2.38.42l7,7a2.28,2.28,0,0,0,3.24,0l7.08-7.07a2.3,2.3,0,0,0,0-3.24l-7.06-7.06a2.12,2.12,0,0,1-.42-2.38c.29-.62.55-1.25.79-1.89a2.09,2.09,0,0,1,2-1.39h10A2.3,2.3,0,0,0,1469.36,650.85Z"/><path id="_Tracé_8" data-name="&lt;Tracé&gt;" class="cls-1" d="M1447.71,645.85a16.24,16.24,0,1,1-16.24-16.24A16.24,16.24,0,0,1,1447.71,645.85Z"/><path id="_Tracé_9" data-name="&lt;Tracé&gt;" class="cls-5" d="M1441.72,645.85a10.25,10.25,0,1,1-10.25-10.25A10.24,10.24,0,0,1,1441.72,645.85Z"/></g></g><path class="cls-5" d="M1873.23,680.49a113.33,113.33,0,0,1,116.1-113.29c59.86,1.43,108.76,50.06,110.51,109.91a113.33,113.33,0,0,1-64.59,105.73c-19,9.06-20.59,35.65-2.8,46.89l.46.28c-31.08.15-46.44-13.72-54-26.64a26.58,26.58,0,0,0-17.21-12.3A113.36,113.36,0,0,1,1873.23,680.49Z"/><g id="_Groupe_5" data-name="&lt;Groupe&gt;"><g id="_Groupe_6" data-name="&lt;Groupe&gt;"><g id="_Groupe_7" data-name="&lt;Groupe&gt;"><path id="_Tracé_transparent_" data-name="&lt;Tracé transparent&gt;" class="cls-10" d="M2016.24,747.11h-77.57a9.54,9.54,0,0,1-9.53-9.53V633.42a9.55,9.55,0,0,1,9.53-9.53h77.57a9.54,9.54,0,0,1,9.53,9.53V737.58A9.53,9.53,0,0,1,2016.24,747.11Z"/></g></g><g id="_Groupe_8" data-name="&lt;Groupe&gt;"><rect id="_Tracé_10" data-name="&lt;Tracé&gt;" class="cls-5" x="1937.73" y="634.17" width="79.46" height="102.66" rx="5.88" ry="5.88"/></g><rect id="_Rectangle_" data-name="&lt;Rectangle&gt;" class="cls-19" x="1958.88" y="657.8" width="41.73" height="6.51"/><rect id="_Rectangle_2" data-name="&lt;Rectangle&gt;" class="cls-19" x="1958.88" y="669.98" width="41.73" height="6.51"/><path id="_Tracé_11" data-name="&lt;Tracé&gt;" class="cls-24" d="M2025.77,730.08V710.45l-5.19-5.27a31.69,31.69,0,0,0,5.19-11.15V678.59a32,32,0,1,0-12.16,33.57l5.9,6-.4.4a3.45,3.45,0,0,0,0,4.87l4,3.94Z"/><g id="_Groupe_9" data-name="&lt;Groupe&gt;"><g id="_Groupe_10" data-name="&lt;Groupe&gt;"><rect id="_Rectangle_3" data-name="&lt;Rectangle&gt;" class="cls-19" x="1946.5" y="657.8" width="6.51" height="6.51"/><rect id="_Rectangle_4" data-name="&lt;Rectangle&gt;" class="cls-19" x="1946.5" y="669.98" width="6.51" height="6.51"/><rect id="_Rectangle_5" data-name="&lt;Rectangle&gt;" class="cls-19" x="1946.5" y="682.16" width="6.51" height="6.51"/><rect id="_Rectangle_6" data-name="&lt;Rectangle&gt;" class="cls-19" x="1946.5" y="694.34" width="6.51" height="6.51"/></g><rect id="_Rectangle_7" data-name="&lt;Rectangle&gt;" class="cls-19" x="1958.88" y="682.25" width="41.73" height="6.51"/><rect id="_Rectangle_8" data-name="&lt;Rectangle&gt;" class="cls-19" x="1958.88" y="695.25" width="41.73" height="6.51"/></g><g id="_Groupe_11" data-name="&lt;Groupe&gt;"><path id="_Tracé_12" data-name="&lt;Tracé&gt;" class="cls-19" d="M1957.24,633.79a6.1,6.1,0,0,0,6.1,6.1h28.23a6.1,6.1,0,0,0,6.1-6.1v-4.46h-40.43Z"/><path id="_Tracé_13" data-name="&lt;Tracé&gt;" class="cls-1" d="M1989.84,623.5v-5.1a6.56,6.56,0,0,0-6.56-6.56h-11.65a6.56,6.56,0,0,0-6.56,6.56v5.1h-7.83v5.83h40.43V623.5Z"/></g></g><g id="_Groupe_12" data-name="&lt;Groupe&gt;"><circle id="_Tracé_14" data-name="&lt;Tracé&gt;" class="cls-5" cx="1999.19" cy="680.42" r="24.8"/><path class="cls-19" d="M1999.19,711.71a31.3,31.3,0,1,1,22.14-53.43h0a31.3,31.3,0,0,1-22.14,53.43Zm0-54.09a22.8,22.8,0,1,0,16.13,6.67A22.73,22.73,0,0,0,1999.19,657.62Z"/><rect class="cls-19" x="2018.66" y="697.65" width="8.5" height="12.96" transform="translate(94.64 1636.74) rotate(-45)"/><rect id="_Rectangle_9" data-name="&lt;Rectangle&gt;" class="cls-11" x="2033.83" y="702.36" width="18" height="43.4" rx="0.38" ry="0.38" transform="translate(86.34 1656.57) rotate(-45)"/><rect id="_Rectangle_10" data-name="&lt;Rectangle&gt;" class="cls-1" x="2034.03" y="711.3" width="18" height="25.93" transform="translate(86.26 1656.77) rotate(-45)"/></g><path class="cls-5" d="M2509.63,680.49a113.33,113.33,0,0,1,116.1-113.29c59.86,1.43,108.76,50.06,110.51,109.91a113.31,113.31,0,0,1-64.58,105.73c-19,9.06-20.59,35.65-2.8,46.89l.46.28c-31.08.15-46.44-13.72-54-26.64a26.53,26.53,0,0,0-17.2-12.3A113.36,113.36,0,0,1,2509.63,680.49Z"/><path class="cls-19" d="M2611.85,659.8q-3-15.21-4.43-24.18t-1.9-13.3q-.42-4.32-.42-7.49,0-7.61,4.85-12.25t12.88-4.64q8,0,12.88,4.64t4.86,12.25q0,3.17-.42,7.49t-1.9,13.3q-1.48,9-4.44,24.18t-8,40.11h-5.91Q2614.81,675,2611.85,659.8Zm-1.26,59.75a17.32,17.32,0,0,1,29.56,12.24,15.66,15.66,0,0,1-5.07,11.93,18.16,18.16,0,0,1-24.49,0,15.66,15.66,0,0,1-5.07-11.93A16.68,16.68,0,0,1,2610.59,719.55Z"/><path class="cls-25" d="M3765.18,2099.92h-3649a16.39,16.39,0,1,1,0-32.77h3649a16.39,16.39,0,0,1,0,32.77Z"/><path class="cls-25" d="M2488.35,2185.73H2271.76a16.38,16.38,0,0,1,0-32.76h216.59a16.38,16.38,0,0,1,0,32.76Z"/><path class="cls-25" d="M2090.3,2185.73H1967.38a16.38,16.38,0,1,1,0-32.76H2090.3a16.38,16.38,0,0,1,0,32.76Z"/><path class="cls-25" d="M3027.26,2185.73H2677.4a16.38,16.38,0,0,1,0-32.76h349.86a16.38,16.38,0,0,1,0,32.76Z"/><path class="cls-25" d="M1084.13,2318.4H867.55a16.38,16.38,0,1,1,0-32.76h216.58a16.38,16.38,0,0,1,0,32.76Z"/><path class="cls-25" d="M1300.71,2324.26H1177.78a16.39,16.39,0,0,1,0-32.77h122.93a16.39,16.39,0,0,1,0,32.77Z"/><path class="cls-25" d="M1347.53,2177.92H1289a16.38,16.38,0,1,1,0-32.76h58.53a16.38,16.38,0,1,1,0,32.76Z"/><path class="cls-25" d="M1212.43,2177.92H711.49a16.38,16.38,0,1,1,0-32.76h500.94a16.38,16.38,0,0,1,0,32.76Z"/><path class="cls-25" d="M1938.83,2248.93H1437.9a16.39,16.39,0,1,1,0-32.77h500.93a16.39,16.39,0,1,1,0,32.77Z"/><path class="cls-25" d="M1902.14,2362.08h-58.53a16.38,16.38,0,1,1,0-32.76h58.53a16.38,16.38,0,1,1,0,32.76Z"/><path class="cls-25" d="M2612.16,2334.77h-58.53a16.39,16.39,0,0,1,0-32.77h58.53a16.39,16.39,0,1,1,0,32.77Z"/></g></g></svg>