<svg id="Calque_1" data-name="Calque 1" xmlns="http://www.w3.org/2000/svg" viewBox="0 0 69 81"><defs><style>.cls-1{fill:#b3d8e7;}.cls-2{fill:#141f38;}.cls-3{fill:#e1f3f9;}.cls-4{fill:#ffac37;}.cls-5{fill:#fff;}</style></defs><title>Plan de travail 1</title><polygon class="cls-1" points="17.07 74.31 1.38 68.34 4.86 26.58 18.81 32.55 17.07 74.31"/><path class="cls-2" d="M17.07,75.3a.87.87,0,0,1-.28,0l-15.69-6a1,1,0,0,1-.6-1L4,26.49a.91.91,0,0,1,1-.89.79.79,0,0,1,.22.06l13.94,6a1,1,0,0,1,.57,1L17.94,74.35A.94.94,0,0,1,17.07,75.3ZM2.31,67.65,16.25,73l1.66-39.72L5.62,28Z"/><polygon class="cls-3" points="34.5 68.34 17.07 74.31 18.81 32.55 34.5 26.58 34.5 68.34"/><path class="cls-2" d="M17.07,75.3a.94.94,0,0,1-.88-1v0L17.94,32.5a1,1,0,0,1,.59-.9l15.69-6a.86.86,0,0,1,1.11.63,1.06,1.06,0,0,1,0,.31V68.34a1,1,0,0,1-.62,1l-17.43,6A.77.77,0,0,1,17.07,75.3Zm2.58-42L18,73,33.63,67.6V28ZM34.5,68.34Z"/><polygon class="cls-1" points="51.93 74.31 34.5 68.34 34.5 26.58 50.19 32.55 51.93 74.31"/><path class="cls-2" d="M51.93,75.3a.73.73,0,0,1-.25,0l-17.43-6a1,1,0,0,1-.62-1V26.58a.93.93,0,0,1,.87-1,.69.69,0,0,1,.28.05l15.69,6a1,1,0,0,1,.59.9L52.8,74.26a.94.94,0,0,1-.82,1ZM35.37,67.6,51,73,49.35,33.27,35.37,28Z"/><polygon class="cls-3" points="67.63 68.34 51.93 74.31 50.19 32.55 64.14 26.58 67.63 68.34"/><path class="cls-2" d="M51.93,75.3a.94.94,0,0,1-.87-1L49.32,32.59a1,1,0,0,1,.56-1l13.95-6a.85.85,0,0,1,1.12.58,1.09,1.09,0,0,1,0,.26l3.5,41.76a1,1,0,0,1-.6,1l-15.69,6A.87.87,0,0,1,51.93,75.3Zm-.84-42.07L52.75,73l13.94-5.31L63.38,28Z"/><path class="cls-4" d="M47.92,22c0,8.45-13.42,28.43-13.42,28.43S21.08,30.46,21.08,22,27.22,6.76,34.63,6.85,47.85,13.67,47.92,22Z"/><path class="cls-2" d="M34.5,52.08l-.69-1C33.25,50.22,20.2,30.7,20.2,22c0-9,6.4-16.31,14.3-16.31S48.8,13,48.8,22c0,8.69-13,28.21-13.61,29Zm0-44.38C27.57,7.71,22,14.11,22,22c0,7,9.82,22.58,12.55,26.78C37.22,44.59,47.05,29,47.05,22c0-7.9-5.62-14.31-12.55-14.32Z"/><ellipse class="cls-5" cx="34.5" cy="22.6" rx="5.23" ry="5.97"/><path class="cls-2" d="M34.5,29.56c-3.37,0-6.1-3.11-6.1-7s2.73-7,6.1-7,6.1,3.12,6.1,7S37.87,29.56,34.5,29.56Zm0-11.93c-2.41,0-4.36,2.22-4.36,5s2,5,4.36,5,4.36-2.22,4.36-5S36.91,17.63,34.5,17.63Z"/></svg>