<?xml version="1.0" encoding="utf-8"?>
<!-- Generator: Adobe Illustrator 22.1.0, SVG Export Plug-In . SVG Version: 6.00 Build 0)  -->
<svg version="1.2" baseProfile="tiny" id="Calque_1"
	 xmlns="http://www.w3.org/2000/svg" xmlns:xlink="http://www.w3.org/1999/xlink" x="0px" y="0px" viewBox="0 0 69 81"
	 xml:space="preserve">
<title>Group 34</title>
<desc>Created with Sketch.</desc>
<g id="ICONS">
	<g id="Group-34">
		<polygon id="Fill-71" fill="#B3D8E7" points="0.3,59.6 63.4,59.6 63.4,15.3 0.3,15.3 		"/>
		<path id="Fill-73" fill="#666666" d="M60.5,19.7H3.1c-1.6,0-2.8-1.3-2.8-2.8v-5.2c0-1.6,1.3-2.8,2.8-2.8h57.4
			c1.6,0,2.8,1.3,2.8,2.8v5.2C63.4,18.4,62.1,19.7,60.5,19.7"/>
		<polygon id="Fill-74" fill="#FFFFFF" points="7.1,32.5 13,32.5 13,26.2 7.1,26.2 		"/>
		<polygon id="Fill-75" fill="#FFFFFF" points="21.6,32.5 27.5,32.5 27.5,26.2 21.6,26.2 		"/>
		<polygon id="Fill-76" fill="#FFFFFF" points="36.2,32.5 42,32.5 42,26.2 36.2,26.2 		"/>
		<polygon id="Fill-77" fill="#FFFFFF" points="50.7,32.5 56.5,32.5 56.5,26.2 50.7,26.2 		"/>
		<polygon id="Fill-78" fill="#FFFFFF" points="7.1,46 13,46 13,39.7 7.1,39.7 		"/>
		<polygon id="Fill-79" fill="#FFFFFF" points="21.6,46 27.5,46 27.5,39.7 21.6,39.7 		"/>
		<polygon id="Fill-80" fill="#FFFFFF" points="36.2,46 42,46 42,39.7 36.2,39.7 		"/>
		<polygon id="Fill-81" fill="#FFFFFF" points="50.7,46 56.5,46 56.5,39.7 50.7,39.7 		"/>
		<polygon id="Fill-82" fill="#FFAC37" points="46.9,12.2 54,12.2 54,0.7 46.9,0.7 		"/>
		<polygon id="Fill-83" fill="#FFAC37" points="9.7,12.2 16.7,12.2 16.7,0.7 9.7,0.7 		"/>
		<path id="Fill-84" fill="#FFAC37" d="M68.8,61.7c0,10.3-8.3,18.6-18.6,18.6c-10.3,0-18.6-8.3-18.6-18.6c0-10.3,8.3-18.6,18.6-18.6
			C60.5,43.1,68.8,51.4,68.8,61.7"/>
		<g id="Group-87" transform="translate(50.000000, 47.125000)">
			<path id="Fill-85" fill="#FFFFFF" d="M0.2,0v3"/>
			<path id="Stroke-86" fill="none" stroke="#FFFFFF" stroke-width="1.5" d="M0.2,0v3"/>
		</g>
		<g id="Group-90" transform="translate(50.000000, 73.125000)">
			<path id="Fill-88" fill="#FFFFFF" d="M0.2,0.1v3"/>
			<path id="Stroke-89" fill="none" stroke="#FFFFFF" stroke-width="1.5" d="M0.2,0.1v3"/>
		</g>
		<g id="Group-93" transform="translate(61.000000, 61.125000)">
			<path id="Fill-91" fill="#FFFFFF" d="M3.7,0.5h-3"/>
			<path id="Stroke-92" fill="none" stroke="#FFFFFF" stroke-width="1.5" d="M3.7,0.5h-3"/>
		</g>
		<g id="Group-96" transform="translate(35.000000, 61.125000)">
			<path id="Fill-94" fill="#FFFFFF" d="M3.7,0.5h-3"/>
			<path id="Stroke-95" fill="none" stroke="#FFFFFF" stroke-width="1.5" d="M3.7,0.5h-3"/>
		</g>
		<g id="Group-99" transform="translate(58.000000, 51.125000)">
			<path id="Fill-97" fill="#FFFFFF" d="M2.5,0.3L0.3,2.4"/>
			<path id="Stroke-98" fill="none" stroke="#FFFFFF" stroke-width="1.5" d="M2.5,0.3L0.3,2.4"/>
		</g>
		<g id="Group-102" transform="translate(39.000000, 69.125000)">
			<path id="Fill-100" fill="#FFFFFF" d="M3,0.7L0.9,2.8"/>
			<path id="Stroke-101" fill="none" stroke="#FFFFFF" stroke-width="1.5" d="M3,0.7L0.9,2.8"/>
		</g>
		<g id="Group-105" transform="translate(58.000000, 69.125000)">
			<path id="Fill-103" fill="#FFFFFF" d="M2.5,2.8L0.3,0.7"/>
			<path id="Stroke-104" fill="none" stroke="#FFFFFF" stroke-width="1.5" d="M2.5,2.8L0.3,0.7"/>
		</g>
		<g id="Group-108" transform="translate(39.000000, 51.125000)">
			<path id="Fill-106" fill="#FFFFFF" d="M3,2.4L0.9,0.3"/>
			<path id="Stroke-107" fill="none" stroke="#FFFFFF" stroke-width="1.5" d="M3,2.4L0.9,0.3"/>
		</g>
		<polyline id="Stroke-109" fill="none" stroke="#FFFFFF" stroke-width="1.5" points="50.2,52.5 50.2,61.7 59.2,61.7 		"/>
	</g>
</g>
</svg>
