<svg id="Ñëîé_1" data-name="Ñëîé 1" xmlns="http://www.w3.org/2000/svg" viewBox="0 0 4000 4000"><defs><style>.cls-1,.cls-6{fill:#dfebf7;}.cls-1,.cls-10,.cls-11,.cls-13,.cls-14,.cls-2,.cls-7,.cls-8,.cls-9{fill-rule:evenodd;}.cls-2{fill:#9ad7f4;}.cls-13,.cls-3{fill:#fff;}.cls-4,.cls-7{fill:#2089b7;}.cls-5{fill:#72baea;}.cls-8{fill:#fb886d;}.cls-15,.cls-9{fill:#121b3c;}.cls-10{fill:#ffe354;}.cls-11{fill:#41375a;}.cls-12{fill:#42385b;}.cls-14{fill:#a8a8a6;}.cls-16{fill:#059ddd;}</style></defs><title>Plan de travail 26</title><path class="cls-1" d="M2285,1126.86c242.78-78.77,512.55-80.73,771.4,12.11,621.23,222.83,944.2,907.07,721.38,1528.3s-907.06,944.2-1528.3,721.38a1196.52,1196.52,0,0,1-276.89-142.16c-273.54,249.88-672.78,343.86-1045.78,210.07C390.06,3264,111,2672.78,303.52,2136c99-276,303.46-483.85,551.71-594.48A758,758,0,0,1,776.9,1042C853.41,628.6,1250.58,355.48,1664,432,2012.56,496.49,2261.38,788.93,2285,1126.86Z"/><path class="cls-2" d="M590.4,3517.46s-536.91-772-422.8-1106.72,603.1,559.15,603.1,559.15-74.37-582,127.23-589.58S1080.51,3297,1080.51,3297s235.83-289.08,407-254.85-228.23,475.3-228.23,475.3Z"/><path class="cls-2" d="M3476.88,3517.46s401.49-753,182.58-1125.74S3216,3111.82,3216,3111.82l-35.82,424.83Z"/><path class="cls-3" d="M983.75,2984.41h-.43a480.37,480.37,0,0,1-53.36-3.87,25.36,25.36,0,0,1,6.48-50.3,432.06,432.06,0,0,0,47.73,3.47,25.36,25.36,0,0,1-.42,50.71Zm-282-99.84a25.25,25.25,0,0,1-15.44-5.25,504.13,504.13,0,0,1-40.54-34.72,25.36,25.36,0,1,1,35-36.7,451.54,451.54,0,0,0,36.45,31.2,25.36,25.36,0,0,1-15.47,45.47ZM540.32,2634.4a25.37,25.37,0,0,1-24.86-20.47,390.41,390.41,0,0,1-6.75-53.77,25.35,25.35,0,1,1,50.63-2.8,342.57,342.57,0,0,0,5.88,46.78,25.36,25.36,0,0,1-20,29.78A25.87,25.87,0,0,1,540.32,2634.4Zm61.16-290.21a25.37,25.37,0,0,1-21.37-39c9.26-14.54,19.54-29.11,30.54-43.31A25.36,25.36,0,1,1,650.73,2293c-10.05,13-19.41,26.25-27.84,39.47A25.32,25.32,0,0,1,601.48,2344.19Zm216.73-210.28a25.36,25.36,0,0,1-14.11-46.45c14-9.37,28.73-18.72,43.72-27.8A25.36,25.36,0,1,1,874.1,2103c-14.35,8.69-28.42,17.64-41.83,26.6A25.32,25.32,0,0,1,818.21,2133.91Zm270.09-138.69a25.36,25.36,0,0,1-9.43-48.91c15.67-6.26,31.78-12.47,47.89-18.46a25.36,25.36,0,0,1,17.66,47.55c-15.72,5.84-31.44,11.89-46.71,18A25.22,25.22,0,0,1,1088.3,1995.22Zm196.08-117.58a25.27,25.27,0,0,1-18-7.5c-12.42-12.52-24.42-25.26-35.69-37.85a25.36,25.36,0,0,1,37.81-33.81c10.69,12,22.09,24,33.89,35.94a25.37,25.37,0,0,1-18,43.22Zm-169.21-250.16a25.37,25.37,0,0,1-23.74-16.42,523,523,0,0,1-16.25-50.73,25.36,25.36,0,0,1,49-13,475.62,475.62,0,0,0,14.68,45.81,25.36,25.36,0,0,1-23.72,34.3Zm-3.82-297.14a25.37,25.37,0,0,1-23.57-34.68,407.66,407.66,0,0,1,23.16-48.79,25.36,25.36,0,0,1,44.28,24.74,355.26,355.26,0,0,0-20.27,42.68A25.37,25.37,0,0,1,1111.35,1330.34ZM1951.83,1117a25.28,25.28,0,0,1-10.06-2.09c-15.19-6.58-30.61-12.79-45.83-18.48a25.36,25.36,0,0,1,17.75-47.51c16,6,32.26,12.53,48.23,19.45a25.36,25.36,0,0,1-10.09,48.63Zm-637.58-4.79a25.36,25.36,0,0,1-12-47.73c15.4-8.22,31.52-15.88,47.93-22.76a25.36,25.36,0,0,1,19.61,46.78c-15,6.27-29.64,13.24-43.65,20.72A25.23,25.23,0,0,1,1314.25,1112.17ZM1658,1043.91c-.54,0-1.08,0-1.62,0-15.38-1-30.86-1.47-46-1.47h-3.09a25.36,25.36,0,0,1-.12-50.71h3.21c16.21,0,32.76.53,49.2,1.57a25.36,25.36,0,0,1-1.58,50.66Z"/><rect class="cls-4" x="1718.07" y="520.62" width="1722.49" height="2941.44" rx="112.89" ry="112.89"/><rect class="cls-5" x="1718.07" y="520.62" width="1619.56" height="2941.44" rx="106.15" ry="106.15"/><circle class="cls-4" cx="2527.85" cy="3308.7" r="101.04" transform="translate(-342.75 292.55) rotate(-6.2)"/><path class="cls-6" d="M1899.45,717.61H3156.23a94.8,94.8,0,0,1,94.8,94.8V3068.79a94.8,94.8,0,0,1-94.8,94.8H1899.46a94.8,94.8,0,0,1-94.8-94.8V812.41a94.79,94.79,0,0,1,94.79-94.79Z"/><path class="cls-7" d="M1983.84,668.16h947.8A45.46,45.46,0,0,0,2977,622.84h0a45.46,45.46,0,0,0-45.33-45.33h-947.8a45.46,45.46,0,0,0-45.33,45.33h0A45.46,45.46,0,0,0,1983.84,668.16Z"/><path class="cls-7" d="M3068,668.16h-3.31a45.46,45.46,0,0,1-45.33-45.32h0a45.46,45.46,0,0,1,45.33-45.33H3068a45.46,45.46,0,0,1,45.33,45.33h0A45.46,45.46,0,0,1,3068,668.16Z"/><path class="cls-8" d="M2252.13,1845.48s-18.89,251.65-23.4,267.05-62.6,10-95.41,28.09-54.48,71.51-51.91,83.56,58,1.84,58,1.84,40.15-46.13,58.49-44.44-48.21,21.64-32.69,37.48,111.93,12.36,136.94,0,22-55.35,22-55.35L2385.32,1875Z"/><polygon class="cls-9" points="2380.83 1896.14 2385.32 1874.94 2358.8 1869.08 2250.09 1873.72 2380.83 1896.14"/><path class="cls-10" d="M2421.32,1884.34s31.09-286.07-10.25-351-78.32-84-115-23.87-67,363-67,363Z"/><path class="cls-9" d="M2421.32,1884.34s2.58-23.83,5.27-59.26C2390.31,1702.46,2325.28,1507,2325.28,1507c-4.59,13.63-4.42,260-7,371Z"/><polygon class="cls-9" points="2338.75 3153.87 2335.03 3163.58 2151.17 3163.58 2168.43 3105.95 2338.75 3153.87"/><path class="cls-10" d="M2811,2003.8s33,92.52,29.31,300.25C2837,2488.92,2828,3043.67,2826,3163.58h-284l52.69-856-31.15-7-168.38,863h-132L2129.86,3133l243.22-1048Z"/><path class="cls-9" d="M2811,2003.8s9.82,27.55,18.15,86.34l-463.89,28.76,7.87-33.93Z"/><path class="cls-10" d="M2475.23,1386.72s-156.5,77-161.34,108.55c-5.7,37.14,10.26,223,19.26,265.65,10.76,51,45,73.31,77.1,74.56l-46,255.8,468.89-55.87s-128.52-652.83-182.57-659S2475.23,1386.72,2475.23,1386.72Z"/><path class="cls-9" d="M2764,1716.31c-12.53-53.13-25.81-106.61-39-154.93l-105.48-65.15Z"/><path class="cls-8" d="M2421.47,1441.55c3.77,9.89,15.24,36.71,43.1,20.21s66.19-50.53,62.42-60.42l-60.14-191.7-101.95,41.53Z"/><polygon class="cls-9" points="2396.67 1358.09 2420.21 1437.29 2479.17 1297.22 2396.67 1358.09"/><path class="cls-11" d="M2558.74,2314.56c-2.5,4.73-31,39.42-34.1,41.27-6.89,10.91-18.58,23.67-27.15,33.82l-27.62,33.24c-28.16,36.22-66.38,79.89-96.34,116.68-8.7,10.68-62.82,78.67-69.2,82.94-1.09-4.08-1.59-3.21-4.33-6.63l-75-90.57c-16.34-20.07-32.15-40.76-49.41-60.13-3.53-4-6.66-7.93-9.9-12-45.62-57.61-94.67-112.48-140.29-170.09-6.06-7.65-12.34-17.88-21-22.83-11.85-6.77-26.93-2-33.17,6.08-15.65,20.37,4.25,39,20,57,3.72,4.27,6.32,7.75,9.84,12.07,3.3,4,6.8,7.78,10.08,11.83l100,121.51c26.23,32.56,53.85,63.93,79.8,96.7,13.16,16.63,27,32.08,40.17,48.69,6.6,8.33,13.19,15.69,19.79,24,6.75,8.52,13.53,16.45,20.53,24.5-3.85,7.28-59.09,73.3-67.26,82.46-3.54,4-6.6,7.65-9.95,12l-47.85,58c-17.48,19.62-50.11,60.55-68.19,82.74-6.65,8.16-12.57,15.16-19.38,23.22l-97.38,118.07c-34.89,41.29-71.17,89.08-106,128.92-3.47,4-7,8-10,11.89-12.54,16.1-26.13,31.37-39.11,47.31l-135.25,164.18a25.29,25.29,0,0,0-5.78,14.45v3.46a26.56,26.56,0,0,0,17.55,23.29c19.18,6.87,28.8-9.57,39.39-21.68,6.87-7.86,12.59-15.18,19.37-23.23l222.81-270.16c3.65-4.08,6.21-8,9.78-12.13s7-8,10-11.89c3.23-4.15,6.54-7.86,9.9-12l125.47-152.05c3.57-4.09,6.14-8.05,9.78-12.13,13.54-15.18,25.88-31.87,39-47.41l116.75-141.3c3.79-4.34,17.74-19.11,19.21-24.62,5.67,3.81,9.71,11,14.29,16.14l82.57,100c4.74,6,8.72,11.17,13.63,16.8s9.23,10.82,13.82,16.61c26.87,33.94,55.19,66.49,82.44,100.14,4.82,5.95,9.44,10.46,13.56,17,3.14,1.86,31.62,36.55,34.1,41.28l95.45,115.1c8,10.19,15.79,18.75,23.66,28.68l6.41,7.78h67c-18-21.34-35.65-42.5-51.36-62.71l-23.65-28.69c-2.44-3.11-3.55-4-6.1-7.29l-17.57-21.38c-4-5-7.8-9.84-12-14.72l-47.75-58.25c-3.09-2.32-32.34-37.49-34-41.29-2-1.42-4.92-5.35-6.84-7.84L2449,2796.74c-4.73-5.84-9-10.62-13.75-16.68l-41.17-50.12c-14.08-15.8-27.47-34.05-41.34-50-3.3-3.79-11.84-12.53-13.12-17.31,7.21-10.76,61-73.13,74.78-90.76l20.85-25.41c32.84-42.06,76.43-90.51,109.56-132.66,2.67-3.39,4.26-5,6.62-8,1.76-2.28,5.21-7,7.36-8.53,1.66-3.77,30.94-39,34-41.29l59.83-72.94c15.12-18.91.64-40.81-17.38-42.79H2630c-5.6.63-11.3,3.29-16.37,8.63Z"/><path class="cls-9" d="M2592.8,2356c-3.07,2.3-32.35,37.52-34,41.29,2.91,2,4.42,4.78,6.92,7.61,2.66,3,4.59,5.45,7.24,8.59l20.24,24.8c30.23,37.53,67.62,80,96.3,116.71l41.24,50.05c2.68,3.33,4.44,5.48,7.19,8.63L2779,2663.9c-4.06,2.71-28.14,33.21-33.92,40.34-19.31,23.85-44.27,52.17-62.24,75.29-21.71,27.93-51.79,62.43-75.3,91.46-2.29,2.83-4.75,5.8-7.2,8.62L2566.3,2921c-2.59,3-4.77,6.34-7.51,8.25,1.67,3.8,30.92,39,34,41.29,9.33-13.22,29.76-36.61,40.55-49.44l124-149.92c15.2-18.66,42.38-48.86,54.6-67.12,6.69,4.91,31.24,38.16,39.26,47.16,21,23.54,57.67,69.69,78.64,95.43l29.76,36c3.7,4.4,6.23,7.43,9.87,12,3.17,4,6.2,7.43,9.5,11.2,3.57,4.08,6.14,8,9.78,12.13,13.73,15.4,26,32.52,39.58,48.05l117.82,142.66c3.41,4.33,6.37,8,9.95,12s6.21,8.05,9.77,12.13l21.14,25.64a95.52,95.52,0,0,0,42.75-29.95l-8.67-10.74c-3.28-4-6.78-7.78-10.08-11.83l-147.38-178.83c-3.55-4.07-6.39-7.76-9.85-12.06L2985,2831.6c-3.47-4-6.94-7.95-10-11.89-25.45-32.66-53.65-63.51-79.1-96.18l-19.8-24c-6.59-7.39-23.81-31.39-30.12-35.61L3031.27,2439c3.8-4.35,6.46-8.38,10.37-12.76,19.79-22.21,51.44-62.32,72-87.5l41.3-50c17.9-21.45-5-54.52-31.63-40.15-8.71,4.7-16,16.21-22.18,24.07l-61.72,74.61c-33.64,42.47-69.37,83.23-103.48,125.35-6.78,8.38-13.15,16.65-20.25,24.79l-62.19,75.35c-6.77,8.55-13.34,16.12-20.47,24.57-5.74,6.79-14.37,20.28-21.07,25.18-4.08-6.09-8.16-10.34-12.86-16.35-35.4-45.34-74.73-88-110.09-133.36Z"/><path class="cls-9" d="M2558.74,3012c-2.48-4.73-31-39.42-34.1-41.28-7.16,10.05-14.85,18.47-22.74,28.27-31.62,39.25-66.94,79.62-97.92,118.75l-64.35,78.06c-3.68,4.73-7.71,8.9-11.66,13.9-30.84,39-68.73,81.42-98.42,119.46l-52.2,63.44c-20.46,25.12-2.92,43.71,12.85,46.4,21.35,3.65,35.88-25.71,54.8-46.92,24.25-27.2,56.63-70.73,80.92-98l127.59-154.81c21-26.85,49.19-58.06,69.92-84.66l34.75-42C2558.3,3012.55,2558.55,3012.23,2558.74,3012Z"/><path class="cls-9" d="M2524.64,2355.83c3.13-1.85,31.6-36.54,34.1-41.27l-35.32-42.6c-9.23-11.88-18.76-24.11-36.23-19.21-16.57,4.63-23.42,23.8-15.34,37.91l26.17,32.26c3,3.8,5.5,6.89,8.74,10.74C2513.26,2341.38,2518.89,2347.76,2524.64,2355.83Z"/><rect class="cls-12" x="1603.26" y="3365.69" width="728.66" height="94.93" rx="47.46" ry="47.46"/><path class="cls-13" d="M1669,2219.06H3251V2348H1669a64.63,64.63,0,0,1-64.45-64.44h0A64.64,64.64,0,0,1,1669,2219.06Z"/><polygon class="cls-7" points="2111.23 2774.31 2102.83 2212.69 3126.6 2212.69 3162.52 2440.13 2322.32 2373.6 2265.82 2749.3 2111.23 2774.31"/><path class="cls-7" d="M2447.63,2212.69h505.42s33.84-173.51-26.64-208.07-254.15-33.84-301.67-6.48-177.11,214.55-177.11,214.55Zm255.92-201.59h136.17a54.63,54.63,0,0,1,54.48,54.49h0a6,6,0,0,1-6,6H2675.53a16.27,16.27,0,0,1-16.23-16.23h0A44.38,44.38,0,0,1,2703.55,2011.1Z"/><path class="cls-13" d="M2447.63,2212.69h505.42s11.72-60.11,9-116.62c-21.38,10.75-84.84,37.12-172.35,24-108.63-16.33-121.82-18.84-162.64-11.93-33.28,5.63-14.78-78.09,31-121.1-14.13,3-25.64,6.71-33.32,11.13C2577.22,2025.5,2447.63,2212.69,2447.63,2212.69Z"/><path class="cls-14" d="M2447.63,2212.69h505.42s1.37-7,3.07-18.56H2460.69C2452.5,2205.65,2447.63,2212.69,2447.63,2212.69Z"/><path class="cls-8" d="M3021.45,1722.31c-37.81,63.55-136.71,195.91-136.71,195.91-.2,30.88-.7,86.2-15.19,113.78-7.23,13.76-19.31,24.64-27.32,21.92s-3.54-12.67-4.65-15.19c-8.63,6.28-24.06,29.83-37.16,23.94-10.89-4.9-.74-31.87-.74-31.87s-15.3,26.55-27.13,24.78-5.34-25.38-3.31-32.95c-4.57,8.15-18.23,23.51-29.82,18.59-15.12-6.41,16.72-94.39,26.47-107.82C2777.23,1917.77,2814,1870,2814,1870l73.61-161.38L2851.09,1676l88.11-103.28C2986,1609.75,3059.25,1658.76,3021.45,1722.31Z"/><path class="cls-9" d="M2884.29,1705.67l-33.15-29.6,88.06-103.33c7,5.55,14.61,11.36,22.35,17.46Z"/><path class="cls-10" d="M2852.21,1722.14s-235.95-164.92-256.93-239,19.11-114.35,67.31-105.47,309,191,309,191Z"/><path class="cls-15" d="M2588.46,1821.63a5.11,5.11,0,0,1-1-.1c-1-.22-104.17-21.14-133.54-10.35a5.07,5.07,0,0,1-3.49-9.52c32.05-11.8,134.71,9,139.07,9.93a5.07,5.07,0,0,1-1,10Z"/><path class="cls-15" d="M2209.87,2181.59a5.07,5.07,0,0,1-1.75-9.83c.12-.05,13-4.88,22.53-14.63,12.68-13,36.38-13.8,36.61-13.8a5.07,5.07,0,0,1,0,10.14c-3.15,0-20.85,2-29.37,10.74-11.17,11.45-25.67,16.85-26.28,17.07A5.13,5.13,0,0,1,2209.87,2181.59Z"/><path class="cls-15" d="M2115,2208.67a5.07,5.07,0,0,1-4.72-6.93c8.65-21.95,37.14-44.59,38.35-45.55a5.07,5.07,0,1,1,6.28,8c-.27.22-27.55,21.92-35.19,41.3A5.08,5.08,0,0,1,2115,2208.67Z"/><path class="cls-15" d="M2840.84,2034a5.07,5.07,0,0,1-4.14-8c10.08-14.24,15.22-51.49,15.27-51.86a5.07,5.07,0,1,1,10.05,1.36c-.22,1.63-5.53,40.09-17,56.36A5,5,0,0,1,2840.84,2034Z"/><path class="cls-15" d="M2806.54,2027.46a5.06,5.06,0,0,1-4.56-7.28c8.93-18.44,18.24-57.53,18.33-57.92a5.08,5.08,0,0,1,9.88,2.34c-.4,1.65-9.67,40.55-19.08,60A5.07,5.07,0,0,1,2806.54,2027.46Z"/><path class="cls-15" d="M2772.7,2017.83a5.31,5.31,0,0,1-1.46-.21,5.06,5.06,0,0,1-3.4-6.31c8.2-27.44,20.28-59.31,20.4-59.63a5.07,5.07,0,0,1,9.48,3.61c-.12.31-12.07,31.84-20.17,58.92A5.06,5.06,0,0,1,2772.7,2017.83Z"/><path class="cls-15" d="M2444.88,1565.37a9.56,9.56,0,0,1-4.5-1.18c-16.45-8.67-34-82.17-39-104.5a5.07,5.07,0,0,1,9.9-2.2c9.89,44.21,25.56,93.35,33.53,97.6,10.23-6.15,56.8-79.4,96.61-147.87a5.08,5.08,0,0,1,8.77,5.11c-19.84,34.11-85.82,145.92-102,152.4A8.77,8.77,0,0,1,2444.88,1565.37Z"/><path class="cls-7" d="M2573.55,1636.39l19.37-6.26a6.55,6.55,0,0,1,8.23,4.2l9.46,29.25a6.54,6.54,0,0,1-4.2,8.22l-19.37,6.27a6.56,6.56,0,0,1-8.23-4.21l-9.46-29.24A6.55,6.55,0,0,1,2573.55,1636.39Z"/><path class="cls-13" d="M2528.94,1673.84,2651,1634.35a13.1,13.1,0,0,1,16.45,8.41l17.68,54.64a13.12,13.12,0,0,1-8.41,16.46l-122.08,39.49a13.12,13.12,0,0,1-16.46-8.42l-17.67-54.63A13.11,13.11,0,0,1,2528.94,1673.84Z"/><path class="cls-7" d="M2606.17,1665.21l40.25-13a3.92,3.92,0,0,1,4.93,2.52l13,40.24a3.94,3.94,0,0,1-2.52,4.94l-40.25,13a3.92,3.92,0,0,1-4.93-2.52l-13-40.24A3.94,3.94,0,0,1,2606.17,1665.21Z"/><path class="cls-9" d="M2541.29,1170.12s99.75-68,137.87-41.27-57,40.85-57,40.85,63.73,19.45,70.17,63.91-83-28.1-83-28.1,65.45,123.76,33.8,122.26-53.77-62.35-53.77-62.35-1.06,48.11-18.36,41.51-37.06-68.42-37.06-68.42Z"/><path class="cls-9" d="M2267.77,1123.77l86.42-54.36s113.26-39.85,177.07,58.56-16.42,182-16.42,182l-175.05,9.76-14.2,25.62s25.95,98.18,2.76,106.67-100.49-207.2-103.95-232.34Z"/><path class="cls-8" d="M2356.62,1103.34A140.53,140.53,0,1,1,2249,1270.41,140.53,140.53,0,0,1,2356.62,1103.34Z"/><path class="cls-15" d="M2385.88,1230.23a5.14,5.14,0,0,1-2.5-.66L2365,1219.11a5.08,5.08,0,0,1,5-8.83l18.43,10.46a5.08,5.08,0,0,1-2.51,9.49Z"/><path class="cls-15" d="M2405.13,1222.62a5.14,5.14,0,0,1-2.5-.66l-18.42-10.46a5.08,5.08,0,0,1,5-8.83l18.42,10.46a5.08,5.08,0,0,1-2.51,9.49Z"/><path class="cls-15" d="M2281.79,1261.34a5,5,0,0,1-2.49-.66l-18.43-10.46a5.07,5.07,0,1,1,5-8.82l18.42,10.46a5.07,5.07,0,0,1-2.51,9.48Z"/><path class="cls-15" d="M2301.05,1253.74a5.14,5.14,0,0,1-2.5-.66l-18.42-10.46a5.08,5.08,0,0,1,5-8.83l18.42,10.46a5.08,5.08,0,0,1-2.51,9.49Z"/><path class="cls-13" d="M2372.55,1219.44l32.52-10.11c8.7-2.71,17.8,4.14,19.44,13.1h0a16.63,16.63,0,0,1-13.1,19.44l-33,6.43c-8.94,1.74-17.16-2.12-18.9-11.07C2357.61,1227.74,2364.87,1221.83,2372.55,1219.44Z"/><path class="cls-9" d="M2373.33,1219.19l28.07-8.72a20.75,20.75,0,0,1,5.73,32.23l-24.49,4.77a20.77,20.77,0,0,1-9.31-28.28Z"/><path class="cls-8" d="M2517.87,1174.6a38.94,38.94,0,1,1-29.82,46.29A39,39,0,0,1,2517.87,1174.6Z"/><path class="cls-15" d="M2348.18,1314.61a5.09,5.09,0,0,1-4.51-2.74c-.82-1.59-.66-2.93-.34-5.58a86,86,0,0,0-14-60.61,5.07,5.07,0,1,1,8.41-5.67c13.38,19.85,18.64,42.55,15.64,67.48-.08.65-.14,1.16-.18,1.52a5.06,5.06,0,0,1-2.71,5A5.14,5.14,0,0,1,2348.18,1314.61Z"/><path class="cls-9" d="M2533.89,1238.51c-.34-1.68-4-25.75-4-25.75l-29.07-5s8.33-27.42,33.78-20.27S2533.89,1238.51,2533.89,1238.51Z"/><path class="cls-9" d="M2520.61,1199.21s36.69,191,13.63,196.78-107.14-205.67-107.14-205.67-128.67,34-136-11.44c0,0-52.06,13-43.75,82.8,0,0-83.76-93.51,41.62-164.76S2491.66,1069.45,2520.61,1199.21Z"/><path class="cls-13" d="M2298.1,1242.44l-32.55,10c-8.72,2.68-12.37,13.46-8.66,21.79h0a16.62,16.62,0,0,0,21.78,8.66l30.91-13.33c8.37-3.61,13-11.43,9.37-19.8C2315.12,1240.86,2305.79,1240.08,2298.1,1242.44Z"/><path class="cls-9" d="M2297.32,1242.68l-28.1,8.63a20.74,20.74,0,0,0,13.45,29.84l22.91-9.87a20.75,20.75,0,0,0-8.26-28.6Z"/><path class="cls-13" d="M2344.59,1348.34l66.09-31.38s-1.44,26.54-15.22,37S2344.59,1348.34,2344.59,1348.34Z"/><circle class="cls-3" cx="1233.21" cy="1947.1" r="289.09"/><circle class="cls-3" cx="841.15" cy="2894.58" r="289.09"/><rect class="cls-4" x="1088.9" y="1734.05" width="288.61" height="426.09"/><rect class="cls-3" x="1088.9" y="2092.64" width="288.61" height="47.57"/><rect class="cls-3" x="1088.9" y="1742.69" width="288.61" height="65.88"/><circle class="cls-3" cx="1233.21" cy="1940.27" r="110.72" transform="translate(-981.17 2558.31) rotate(-73.16)"/><path class="cls-7" d="M1233.21,2029a88.69,88.69,0,1,0-88.68-88.69A88.86,88.86,0,0,0,1233.21,2029Z"/><path class="cls-13" d="M1233.21,1866.81a73.47,73.47,0,1,1-73.47,73.46A73.46,73.46,0,0,1,1233.21,1866.81Z"/><path class="cls-7" d="M1204.73,1790.72a19.42,19.42,0,1,0-19.41-19.41A19.46,19.46,0,0,0,1204.73,1790.72Z"/><path class="cls-7" d="M1314.57,1790.72a19.42,19.42,0,1,0-19.42-19.41A19.45,19.45,0,0,0,1314.57,1790.72Z"/><rect class="cls-4" x="1118.17" y="1751.79" width="53.52" height="39.04" rx="3.97" ry="3.97"/><path class="cls-7" d="M755.29,2678v419.52s144,28.09,172.71-22.11,28.09-211,5.38-250.4-178.09-147-178.09-147Zm167.33,212.43v113a45.35,45.35,0,0,1-45.22,45.22h0a5,5,0,0,1-5-5V2867.2a13.51,13.51,0,0,1,13.47-13.47h0A36.84,36.84,0,0,1,922.62,2890.46Z"/><path class="cls-7" d="M755.29,2678v419.52s49.9,9.73,96.81,7.5c-8.93-17.75-30.82-70.42-19.9-143.06,13.55-90.17,15.64-101.12,9.9-135-4.67-27.62,64.82-12.27,100.52,25.71-2.48-11.73-5.57-21.28-9.24-27.66C910.67,2785.6,755.29,2678,755.29,2678Z"/><path class="cls-13" d="M764.79,2699.7v377s44.84,8.74,87,6.73c-8-15.94-27.69-63.27-17.88-128.54,12.18-81,14.05-90.87,8.9-121.31-4.2-24.83,58.24-11,90.32,23.1-2.23-10.54-5-19.13-8.3-24.86C904.41,2796.36,764.79,2699.7,764.79,2699.7Z"/><path class="cls-7" d="M755.29,2678v419.52s5.85,1.14,15.41,2.55V2688.87C761.14,2682.08,755.29,2678,755.29,2678Z"/><rect class="cls-4" x="785.72" y="2942.85" width="13.79" height="155.96" rx="6.89" ry="6.89"/><path class="cls-16" d="M3721.07,3580.86H350.94a63.4,63.4,0,1,1,0-126.79H3721.07a63.4,63.4,0,1,1,0,126.79Z"/><circle class="cls-3" cx="2057.57" cy="1936.07" r="72.54"/><circle class="cls-3" cx="1832.01" cy="2621.98" r="91.43"/><circle class="cls-3" cx="1965.94" cy="1766.55" r="91.43"/><path class="cls-13" d="M3164.13,2093.25a67.61,67.61,0,0,1-69-66.14,67.59,67.59,0,0,1-66.14,69,67.58,67.58,0,0,1,69,66.14A67.59,67.59,0,0,1,3164.13,2093.25Z"/><path class="cls-13" d="M1495.29,2385.12a67.58,67.58,0,0,1-69-66.13,67.61,67.61,0,0,1-66.14,69,67.58,67.58,0,0,1,69,66.13A67.61,67.61,0,0,1,1495.29,2385.12Z"/></svg>