<svg id="Calque_1" data-name="Calque 1" xmlns="http://www.w3.org/2000/svg" viewBox="0 0 650 650"><defs><style>.cls-1{fill:#c6deda;}.cls-1,.cls-11,.cls-12,.cls-13,.cls-14,.cls-15,.cls-16,.cls-17,.cls-18,.cls-19,.cls-2,.cls-20,.cls-22,.cls-23,.cls-24,.cls-25,.cls-26,.cls-27,.cls-28,.cls-29,.cls-3,.cls-30,.cls-31,.cls-32,.cls-33,.cls-34,.cls-35,.cls-36,.cls-37,.cls-38,.cls-39,.cls-4,.cls-40,.cls-5,.cls-6,.cls-7,.cls-8,.cls-9{fill-rule:evenodd;}.cls-2{fill:#e2f1ee;}.cls-3{fill:#92b9b1;}.cls-4{fill:#cae7e2;}.cls-5{fill:#739790;}.cls-6{fill:#b3977f;}.cls-7{fill:#cca88b;}.cls-8{fill:#fff;}.cls-10,.cls-9{fill:#4f3f55;}.cls-11,.cls-21{fill:#331c38;}.cls-12{fill:#f8cfbe;}.cls-13{fill:#f4ad85;}.cls-14{fill:#ef8871;}.cls-15{fill:#d84f50;}.cls-16{fill:#e67170;}.cls-17{fill:#f4b4a3;}.cls-18{fill:#3f2c44;}.cls-19{fill:#f9c66a;}.cls-20{fill:#8e8293;}.cls-22{fill:#e8685b;}.cls-23{fill:#f09172;}.cls-24{fill:#e95a5e;}.cls-25{fill:#eea35d;}.cls-26{fill:#f8eded;}.cls-27{fill:#fc5f08;}.cls-28{fill:#ce4500;}.cls-29{fill:#e37b64;}.cls-30{fill:#f9c575;}.cls-31{fill:#f4a962;}.cls-32{fill:#f6b87c;}.cls-33{fill:#fff6e7;}.cls-34{fill:#fffaf1;}.cls-35{fill:#fdefd7;}.cls-36{fill:#422e47;}.cls-37{fill:#da3e3e;}.cls-38{fill:#fdf7f4;}.cls-39{fill:#e0d5d1;}.cls-40{fill:#fbe5dc;}</style></defs><title>Plan de travail 1</title><path class="cls-1" d="M544.57,628.71C601.46,628.71,648,575.31,648,510h0c0-65.27-46.54-118.67-103.43-118.67h0c-24.05,0-43.73-22.57-43.73-50.17h0c0-27.6,19.68-50.18,43.73-50.18h5.21c25,0,45.46-23.47,45.46-52.17h0c0-28.69-20.45-52.16-45.46-52.16h-16c-9.73,0-17.7-9.14-17.7-20.31h0c0-11.17,8-20.31,17.7-20.31h11.73c6.72,0,12.22-6.31,12.22-14h0c0-7.71-5.5-14-12.22-14H466.68c-10.56,0-19.2-9.92-19.2-22h0c0-12.11,8.64-22,19.2-22h23.58c6.72,0,12.22-6.31,12.22-14h0c0-7.71-5.5-14-12.22-14H229.05c-8.77,0-15.94,8.24-15.94,18.29h0c0,10.06,7.17,18.29,15.94,18.29h36.83c13.78,0,25.05,12.94,25.05,28.74h0c0,15.81-11.27,28.74-25.05,28.74H75.52c-8.77,0-15.94,8.23-15.94,18.29h0c0,10.06,7.17,18.29,15.94,18.29h15.3c12.71,0,23.1,11.93,23.1,26.5h0c0,14.58-10.39,26.5-23.1,26.5H70c-32.63,0-59.33,30.64-59.33,68.07h0c0,37.44,26.7,68.08,59.33,68.08h6.79c31.39,0,57.07,29.46,57.07,65.47h0c0,36-25.68,65.47-57.07,65.47H62.08c-31.65,0-57.54,29.71-57.54,66h0c0,36.31,25.89,66,57.54,66ZM188.26,82.53c-8.81,0-15.95-8.19-15.95-18.29S179.45,46,188.26,46s15.94,8.19,15.94,18.29-7.14,18.29-15.94,18.29Zm391.57,63.54c-6.75,0-12.22-6.28-12.22-14s5.47-14,12.22-14,12.21,6.27,12.21,14S586.57,146.07,579.83,146.07Z"/><path class="cls-2" d="M544.57,628.71C601.46,628.71,648,575.31,648,510h0c0-65.27-46.54-118.67-103.43-118.67h0c-24.05,0-43.73-22.57-43.73-50.17h0c0-27.6,19.68-50.18,43.73-50.18h5.21c25,0,45.46-23.47,45.46-52.17h0c0-28.69-20.45-52.16-45.46-52.16h-16c-9.73,0-17.7-9.14-17.7-20.31h0c0-11.17,8-20.31,17.7-20.31h11.73c6.72,0,12.22-6.31,12.22-14h0c0-7.71-5.5-14-12.22-14H466.68c-10.56,0-19.2-9.92-19.2-22h0c0-12.11,8.64-22,19.2-22h23.58c6.72,0,12.22-6.31,12.22-14h0c0-7.71-5.5-14-12.22-14H281.91V89.23a30.58,30.58,0,0,1,9,22h0a30.55,30.55,0,0,1-9,22v495.4Zm35.26-482.64c-6.75,0-12.22-6.28-12.22-14s5.47-14,12.22-14,12.21,6.27,12.21,14S586.57,146.07,579.83,146.07Z"/><path class="cls-3" d="M129.42,301h95.72V152.21H129.42V301Zm88.42-65.84v57.46H136.73V230.81h1.9v4.39Zm0-12.77H136.73V160.59h81.11Z"/><path class="cls-2" d="M134.53,301h95.72V152.21H134.53V301Zm7.3-8.38V230.81h81.11v61.85Zm81.11-70.23H141.83V160.59h81.11Z"/><path class="cls-4" d="M498.53,70.26H379.78V628.71H544.57C601.46,628.71,648,575.31,648,510h0c0-65.27-46.54-118.67-103.43-118.67h0c-24.05,0-43.73-22.57-43.73-50.17h0c0-27.6,19.68-50.18,43.73-50.18h5.21c25,0,45.46-23.47,45.46-52.17h0c0-28.69-20.45-52.16-45.46-52.16h-16c-9.73,0-17.7-9.14-17.7-20.31h0c0-11.17,8-20.31,17.7-20.31h11.73c6.72,0,12.22-6.31,12.22-14h0c0-7.71-5.5-14-12.22-14H466.68c-10.56,0-19.2-9.92-19.2-22h0c0-12.11,8.64-22,19.2-22h23.58a11.37,11.37,0,0,0,8.27-3.73Zm81.3,75.81c-6.75,0-12.22-6.28-12.22-14s5.47-14,12.22-14,12.21,6.27,12.21,14S586.57,146.07,579.83,146.07Z"/><path class="cls-5" d="M580.18,118v28c6.59-.21,11.86-6.4,11.86-14s-5.27-13.79-11.86-14Zm0,82.12v77.39c9.24-9.56,15.06-23.39,15.06-38.7h0c0-15.31-5.82-29.13-15.06-38.69Zm0,198.51V621.42C619.66,604.67,648,561,648,510h0C648,459.11,619.66,415.41,580.18,398.67Z"/><path class="cls-3" d="M451.09,83.2H379.78c-5.66,0-10.28-5.31-10.28-11.79h0c0-6.49,4.62-11.79,10.28-11.79H502.47c0,.11,0,.23,0,.35h0c0,7.71-5.5,14-12.22,14H466.68C460.28,74,454.58,77.63,451.09,83.2Z"/><path class="cls-5" d="M568.35,127.24v9.62a16,16,0,0,1,0-9.62Zm0,64a40.23,40.23,0,0,0-18.57-4.58h-16c-9.73,0-17.7-9.14-17.7-20.31h0c0-11.17,8-20.31,17.7-20.31h11.73c6.72,0,12.22-6.31,12.22-14h0c0-7.71-5.5-14-12.22-14H487.59V615.13h80.76V394.56a90.34,90.34,0,0,0-23.78-3.19h0c-24.05,0-43.73-22.57-43.73-50.17h0c0-27.6,19.68-50.18,43.73-50.18h5.21a40.23,40.23,0,0,0,18.57-4.58V191.27Zm-96-73.23h-5.69c-10.34,0-18.83-9.5-19.18-21.26H391.61V615.13h80.76Z"/><path class="cls-3" d="M460.15,250.09h0a4.13,4.13,0,0,0-3.81,4.36v111a4.14,4.14,0,0,0,3.81,4.37h0a4.13,4.13,0,0,0,3.8-4.37v-111A4.12,4.12,0,0,0,460.15,250.09Z"/><path class="cls-3" d="M499.81,250.09h0a4.12,4.12,0,0,0-3.8,4.36v111a4.13,4.13,0,0,0,3.8,4.37h0a4.13,4.13,0,0,0,3.81-4.37v-6.74a56.38,56.38,0,0,1-2.78-17.54h0a56.33,56.33,0,0,1,2.78-17.54V254.45A4.12,4.12,0,0,0,499.81,250.09Z"/><path class="cls-6" d="M463.73,410.47H622.88c7.93,0,14.42,7.45,14.42,16.55V628.71h-188V427C449.31,417.92,455.8,410.47,463.73,410.47Z"/><path class="cls-7" d="M437.59,410.47H570.93c6.64,0,12.08,6.24,12.08,13.86V628.71H425.52V424.33C425.52,416.71,431,410.47,437.59,410.47Z"/><path class="cls-8" d="M437.59,421.3H570.93a2.86,2.86,0,0,1,2.64,3V628.71H435V424.33A2.86,2.86,0,0,1,437.59,421.3Z"/><path class="cls-9" d="M522.44,471.38H486.09a3.35,3.35,0,0,0-3.09,3.54h0a3.35,3.35,0,0,0,3.09,3.54h36.35a3.34,3.34,0,0,0,3.08-3.54h0A3.34,3.34,0,0,0,522.44,471.38Z"/><rect class="cls-10" x="434.95" y="575.09" width="138.63" height="3.54"/><rect class="cls-10" x="434.95" y="523.23" width="138.63" height="3.54"/><rect class="cls-10" x="434.95" y="471.38" width="138.63" height="3.54"/><path class="cls-9" d="M522.44,523.23H486.09a3.35,3.35,0,0,0-3.09,3.54h0a3.35,3.35,0,0,0,3.09,3.54h36.35a3.34,3.34,0,0,0,3.08-3.54h0A3.35,3.35,0,0,0,522.44,523.23Z"/><path class="cls-9" d="M522.44,575.09H486.09a3.35,3.35,0,0,0-3.09,3.54h0a3.35,3.35,0,0,0,3.09,3.54h36.35a3.35,3.35,0,0,0,3.08-3.54h0A3.34,3.34,0,0,0,522.44,575.09Z"/><path class="cls-9" d="M522.44,421.3H486.09a3.35,3.35,0,0,0-3.09,3.54h0a3.34,3.34,0,0,0,3.09,3.53h36.35a3.34,3.34,0,0,0,3.08-3.53h0A3.34,3.34,0,0,0,522.44,421.3Z"/><path class="cls-9" d="M570.93,421.3H437.59a2.86,2.86,0,0,0-2.64,3v.51H573.57v-.51A2.86,2.86,0,0,0,570.93,421.3Z"/><path class="cls-11" d="M278.13,308.81a1.21,1.21,0,0,1,0-2.4h12c2.54,0,5.76.26,8.43,2.35s4.7,6,4.7,13.14V648.8a1.06,1.06,0,1,1-2.1,0V321.9c0-6.2-1.62-9.47-3.78-11.17s-5-1.92-7.25-1.92Z"/><path class="cls-12" d="M293.34,221.2l-3.23,2s1.34,7.15,12.73,13C302.84,236.17,301.32,228.5,293.34,221.2Z"/><path class="cls-13" d="M382.19,391.72s1.43,212.09,1.5,213.81a13.56,13.56,0,0,0,1.35,4.25l-.5,4.18s-6.92,5.57-10.84,6.3-9.56,1.07-11.42.41-1.62-1.94-1.62-1.94,11.51-7.48,14.23-11.74-15.52-212.36-15.52-213.51S382.19,391.72,382.19,391.72Z"/><path class="cls-14" d="M382.19,391.72s1.43,212.09,1.5,213.81a13.56,13.56,0,0,0,1.35,4.25l-.5,4.18s-6.92,5.57-10.84,6.3-9.56,1.07-11.42.41a3.13,3.13,0,0,1-.55-.24c-.06-.14.15-.28.69-.39,5.16-1.07,18.49-10.28,18.92-12.42s-4.73-183.85-6.45-186.81c-1.26-2.17-9.4-4.08-13.63-4.94l-.87-10.15,10.42-13.55C376.5,391.88,382.19,391.72,382.19,391.72Z"/><path class="cls-15" d="M383.9,628.71H345.51a2.08,2.08,0,0,1-1.07-2.14,3.55,3.55,0,0,1,2.11-2.74c.78-.17,7.7-.45,13.41-5.29,0,0,6.42,1.73,7.63,1.89s11.6-3.85,17.45-10.65a7.22,7.22,0,0,1,1.43,2.63C386.68,613.59,387.39,623.78,383.9,628.71Z"/><path class="cls-16" d="M383.9,628.71H345.51a2.08,2.08,0,0,1-1.07-2.14,4.31,4.31,0,0,1,.59-1.46,5.42,5.42,0,0,0,3,1.14c1.27.1,37.44-1,37.47-1A12.63,12.63,0,0,1,383.9,628.71Z"/><path class="cls-13" d="M297.78,202.49c-2.81,10.83-6.32,22.73-10,31.17-2.17,5-3.4,9-6.15,14.51-1.89,3.75-9.88,13.86-28.17,32.92L251,284.74s-5.59,1.63-6.25,4.85l14.73,1.56c-.05-.66.72-5.52.72-5.52,3.76-4.13,20.25-14.46,30.42-27.95,9.36-12.41,14.18-27.51,18.63-42.41,1.25-4.19,2.31-8,3.21-11.45Z"/><path class="cls-17" d="M393.42,201.7l5.43.85s-.42,12.06-16.52,21.57c0,0-.56-8.18-.62-9.66S393.42,201.7,393.42,201.7Z"/><path class="cls-13" d="M335.8,391.72s1.43,212.09,1.5,213.81a13.56,13.56,0,0,0,1.35,4.25l-.5,4.18s-6.92,5.57-10.84,6.3-9.56,1.07-11.42.41-1.62-1.94-1.62-1.94,11.51-7.48,14.23-11.74S313,394.63,313,393.48,335.8,391.72,335.8,391.72Z"/><path class="cls-14" d="M335.8,391.72s1.43,212.09,1.5,213.81a13.56,13.56,0,0,0,1.35,4.25l-.5,4.18s-6.92,5.57-10.84,6.3-9.56,1.07-11.42.41a3.13,3.13,0,0,1-.55-.24c-.06-.14.15-.28.69-.39,5.16-1.07,18.49-10.28,18.92-12.42s-4.73-183.85-6.45-186.81c-1.26-2.17-9.4-4.08-13.63-4.94L314,405.72l10.42-13.55C330.11,391.88,335.8,391.72,335.8,391.72Z"/><path class="cls-18" d="M386,386.13c.35,2.31.72,5.19.89,8.1h0v0c0,.13,0,.26,0,.38.24,4.95,1.25,8.42-2.22,12.08s-54.6,9.66-68.11,2.44c0,0-2.27-.87-2.66-4.43-4.28-39.27-7.75-112,1.06-149.07.41-1.71,41.21-1.44,49.33,6.25a4.13,4.13,0,0,1,3.18-.06s-.17,2,2.38,5.71,5.44,17.25,6,33.44S383.71,365.58,386,386.13Z"/><path class="cls-19" d="M318.24,168.33l-4.32-4.45a74.9,74.9,0,0,0-8.68,15.25c-4.15,9.52-13.74,41-15.13,44,0,0,9.69,5.72,12.73,13L309.67,222Z"/><path class="cls-8" d="M292.11,217.41c-1,3-1.69,5.06-2,5.74,0,0,9.69,5.72,12.73,13l2.75-5.71C302,223.68,295.26,219.23,292.11,217.41Z"/><path class="cls-11" d="M386,386.13c.35,2.31.72,5.19.89,8.1h0v0c0,.13,0,.26,0,.38.24,4.95,1.25,8.42-2.22,12.08s-54.6,9.66-68.11,2.44c0,0-2.27-.87-2.66-4.43l-.21-2c52,7.23,68.22-133.68-3-116.81.82-7.27,1.2-26.56,4.26-30.26,1.1-1.33,41.21-1.44,49.33,6.25a4.13,4.13,0,0,1,3.18-.06s-.17,2,2.38,5.71,5.44,17.25,6,33.44S383.71,365.58,386,386.13Z"/><path class="cls-19" d="M373.22,158.78c-5.38-3.64-12.77-5.28-18.71-5.17-7.18.47-21.29-.32-30.28,2.35-2.68.79-11.93,6.58-13.68,14.76-1.5,7-10.1,31.1-10.19,36.25s7.91,27.56,7.91,27.56l3.14,27.89c.19,1.7.34,3.41.45,5.16,1.21,20.1,57.16,7.27,56.49-2.26-.11-1.71-.2-3.35-.26-4.94h0a129.21,129.21,0,0,1,.86-33.65c2.93-17.31,3.88-24.55,3.88-24.55Z"/><path class="cls-8" d="M359.11,153.85a33.24,33.24,0,0,0-4.6-.24c-7.18.47-21.29-.32-30.28,2.35a15.74,15.74,0,0,0-3.56,1.83c-.83,10.53,6.33,17.35,19.25,13.81C349.84,168.89,356.48,158.64,359.11,153.85Z"/><path class="cls-18" d="M242.33,628.71h9.95l148.09-147.8a1.79,1.79,0,0,1,2.69,0l148.09,147.8h10L409.1,477a3.66,3.66,0,0,1,0-4.83L516.69,364.27a5,5,0,0,0,.6-5.6c-1-1.77-2.86-2.12-4.18-.79l-110,110.35a1.78,1.78,0,0,1-2.69,0L290.31,357.88c-1.32-1.33-3.18-1-4.17.79a5,5,0,0,0,.59,5.6l107.6,107.89a3.69,3.69,0,0,1,0,4.83Z"/><path class="cls-9" d="M129,628.71h9.95L287,480.91a1.79,1.79,0,0,1,2.69,0l148.09,147.8h10L295.73,477a3.69,3.69,0,0,1,0-4.83l107.6-107.89a5,5,0,0,0,.59-5.6c-1-1.77-2.86-2.12-4.17-.79L289.69,468.23a1.78,1.78,0,0,1-2.69,0L177,357.88c-1.32-1.33-3.19-1-4.18.79a5,5,0,0,0,.6,5.6L281,472.16a3.69,3.69,0,0,1,0,4.83Z"/><path class="cls-11" d="M163.83,335.26h352.5c7.14,0,13,6.7,13,14.9h0c0,8.19-5.84,14.89-13,14.89H163.83c-7.14,0-13-6.7-13-14.89h0C150.85,342,156.69,335.26,163.83,335.26Z"/><path class="cls-6" d="M148.91,329.11H441c5,0,9.17,4.73,9.17,10.52h0c0,5.79-4.12,10.53-9.17,10.53H148.91c-5,0-9.17-4.74-9.17-10.53h0C139.74,333.84,143.87,329.11,148.91,329.11Z"/><path class="cls-7" d="M531.25,329.11H420.43c-5.05,0-9.17,4.73-9.17,10.52h0c0,5.79,4.12,10.53,9.17,10.53H531.25c5,0,9.17-4.74,9.17-10.53h0C540.42,333.84,536.29,329.11,531.25,329.11Z"/><ellipse class="cls-10" cx="288.35" cy="474.87" rx="12.93" ry="17.34"/><path class="cls-20" d="M287.22,486.16c4.63,0,8.42-5.07,8.42-11.29s-3.79-11.29-8.42-11.29-8.42,5.08-8.42,11.29S282.58,486.16,287.22,486.16Z"/><ellipse class="cls-21" cx="401.71" cy="474.87" rx="12.93" ry="17.34"/><path class="cls-22" d="M345.49,121.48l.49,8.15s1.62,16.63,1.87,19.16c.18,1.81,1.18,4.09,5.87,4.75.18,0,.62-.09.53.08-6.4,13.69-31.58,19.78-29.9,2.31,0-.06.1-.06.14-.1,5.5-3.79,3.59-19.39.37-23.14C322.09,129.46,345.49,121.48,345.49,121.48Z"/><path class="cls-13" d="M373.22,158.77c8.31,11.2,37.46,71.07,38.31,78.92,1.87,17.21-12.93,65.45-20.21,79.07-.64,1.21-2,1.28-2.13.68-.69-4-8.29-1.69-5.38-4.49,4.87-4.68,11.6-58.66,12.48-67.68S369.92,202.16,368,198.69s-.82-1.61-1.26-2.65C366.76,196,363,168.14,373.22,158.77Z"/><path class="cls-23" d="M411.62,244c-1.05,19.68-13.79,60.62-20.3,72.79-.64,1.21-2,1.28-2.13.68a3.4,3.4,0,0,0-.25-.8c5.61-12.14,20.23-52.11,22.68-72.67Zm-15.42,2.15a3.76,3.76,0,0,0,.09-.85l-.09.85Zm0-2.34C394.52,233.11,369.83,202,368,198.69c-1.89-3.46-.82-1.61-1.26-2.65,0,0-.1-.79-.23-2.12l27.28,9.59s-5,6.89-3.9,12.9C391,222,395.58,236.29,396.21,243.78Z"/><path class="cls-15" d="M337.51,628.71H299.12a2.08,2.08,0,0,1-1.07-2.14,3.55,3.55,0,0,1,2.11-2.74c.78-.17,7.7-.45,13.41-5.29,0,0,6.42,1.73,7.64,1.89s11.59-3.85,17.44-10.65a7.38,7.38,0,0,1,1.43,2.63C340.29,613.59,341,623.78,337.51,628.71Z"/><path class="cls-16" d="M337.51,628.71H299.12a2.08,2.08,0,0,1-1.07-2.14,4.31,4.31,0,0,1,.59-1.46,5.42,5.42,0,0,0,3,1.14c1.27.1,37.44-1,37.47-1A12.35,12.35,0,0,1,337.51,628.71Z"/><path class="cls-19" d="M365.28,156.69l7.94,2.08s10.73,15.56,25.63,43.78c0,0-16,8.95-16.52,21.57,0,0-15.33-22.59-17.06-28.22S362.23,164.55,365.28,156.69Z"/><path class="cls-24" d="M388.89,210.49c-3.37,3.63-6.35,8.3-6.56,13.63,0,0-8.27-12.18-13.34-20.88.39-4.69,1-8.09,1-8.09l2.88-2.71S378.79,205.72,388.89,210.49Z"/><path class="cls-25" d="M388.89,210.49c-3.37,3.63-6.35,8.3-6.56,13.63,0,0-8.27-12.18-13.34-20.88.39-4.69,1-8.09,1-8.09l2.88-2.71S378.79,205.72,388.89,210.49Z"/><path class="cls-8" d="M396.31,197.77q1.24,2.34,2.54,4.78s-16,8.95-16.52,21.57c0,0-1.49-2.18-3.59-5.37C379.17,208.39,390.47,200.94,396.31,197.77Z"/><path class="cls-26" d="M388.89,210.49c-3.37,3.63-6.35,8.3-6.56,13.63,0,0-1.49-2.18-3.59-5.37.19-4.39,2.32-8.25,5.16-11.5A23.47,23.47,0,0,0,388.89,210.49Z"/><path class="cls-27" d="M144.61,334.71c0,42.17-7.59,62.59-12,75.3A45.47,45.47,0,0,0,131,433.82c0,21.28-19.12,29.23-20.39,36.43s5,7.93,5,7.93l54,3.48c13.88.89,26.92-6.49,31.1-6.22l16.23,1c10,.65,15.88,10.15,19.23,10.36l10.08.65c4.65.3,11.35.3,10-12.53s3.8-19.11,12-16.64c4.46,1.35,8.52,5.23,10,7.14,2.86,3.57,5.22,4.35,5.63,2.12s2-9.79,2-9.79c2.86-4.21,16.09-.72,19.85,1.4s4.73-.83,4.73-.83c2.78-6.85,4.57-38.12,4.57-54.69V325.1l-164.46,1.5-5.58,2.51S144.35,330.26,144.61,334.71Z"/><path class="cls-28" d="M151.31,347.61s-7.34,49.24,5.93,72.74,46.52,13.62,55.39-48.73a1.92,1.92,0,0,0-.88-1.54c-.87-.54-1.68,1.13-2.24,3.43s-13.81,39.36-32,36.15S151,388,153.8,349.7c0,0,.35-2.85-.61-3.62s-1.65.4-1.88,1.53Zm76.84,133.47c3.64,2.72,6.24,5.64,8.08,5.76l10.08.65c4.65.3,11.35.3,10-12.53a27.61,27.61,0,0,1,.55-10v0c.4-1.41,13.24-46.8,17.83-80.72a.67.67,0,0,0-.41-.69c-.42-.13-19.6,74.15-46.18,97.61Zm44-21c20.18-49.33,22.26-102.89,22.69-103.19s.67.34.67.34c1.86,49.14-9.52,100.57-9.52,100.57s-1.55,7.55-2,9.79-2.77,1.45-5.63-2.12a25.56,25.56,0,0,0-6.25-5.39Zm-18.8-89.53S250,489.34,138.53,463.17c0,0-1-.34-1-1.2s-.2-2.44,7.3-2.44,69.94,9.62,106.36-87.91A2,2,0,0,1,253.35,370.54Z"/><path class="cls-28" d="M399.71,329.11h0c0-4.73-3.38-8.6-7.49-8.6H152.59c-4.11,0-7.49,3.87-7.49,8.6H399.71Z"/><path class="cls-9" d="M360.53,33.26c-10.23,1.82-17.23,12.8-15.65,24.54s11.17,19.77,21.39,18,17.24-12.81,15.65-24.54S370.76,31.44,360.53,33.26Z"/><path class="cls-11" d="M350.24,39.2a23.49,23.49,0,0,0-5.36,18.6c1.59,11.73,11.17,19.77,21.39,18s17.24-12.81,15.65-24.54v-.08C375,62.09,355.4,53.14,350.24,39.2Z"/><path class="cls-9" d="M303.18,107.7c-30-32.32,3-94.46,44.1-55.24,0,0,16.16-7.66,17.77,18.37,1.06,17.11-.37,25.87,1.94,34.64L306.2,116.29Z"/><path class="cls-18" d="M303.18,107.7a43.46,43.46,0,0,1-4-5c-2.2-4.74,2.6-5.11,2.6-5.11l23.69,8.69,10.67-36.68c7,4.83,26.36-1.7,21.24-16.94,3.6,2,6.94,7,7.63,18.13,1.06,17.11-.37,25.87,1.94,34.64L306.2,116.29Z"/><path class="cls-22" d="M305,107.13c4.4-.78,8.53,2.68,9.21,7.74s-2.33,9.79-6.74,10.57-8.53-2.68-9.21-7.73S300.56,107.91,305,107.13Z"/><path class="cls-22" d="M359.63,97.41c4.41-.79,8.53,2.68,9.22,7.73s-2.34,9.79-6.75,10.58-8.53-2.68-9.21-7.74S355.22,98.19,359.63,97.41Z"/><path class="cls-13" d="M324.22,56.29h0c15-2.67,29.24,9.25,31.57,26.5l3.85,28.5c2.33,17.25-8.06,33.55-23.1,36.22h0c-15,2.68-29.23-9.25-31.56-26.49l-3.86-28.5C298.79,75.27,309.18,59,324.22,56.29Z"/><path class="cls-23" d="M336.89,57.46c9.64,3.58,17.25,13.12,18.9,25.33l3.85,28.5c2,15.07-5.64,29.41-17.63,34.58,25.14-20.31,7.3-46.28,2-54.7S336.54,79,329.86,84.91s-12.16,7.14-12.16,7.14l-7.59-4.12s-1.08-11.87,1-15.44,11.56-7,22.83-13.63A20.58,20.58,0,0,1,336.89,57.46Z"/><path class="cls-11" d="M311.89,108.43h0A2.79,2.79,0,0,1,315,111l.54,4a3.07,3.07,0,0,1-2.26,3.54h0a2.79,2.79,0,0,1-3.09-2.59l-.54-4A3.09,3.09,0,0,1,311.89,108.43Z"/><path class="cls-11" d="M339.51,104h0a2.78,2.78,0,0,1,3.09,2.59l.54,4a3.09,3.09,0,0,1-2.26,3.55h0a2.79,2.79,0,0,1-3.09-2.6l-.54-4A3.07,3.07,0,0,1,339.51,104Z"/><path class="cls-11" d="M307.08,101.43l7.56-1.35a1.51,1.51,0,0,1,1.67,1.41h0a1.68,1.68,0,0,1-1.23,1.93l-7.56,1.35a1.52,1.52,0,0,1-1.68-1.41h0A1.67,1.67,0,0,1,307.08,101.43Z"/><path class="cls-11" d="M334.69,97l7.56-1.34A1.52,1.52,0,0,1,343.93,97h0A1.69,1.69,0,0,1,342.7,99l-7.56,1.34a1.52,1.52,0,0,1-1.68-1.41h0A1.69,1.69,0,0,1,334.69,97Z"/><path class="cls-8" d="M336.36,122.46c.75,5.51-2.54,10.67-7.34,11.52s-9.3-2.92-10-8.43h0a1.75,1.75,0,0,1,1.27-2L334.62,121a1.57,1.57,0,0,1,1.73,1.45Z"/><path class="cls-29" d="M311.79,120.85c2.18-.39,4.23,1.33,4.56,3.83s-1.15,4.86-3.34,5.24-4.23-1.32-4.57-3.83A4.56,4.56,0,0,1,311.79,120.85Z"/><path class="cls-22" d="M343.91,116.51c2.19-.39,4.23,1.33,4.57,3.83s-1.16,4.86-3.34,5.24-4.23-1.32-4.57-3.83A4.55,4.55,0,0,1,343.91,116.51Z"/><path class="cls-18" d="M361.46,97.32l-2.07-1.81-4.24,1.12s-1.41,9.71,3.79,9.48l-.72-5.28A3,3,0,0,1,361.46,97.32Z"/><path class="cls-9" d="M336.18,69.64S337,87.53,350.33,97c0,0-8.56-7.82-10.06-17.92,7,13.93,13.55,16.35,14.88,17.53a10.61,10.61,0,0,0,4.48.79L357,69.27,347.57,57.2l-21-4.65s-16.18,6.27-17.29,7.07A19.41,19.41,0,0,0,303.51,68c-1.2,4-5.08,16.45-5.08,16.45l3.39,13.15S323.6,97.4,336.18,69.64Z"/><path class="cls-18" d="M336.18,69.64S337,87.53,350.33,97c0,0-8.56-7.82-10.06-17.92,7,13.93,13.55,16.35,14.87,17.53a10.68,10.68,0,0,0,4.49.79L357,69.27l-2.4-3.07C349.54,71.27,340.49,72.63,336.18,69.64Z"/><path class="cls-20" d="M292.35,86a47,47,0,0,1,.1-17.38c10,1.34,29.7.22,43.67-24.54,1.14.63,2.29,1.33,3.45,2.11C335,59.57,322.58,84.07,292.35,86Z"/><path class="cls-30" d="M418,311.37h96.76c4.28,0,7.79-4,7.79-8.93h0c0-4.92-3.51-8.94-7.79-8.94H418c-4.29,0-7.79,4-7.79,8.94h0C410.18,307.35,413.68,311.37,418,311.37Z"/><path class="cls-31" d="M460.86,311.37h53.87c4.28,0,7.79-4,7.79-8.93h0c0-4.92-3.51-8.94-7.79-8.94H460.86c-4.29,0-7.79,4-7.79,8.94h0C453.07,307.35,456.57,311.37,460.86,311.37Z"/><path class="cls-32" d="M464,303.23H489.7a3.19,3.19,0,0,0,2.94-3.38h0a3.19,3.19,0,0,0-2.94-3.38H464a3.19,3.19,0,0,0-2.94,3.38h0A3.19,3.19,0,0,0,464,303.23Z"/><path class="cls-32" d="M502.75,303.23h-2.51a3.19,3.19,0,0,1-2.94-3.38h0a3.19,3.19,0,0,1,2.94-3.38h2.51a3.19,3.19,0,0,1,2.94,3.38h0A3.19,3.19,0,0,1,502.75,303.23Z"/><path class="cls-25" d="M462.59,311.37a9.65,9.65,0,0,1-8.42-4.77H423.94c-5.24,0-9.52-4-9.52-8.94a8.41,8.41,0,0,1,.54-3,8.89,8.89,0,0,0-4.78,7.75c0,4.91,4.28,8.93,9.52,8.93h42.89Z"/><path class="cls-27" d="M520.63,329.11H409c-4.29,0-7.79-4-7.79-8.94h0c0-4.91,3.5-8.94,7.79-8.94H520.63c4.28,0,7.79,4,7.79,8.94h0C528.42,325.09,524.91,329.11,520.63,329.11Z"/><path class="cls-27" d="M471.83,329.11H409c-4.29,0-7.79-4-7.79-8.94h0c0-4.91,3.5-8.94,7.79-8.94h62.87c4.29,0,7.79,4,7.79,8.94h0C479.62,325.09,476.12,329.11,471.83,329.11Z"/><path class="cls-28" d="M468.65,321H434a3.2,3.2,0,0,1-2.95-3.38h0A3.2,3.2,0,0,1,434,314.2h34.66a3.2,3.2,0,0,1,3,3.38h0A3.2,3.2,0,0,1,468.65,321Z"/><path class="cls-28" d="M420.94,321h2.5a3.2,3.2,0,0,0,2.95-3.38h0a3.2,3.2,0,0,0-2.95-3.38h-2.5a3.2,3.2,0,0,0-2.95,3.38h0A3.2,3.2,0,0,0,420.94,321Z"/><path class="cls-28" d="M470.1,329.11a9.65,9.65,0,0,0,8.42-4.77h36.14c5.23,0,9.52-4,9.52-8.94a8.2,8.2,0,0,0-.55-3,8.85,8.85,0,0,1,4.79,7.74c0,4.92-4.29,8.94-9.52,8.94H470.1Z"/><path class="cls-33" d="M505.67,293.5H427c-3.48,0-6.33-3.27-6.33-7.26h0c0-4,2.85-7.27,6.33-7.27h78.65c3.49,0,6.34,3.27,6.34,7.27h0C512,290.23,509.16,293.5,505.67,293.5Z"/><path class="cls-8" d="M470.81,293.5H427c-3.48,0-6.33-3.27-6.33-7.26h0c0-4,2.85-7.27,6.33-7.27h43.79c3.48,0,6.33,3.27,6.33,7.27h0C477.14,290.23,474.29,293.5,470.81,293.5Z"/><path class="cls-34" d="M468.22,286.88H447.37a2.6,2.6,0,0,1-2.4-2.75h0a2.6,2.6,0,0,1,2.4-2.75h20.85a2.59,2.59,0,0,1,2.39,2.75h0A2.59,2.59,0,0,1,468.22,286.88Z"/><path class="cls-34" d="M436.76,286.88h2a2.6,2.6,0,0,0,2.4-2.75h0a2.6,2.6,0,0,0-2.4-2.75h-2a2.6,2.6,0,0,0-2.4,2.75h0A2.6,2.6,0,0,0,436.76,286.88Z"/><path class="cls-35" d="M469.4,293.5a7.83,7.83,0,0,0,6.84-3.88h24.58a7.54,7.54,0,0,0,7.74-7.27,6.91,6.91,0,0,0-.44-2.41,7.22,7.22,0,0,1,3.89,6.3,7.54,7.54,0,0,1-7.74,7.26H469.4Z"/><path class="cls-36" d="M265.34,316.51H239v-14h13a3.94,3.94,0,0,0,3.63-4.17h0a3.93,3.93,0,0,0-3.63-4.17H239v-5.08h26.39Z"/><path class="cls-11" d="M239,309.83v-7.32h13a3.94,3.94,0,0,0,3.63-4.17h0a3.93,3.93,0,0,0-3.63-4.17H239v-5.08h22.51v12.17c0,4.71-3.36,8.57-7.47,8.57Z"/><path class="cls-37" d="M260.91,284H229.74c-2.44,0-4.43,2.28-4.43,5.08h0c0,2.79,2,5.08,4.43,5.08h31.17c2.44,0,4.43-2.29,4.43-5.08h0C265.34,286.29,263.35,284,260.91,284Z"/><path class="cls-38" d="M256.19,316.51a13.49,13.49,0,0,0,.11-1.7h0c0-6.77-4.82-12.3-10.72-12.3h-22.1c-5.89,0-10.71,5.53-10.71,12.3h0a13.5,13.5,0,0,0,.1,1.7Z"/><path class="cls-39" d="M213,320.51h52.39a2.69,2.69,0,0,0,2.49-2.85h0a2.7,2.7,0,0,0-2.49-2.86H213a2.7,2.7,0,0,0-2.49,2.86h0A2.69,2.69,0,0,0,213,320.51Z"/><path class="cls-8" d="M213.6,318.21h34.67a1.06,1.06,0,0,0,1-1.12h0a1.06,1.06,0,0,0-1-1.12H213.6a1.06,1.06,0,0,0-1,1.12h0A1.06,1.06,0,0,0,213.6,318.21Z"/><path class="cls-8" d="M251.91,318.21h-.47a1.06,1.06,0,0,1-1-1.12h0a1.06,1.06,0,0,1,1-1.12h.47a1.06,1.06,0,0,1,1,1.12h0A1.06,1.06,0,0,1,251.91,318.21Z"/><path class="cls-24" d="M250.5,285.35h-21a3,3,0,0,0-2.73,3.14h0a3,3,0,0,0,2.73,3.14h21a3,3,0,0,0,2.73-3.14h0A3,3,0,0,0,250.5,285.35Z"/><path class="cls-24" d="M257.82,285.35h0a2.94,2.94,0,0,1,2.71,3.12v0a3,3,0,0,1-2.71,3.12h0a3,3,0,0,1-2.72-3.12v0A2.94,2.94,0,0,1,257.82,285.35Z"/><path class="cls-40" d="M251,314.8h5.35a13.65,13.65,0,0,0-1-5.12,12.34,12.34,0,0,0-2.68-4.12,9.94,9.94,0,0,0-7.06-3.06h-22.1a9.59,9.59,0,0,0-5.25,1.59h22.1a9.49,9.49,0,0,1,2.39.31,11,11,0,0,1,6.66,5.42A13.48,13.48,0,0,1,251,314.8Z"/><path class="cls-25" d="M300.46,208.34c.67,5,4.52,16.67,6.55,22.59,0-.13-.71-4,6.71-4.91s31.94-.79,37.78,5.91c3.58,4.09,5.31,24.46,1,43.2,9.11-2.6,16.07-6.41,15.83-9.81-.11-1.71-.2-3.35-.26-4.94h0a129.21,129.21,0,0,1,.86-33.65c2.93-17.31,3.88-24.55,3.88-24.55l.08-9.74c-.7-1.08-1.38-2.24-2-3.46,0,0-.43-1.45-1.18-.27s-7.22,18.47-20.26,20.81S304.75,212.39,300.46,208.34Z"/><path class="cls-13" d="M376.66,328.91h8.84c4.25,0,2.94-5,2.94-8.4,0-.89,3.27-3.86,3.28-5.05,0-4.94-3.28-9.35-5.57-6.7-2.95,3.43-10.6,4.8-15.41,7.15-1.46.71-6.44,3.86-6.44,4.6h0C364.3,325.14,372.63,328.91,376.66,328.91Z"/><path class="cls-27" d="M399.71,329.11h0c0-4.73-3.38-8.6-7.49-8.6H322.63c-4.11,0-7.49,3.87-7.49,8.6h84.57Z"/><path class="cls-8" d="M257.41,174.27a1.19,1.19,0,1,1,2.36,0v1.79h1.56a1.37,1.37,0,0,1,0,2.71h-1.56v1.79a1.19,1.19,0,1,1-2.36,0v-1.79h-1.56a1.37,1.37,0,0,1,0-2.71h1.56Z"/><path class="cls-8" d="M102.23,325.75a1.2,1.2,0,1,1,2.37,0v1.78h1.56a1.37,1.37,0,0,1,0,2.71H104.6V332a1.2,1.2,0,1,1-2.37,0v-1.79h-1.55a1.37,1.37,0,0,1,0-2.71h1.55Z"/><path class="cls-8" d="M169.81,516.92a1.19,1.19,0,1,1,2.36,0v1.78h1.56a1.37,1.37,0,0,1,0,2.72h-1.56v1.78a1.19,1.19,0,1,1-2.36,0v-1.78h-1.56a1.37,1.37,0,0,1,0-2.72h1.56Z"/><path class="cls-8" d="M421.29,171.05a1.19,1.19,0,1,1,2.36,0v1.78h1.56a1.37,1.37,0,0,1,0,2.72h-1.56v1.78a1.19,1.19,0,1,1-2.36,0v-1.78h-1.56a1.37,1.37,0,0,1,0-2.72h1.56Z"/><path class="cls-8" d="M245.8,570a1.2,1.2,0,1,1,2.37,0v1.78h1.56a1.37,1.37,0,0,1,0,2.72h-1.56v1.79a1.2,1.2,0,1,1-2.37,0v-1.79h-1.55a1.37,1.37,0,0,1,0-2.72h1.55Z"/><path class="cls-8" d="M44.32,269.86a1.2,1.2,0,1,1,2.37,0v1.78h1.55a1.37,1.37,0,0,1,0,2.72H46.69v1.78a1.2,1.2,0,1,1-2.37,0v-1.78H42.77a1.37,1.37,0,0,1,0-2.72h1.55Z"/><path class="cls-8" d="M68,555.05a1.2,1.2,0,1,1,2.37,0v1.79H72a1.37,1.37,0,0,1,0,2.71H70.41v1.79a1.2,1.2,0,1,1-2.37,0v-1.79H66.49a1.37,1.37,0,0,1,0-2.71H68Z"/><path class="cls-8" d="M56,584.8a1.37,1.37,0,0,1,0-2.71h72.92a1.37,1.37,0,0,1,0,2.71Zm-7.51-2.71a1.37,1.37,0,0,1,0,2.71H43.84a1.37,1.37,0,0,1,0-2.71Z"/><path class="cls-8" d="M86.08,305.62a1.37,1.37,0,0,0,0-2.71H35.71a1.37,1.37,0,0,0,0,2.71Zm7.51-2.71a1.37,1.37,0,0,0,0,2.71h4.62a1.37,1.37,0,0,0,0-2.71Z"/><path class="cls-4" d="M528.55,92.55a1.37,1.37,0,0,0,0-2.72H478.18a1.37,1.37,0,0,0,0,2.72Zm7.51-2.72a1.37,1.37,0,0,0,0,2.72h4.62a1.37,1.37,0,0,0,0-2.72Z"/><path class="cls-4" d="M216.58,106.61a1.37,1.37,0,0,0,0-2.71H166.21a1.37,1.37,0,0,0,0,2.71Zm7.51-2.71a1.37,1.37,0,0,0,0,2.71h4.62a1.37,1.37,0,0,0,0-2.71Z"/><path class="cls-4" d="M85,453.37a1.37,1.37,0,0,0,0-2.71H34.6a1.37,1.37,0,0,0,0,2.71Zm7.51-2.71a1.37,1.37,0,0,0,0,2.71h4.61a1.37,1.37,0,0,0,0-2.71Z"/><path class="cls-4" d="M116.72,94.65a1.2,1.2,0,1,1,2.37,0v1.79h1.55a1.37,1.37,0,0,1,0,2.71h-1.55v1.79a1.2,1.2,0,1,1-2.37,0V99.15h-1.55a1.37,1.37,0,0,1,0-2.71h1.55Z"/><path class="cls-4" d="M530.18,59.31a1.19,1.19,0,1,1,2.36,0V61.1h1.56a1.37,1.37,0,0,1,0,2.71h-1.56V65.6a1.19,1.19,0,1,1-2.36,0V63.81h-1.56a1.37,1.37,0,0,1,0-2.71h1.56Z"/><path class="cls-4" d="M57.34,389.29a1.2,1.2,0,1,1,2.37,0v1.79h1.56a1.37,1.37,0,0,1,0,2.71H59.71v1.79a1.2,1.2,0,1,1-2.37,0v-1.79H55.79a1.37,1.37,0,0,1,0-2.71h1.55Z"/><path class="cls-4" d="M552.93,318.45a1.19,1.19,0,1,1,2.36,0v1.79h1.56a1.37,1.37,0,0,1,0,2.71h-1.56v1.78a1.19,1.19,0,1,1-2.36,0V323h-1.56a1.37,1.37,0,0,1,0-2.71h1.56Z"/><path class="cls-4" d="M4.61,606.75a1.28,1.28,0,0,1,1.18-1.36A1.28,1.28,0,0,1,7,606.75v1.78H8.53a1.37,1.37,0,0,1,0,2.72H7V613a1.28,1.28,0,0,1-1.18,1.36A1.28,1.28,0,0,1,4.61,613v-1.78H3.05a1.37,1.37,0,0,1,0-2.72H4.61Z"/><path class="cls-4" d="M583.8,359.46a1.19,1.19,0,1,1,2.36,0v1.79h1.56a1.37,1.37,0,0,1,0,2.71h-1.56v1.79a1.19,1.19,0,1,1-2.36,0V364h-1.56a1.37,1.37,0,0,1,0-2.71h1.56Z"/><path class="cls-13" d="M244.32,279.54a73.25,73.25,0,0,0-10.23,7.19c-1.93,1.6,1.26,2.16,3.4,1.89a24.47,24.47,0,0,0,7.15-2.47c.49-.18,6.42,2.52,10.32-4.29s2.28-4.38,2.28-4.38Z"/><path class="cls-13" d="M236.56,294.15c1.52-2.75,1-3.86,6.34-3.52,5.93.37,8.61-.28,7.88,1.58-1.75,4.46-1,4.49-13.93,3.67C235.84,295.82,236.25,294.71,236.56,294.15Z"/><path class="cls-23" d="M259.43,282.78c-1.92,1.07-4.08.61-6.46,2.55h7.47c2.93-3,11.46-8.76,19.73-16.39a86.17,86.17,0,0,0,10.4-11.26A89,89,0,0,0,301,239.05c1.14-2.59,2.06-5,2.12-5.14a27.66,27.66,0,0,0-6.08-5.42c-.89,17.93-9.33,25.44-12.4,30.13a50,50,0,0,1-4.83,6.05C272.34,272.87,261.16,281.82,259.43,282.78Z"/></svg>