<?xml version="1.0" encoding="UTF-8"?>
<svg width="40px" height="75px" viewBox="0 0 40 75" version="1.1" xmlns="http://www.w3.org/2000/svg" xmlns:xlink="http://www.w3.org/1999/xlink">
    <!-- Generator: Sketch 49.3 (51167) - http://www.bohemiancoding.com/sketch -->
    <title>Group 41</title>
    <desc>Created with Sketch.</desc>
    <defs>
        <path d="M0.36,5.796 C0.36,7.363 1.203,7.906 2.735,7.906 C2.712,7.711 2.425,7.537 2.425,6.427 C2.425,4.122 3.579,2.47 5.533,1.666 L2.313,16.452 L5.511,16.452 L7.287,8.254 C7.642,8.21 8.064,8.168 8.487,8.168 C8.953,8.168 9.419,8.21 9.907,8.384 L8.153,16.452 L11.35,16.452 L14.882,0.188 L11.684,0.188 L10.307,6.536 C10.153,6.515 9.974,6.515 9.818,6.515 C9.109,6.515 8.353,6.666 7.598,6.797 L9.04,0.188 C8.753,0.164 8.465,0.144 8.153,0.144 C4.445,0.144 0.36,2.906 0.36,5.796 Z" id="path-1"></path>
        <path d="M0.36,5.796 C0.36,7.363 1.203,7.907 2.735,7.907 C2.712,7.711 2.424,7.537 2.424,6.427 C2.424,4.122 3.578,2.471 5.533,1.665 L2.313,16.451 L5.511,16.451 L7.286,8.254 C7.642,8.21 8.064,8.168 8.487,8.168 C8.953,8.168 9.418,8.21 9.907,8.384 L8.153,16.451 L11.35,16.451 L14.881,0.187 L11.684,0.187 L10.308,6.536 C10.153,6.514 9.974,6.514 9.818,6.514 C9.109,6.514 8.353,6.667 7.599,6.796 L9.04,0.187 C8.753,0.164 8.464,0.143 8.153,0.143 C4.445,0.143 0.36,2.906 0.36,5.796 Z" id="path-3"></path>
    </defs>
    <g id="ICONS" stroke="none" stroke-width="1" fill="none" fill-rule="evenodd">
        <g id="Group-41">
            <polygon id="Stroke-295" stroke="#797979" stroke-width="1.5" points="0.953 30.704 38.287 30.704 38.287 0.865 0.953 0.865"></polygon>
            <path d="M23.6835,6.3123 L22.3075,12.6623 C22.1525,12.6393 21.9745,12.6393 21.8185,12.6393 C21.1085,12.6393 20.3535,12.7913 19.5985,12.9213 L21.0405,6.3123 C20.7525,6.2903 20.4645,6.2683 20.1535,6.2683 C16.4455,6.2683 12.3595,9.0303 12.3595,11.9213 C12.3595,13.4883 13.2035,14.0313 14.7355,14.0313 C14.7125,13.8353 14.4245,13.6623 14.4245,12.5523 C14.4245,10.2483 15.5795,8.5953 17.5335,7.7913 L14.3135,22.5773 L17.5105,22.5773 L19.2875,14.3783 C19.6425,14.3353 20.0645,14.2923 20.4865,14.2923 C20.9535,14.2923 21.4185,14.3353 21.9075,14.5093 L20.1535,22.5773 L23.3505,22.5773 L26.8815,6.3123 L23.6835,6.3123" id="Fill-296" fill="#52B68D"></path>
            <g id="Group-300" transform="translate(12.000000, 6.125000)">
                <mask id="mask-2" fill="white">
                    <use xlink:href="#path-1"></use>
                </mask>
                <g id="Clip-299"></g>
                <polygon id="Fill-298" fill="#52B68D" mask="url(#mask-2)" points="-3.431 19.491 18.974 19.491 18.974 -2.914 -3.431 -2.914"></polygon>
            </g>
            <g id="Group-303" transform="translate(12.000000, 6.125000)">
                <mask id="mask-4" fill="white">
                    <use xlink:href="#path-3"></use>
                </mask>
                <g id="Clip-302"></g>
                <polygon id="Fill-301" fill="#52B68D" mask="url(#mask-4)" points="-1.096 17.907 16.336 17.907 16.336 -1.312 -1.096 -1.312"></polygon>
            </g>
            <path d="M27.7557,43.1795 L19.7517,43.1795 L19.7517,29.3045 C19.7517,28.0835 18.7527,27.0845 17.5317,27.0845 L16.9077,27.0845 C15.6877,27.0845 14.6897,28.0835 14.6897,29.3045 L14.7317,49.8515 L11.9907,47.4145 C10.3227,45.7465 7.5947,45.7465 5.9267,47.4145 L5.8057,47.5355 C5.2497,48.0915 5.2487,49.0015 5.8057,49.5575 C5.8057,49.5575 11.7587,54.0535 13.9667,56.2755 C13.9667,56.2755 14.5057,59.4325 14.6467,60.2405 C15.0287,62.4445 17.7647,68.6295 17.7647,68.6295 L30.8037,68.6295 C32.4807,68.6295 33.8517,63.8495 33.8517,62.1735 L33.8517,49.2765 C33.8517,45.9225 31.3837,43.1375 27.7557,43.1795" id="Fill-304" fill="#B3D8E7"></path>
            <polygon id="Fill-306" fill="#52B68D" points="14.39 74.128 34.494 74.128 34.494 63.133 14.39 63.133"></polygon>
        </g>
    </g>
</svg>