<svg id="Ñëîé_1" data-name="Ñëîé 1" xmlns="http://www.w3.org/2000/svg" viewBox="0 0 450 450"><defs><style>.cls-1{fill:#bbe5f8;}.cls-2{fill:#faa700;}.cls-3{fill:#1e9478;}</style></defs><title>Plan de travail 5</title><path class="cls-1" d="M204.72,145H206s-.66-17.89,14.25-22v-1.2c-14.91-4.12-14.25-22-14.25-22h-1.31s.65,17.9-14.25,22V123C205.37,127.15,204.72,145,204.72,145Z"/><path class="cls-1" d="M163.44,179.17H164s-.25-6.91,5.5-8.5v-.46c-5.75-1.6-5.5-8.5-5.5-8.5h-.51s.26,6.9-5.49,8.5v.46C163.7,172.26,163.44,179.17,163.44,179.17Z"/><path class="cls-1" d="M111.93,152.08h.5s-.25-6.91,5.5-8.5v-.47c-5.75-1.59-5.5-8.5-5.5-8.5h-.5s.25,6.91-5.5,8.5v.47C112.18,145.17,111.93,152.08,111.93,152.08Z"/><path class="cls-1" d="M310.43,179.71h.51s-.25-6.9,5.5-8.5v-.46c-5.75-1.59-5.5-8.5-5.5-8.5h-.51s.26,6.91-5.49,8.5v.46C310.69,172.81,310.43,179.71,310.43,179.71Z"/><path class="cls-1" d="M135.66,298.14h.51s-.25-6.91,5.5-8.5v-.46c-5.75-1.6-5.5-8.5-5.5-8.5h-.51s.26,6.9-5.49,8.5v.46C135.92,291.23,135.66,298.14,135.66,298.14Z"/><path class="cls-1" d="M221.58,357.56h.51s-.25-6.91,5.5-8.5v-.46c-5.75-1.6-5.5-8.5-5.5-8.5h-.51s.26,6.9-5.5,8.5v.46C221.84,350.65,221.58,357.56,221.58,357.56Z"/><path class="cls-1" d="M329.84,282.23h.51s-.25-6.9,5.5-8.5v-.46c-5.75-1.59-5.5-8.5-5.5-8.5h-.51s.26,6.91-5.5,8.5v.46C330.1,275.33,329.84,282.23,329.84,282.23Z"/><path class="cls-1" d="M258.32,372.3l6.87-6.38s-.73-2.92-4.77-1.34c-3.2,1.26-3.75-.17-4.31-1.23a1.73,1.73,0,0,0-.77-.79c-.56-.26-1.19,0-1.63.79-.57,1.06-1.11,2.49-4.31,1.23-4-1.58-4.77,1.34-4.77,1.34l7.63,8.32Z"/><path class="cls-1" d="M272.93,397.24c1.94-7.13,0-10.89-6.11-14.46a21.83,21.83,0,0,1-7.47-8.09h-8.54l-1.09,2.08s-.61,2.45-6.72,6-8.05,7.33-6.11,14.46-1.43,6.62-3.87,11.41,0,15.58,9,17.41a63.55,63.55,0,0,0,13.36,1.37,64.59,64.59,0,0,0,12.5-1.37c9-1.83,11.41-12.63,9-17.41S271,404.37,272.93,397.24ZM254.78,391v-2.83l6.47,4.87-6.47,4.86v-2.83a7.54,7.54,0,0,0-7.47,6.57l-3-1.44-.82-.4A11.63,11.63,0,0,1,254.78,391Zm.24,23.87a11.71,11.71,0,0,1-3.59-.57,11.53,11.53,0,0,1-6.76-5.77l-2.52,1.29,1.14-6.58.11-.63.14-.76,1.56.76,2.07,1,3.64,1.78-2.52,1.28a7.55,7.55,0,0,0,9.71,3.49l.27,3.36.06.84A11.3,11.3,0,0,1,255,414.87Zm5.08-1.49,0-.19-.62-7.88,2.39,1.52h0a7.54,7.54,0,0,0-2.18-10.31l2.69-2,.69-.51a11.6,11.6,0,0,1,2.23,15h0l2.39,1.52Z"/><path class="cls-2" d="M265.94,370.24a11.32,11.32,0,0,0-1.33-.08,18.68,18.68,0,0,0-7.33,1.81l-1.11.55c-3-.66-8.52-1.57-12.72-.95l.29,1.94a17.14,17.14,0,0,1,7.8.64,18.28,18.28,0,0,0-8.9,5l1.46,1.31c3.63-4.08,13-5,15.68-5.17a15.76,15.76,0,0,0,5.27,1.82,6.11,6.11,0,0,0,.73.05c2.16,0,3.88-1.23,4.1-2.93C270.13,372.32,268.4,370.56,265.94,370.24Zm-.64,4.95a15.11,15.11,0,0,1-5.53-2.13,14.9,14.9,0,0,1,4.84-.95,9.19,9.19,0,0,1,1.08.07c1.44.19,2.34,1.11,2.25,1.82S266.63,375.37,265.3,375.19Z"/><path class="cls-2" d="M178.52,404.25v0s4.41-9.4,5.64-12.39a1.66,1.66,0,0,0-.65-2.15l-.19-.1a1.57,1.57,0,0,0-2.14.64c-.58,1.07-1.54,2.86-2.55,4.75h0c-.93,1.73-2.06.37-2.07.35l-.39-1.27h0l-3.89-12.94a1.6,1.6,0,0,0-2-1.06l-.2.06a1.6,1.6,0,0,0-1.07,2L172.3,393l-.51.15-3.73-12.39a1.59,1.59,0,0,0-2-1.06l-.2.06a1.59,1.59,0,0,0-1.06,2l3.73,12.39-.53.16-3.27-10.84a1.58,1.58,0,0,0-2-1.06l-.2.06a1.59,1.59,0,0,0-1.07,2l3.27,10.84-.47.14-2.41-8a1.58,1.58,0,0,0-2-1.06l-.21.06a1.59,1.59,0,0,0-1.06,2l3,10.08v0l2.5,8.28a2,2,0,0,0,2,1.65l2.76,19,16.26-5.59-7.39-16.9A1.45,1.45,0,0,0,178.52,404.25Z"/><path class="cls-2" d="M206.38,372.8l-.2-.06a1.58,1.58,0,0,0-2,1.06l-2.41,8-.46-.14,3.26-10.84a1.58,1.58,0,0,0-1.06-2l-.2-.07a1.6,1.6,0,0,0-2,1.06l-3.27,10.84-.53-.16,3.74-12.39a1.6,1.6,0,0,0-1.07-2l-.2-.06a1.6,1.6,0,0,0-2,1.07l-3.73,12.39-.51-.15,3.27-10.84a1.59,1.59,0,0,0-1.06-2l-.21-.06a1.58,1.58,0,0,0-2,1.06l-3.9,12.93h0l-.38,1.27s-1.15,1.39-2.08-.35h0l-2.55-4.75a1.6,1.6,0,0,0-2.15-.65l-.19.1a1.65,1.65,0,0,0-.64,2.15c1.22,3,5.63,12.4,5.63,12.4l0,0a1.41,1.41,0,0,0,.68.62l-7.39,16.9,16.26,5.58,2.76-19a2.07,2.07,0,0,0,2-1.65l2.49-8.29v0l3-10.08A1.57,1.57,0,0,0,206.38,372.8Z"/><path class="cls-3" d="M297.57,361.29a2.65,2.65,0,1,0,3.71.46A2.63,2.63,0,0,0,297.57,361.29Zm2.72,3.6a2.09,2.09,0,1,1,.36-2.93A2.1,2.1,0,0,1,300.29,364.89Z"/><path class="cls-3" d="M339.64,361.29a2.65,2.65,0,1,0,3.72.46A2.64,2.64,0,0,0,339.64,361.29Zm2.72,3.6a2.09,2.09,0,1,1,.37-2.93A2.09,2.09,0,0,1,342.36,364.89Z"/><path class="cls-2" d="M283.86,355.24a4.52,4.52,0,1,0,5.73,2.81A4.51,4.51,0,0,0,283.86,355.24Zm1.33,6.34a2.68,2.68,0,1,1,1.67-3.4A2.68,2.68,0,0,1,285.19,361.58Z"/><path class="cls-2" d="M306,374.07h.27a5.36,5.36,0,0,0,2.77-.64,14.09,14.09,0,0,1,6.38-1.4,13.91,13.91,0,0,1,6.39,1.41,6.38,6.38,0,0,0,5.55,0,14,14,0,0,1,6.38-1.4h.11V353.88h11.33V343.69H328a8.1,8.1,0,0,1-16.2,0H294.64v10.19H306Z"/><path class="cls-1" d="M346.93,366.08a1.6,1.6,0,0,0-2,1.15c0,.09-1.12,4.31-2.5,9.55a8,8,0,0,1-3.48-.86,12.45,12.45,0,0,0-10.54,0,9.11,9.11,0,0,1-7.77,0,12.48,12.48,0,0,0-10.55,0,9.11,9.11,0,0,1-7.77,0,11.28,11.28,0,0,0-5.27-1.17H297c-1.12-4.26-1.94-7.45-2-7.53a1.62,1.62,0,0,0-3.13.81c.05.19,4.88,18.75,7.06,26.61,1.19,4.27,3.81,4.91,5.28,4.91h31.54c1.46,0,4.09-.64,5.27-4.91,2.19-7.86,7-26.42,7.06-26.61A1.61,1.61,0,0,0,346.93,366.08Zm-7.72,23a5.84,5.84,0,0,1-2.66-.83,9.78,9.78,0,0,0-9.53,0,6.38,6.38,0,0,1-6.33,0,9.78,9.78,0,0,0-9.53,0,5.78,5.78,0,0,1-3.16.84,5.84,5.84,0,0,1-3.17-.84A9.09,9.09,0,0,0,300.2,387c-.24-.89-.49-1.8-.73-2.73a3,3,0,0,1,1.07-.2,8.83,8.83,0,0,1,4.67,1.22,6.2,6.2,0,0,0,6.2,0,9.57,9.57,0,0,1,9.35,0,6.2,6.2,0,0,0,6.2,0,9.57,9.57,0,0,1,9.35,0,13.07,13.07,0,0,0,3.08,1.16l.49.12C339.65,387.42,339.42,388.25,339.21,389.06Z"/><path class="cls-1" d="M348.82,77a5.47,5.47,0,1,0-7-3.27A5.48,5.48,0,0,0,348.82,77Zm-3-7.45a3.54,3.54,0,1,1-2.12,4.54A3.54,3.54,0,0,1,345.78,69.56Z"/><path class="cls-1" d="M357.4,76.49a4.5,4.5,0,1,0-1.79-6.11A4.49,4.49,0,0,0,357.4,76.49Zm-1-5.26a3.56,3.56,0,1,1,1.41,4.83A3.56,3.56,0,0,1,356.36,71.23Z"/><path class="cls-1" d="M354.69,79a2.37,2.37,0,1,0-.8,4.68,2.37,2.37,0,1,0,.8-4.68Zm1.42,2.45a1.88,1.88,0,1,1-1.53-2.17A1.86,1.86,0,0,1,356.11,81.47Z"/><path class="cls-1" d="M347.66,82a4.06,4.06,0,1,0,1.6,5.51A4.05,4.05,0,0,0,347.66,82Zm-.14,3.77a2.4,2.4,0,1,1-.95-3.26A2.4,2.4,0,0,1,347.52,85.73Z"/><path class="cls-2" d="M377.27,86.26l-.12-.06,3.79-7-9.12-4.9-3.78,7-.13-.07a1.29,1.29,0,0,0-1-.08h0s-8.8,3.19-11.49,4.31a1.49,1.49,0,0,0-1,1.78l.05.19a1.45,1.45,0,0,0,1.79,1L361,87h0c1.7-.51,1.54,1.08,1.54,1.1L362,89.14h0l-.45.85h0l-.88,1.64-4.43,8.24a1.43,1.43,0,0,0,.59,1.93l.17.09a1.41,1.41,0,0,0,1.93-.58l3-5.61h0l1.82-3.38.42.22-1.76,3.29h0l-3.76,7a1.44,1.44,0,0,0,.58,1.94l.17.09a1.42,1.42,0,0,0,1.94-.58l3.94-7.34h0L366.83,94l.44.24-1.59,3h0l-3.24,6a1.43,1.43,0,0,0,.59,1.93l.16.09a1.42,1.42,0,0,0,1.94-.58l3-5.61h0L370,95.67l.39.21-3.57,6.63a1.44,1.44,0,0,0,.58,1.94l.17.09a1.42,1.42,0,0,0,1.94-.58L374,95.6v0l3.69-6.87A1.78,1.78,0,0,0,377.27,86.26Z"/><path class="cls-1" d="M370.92,103a13,13,0,1,1-13.29-7.48l3-5.59q-.74-.06-1.5-.06A18.53,18.53,0,1,0,374,97.27Z"/><path class="cls-1" d="M340.58,79.08v-.19c-2.37-.66-2.26-3.5-2.26-3.5h-.21s.1,2.84-2.26,3.5v.19c2.36.65,2.26,3.49,2.26,3.49h.21S338.21,79.73,340.58,79.08Z"/><path class="cls-1" d="M354.28,106.37v-.19c-2.37-.66-2.26-3.5-2.26-3.5h-.21s.1,2.84-2.26,3.5v.19c2.36.65,2.26,3.49,2.26,3.49H352S351.91,107,354.28,106.37Z"/><path class="cls-1" d="M353.41,66.39h.18s-.09-2.5,2-3.08v-.17c-2.08-.58-2-3.08-2-3.08h-.18s.09,2.5-2,3.08v.17C353.5,63.89,353.41,66.39,353.41,66.39Z"/><path class="cls-2" d="M58.05,225.23l-6.23-1.91c1.87-5.41,5.57-15.79,5.57-15.79a3.36,3.36,0,0,0-6.42-2s-2.73,10.67-4.21,16.2l-6.23-1.9c-3.57-1.09-6.35,2.39-9.33,7.24h0c-.87,1.41-1.75,2.93-2.67,4.49l-2,3.31,3.27,1,14.05,4.3,14,4.29,3.28,1c.07-1.37.15-2.67.22-3.85.11-1.81.23-3.56.3-5.21C62,230.75,61.61,226.32,58.05,225.23Z"/><path class="cls-2" d="M57.86,245.94l-14.38-4.4L29.1,237.15h0l-3.27-1-2.59,4.33,18.81,5.75L60.86,252c.09-1.63.18-3.35.28-5l-3.28-1Z"/><path class="cls-1" d="M75.88,203.63c-1.82-5.65-4.67-14.77-4.67-14.77a3.35,3.35,0,0,0-6.3,2.29s3.66,8.82,5.9,14.32c-2.57,2.36-3.55,6.61-2.26,10.82l16-5.82C82.84,206.42,79.36,203.79,75.88,203.63Zm-7.19-11.89a1.58,1.58,0,1,1,.94-2A1.58,1.58,0,0,1,68.69,191.74Z"/><path class="cls-2" d="M102,232.37a13.52,13.52,0,0,1-7.28-6.56c-5.52-11.47-9.09-13.61-9.86-14L69.2,217.54c-.34.71-1.74,4.63,1.41,17a13.5,13.5,0,0,1-1.37,9.71,27.69,27.69,0,0,0,6.09-.74c.53-2.55.61-6.71-1.06-13.45a35.22,35.22,0,0,1,5,12.45c1.69-.48,3.61-1.09,5.78-1.85l-1.9-9,5.32,7.75c1.84-.71,3.44-1.38,4.85-2L92,232.09l4.1,4A28.14,28.14,0,0,0,102,232.37Z"/><circle class="cls-1" cx="34.51" cy="260.18" r="2.45"/><path class="cls-1" d="M43.85,258.85a1.33,1.33,0,1,0,1.33,1.33A1.32,1.32,0,0,0,43.85,258.85Z"/><path class="cls-1" d="M38.62,248.68a3.74,3.74,0,1,0,3.74,3.74A3.75,3.75,0,0,0,38.62,248.68Z"/><path class="cls-1" d="M90.41,317.55c-2.43-4.77-5.78-4.27-3.85-11.37s0-10.86-6.09-14.41A6.86,6.86,0,0,1,78.65,290a52.73,52.73,0,0,1-9.4-11.4l-.51.19a2.1,2.1,0,0,1,.28,1.06,2.26,2.26,0,0,1-.94,1.84,2.25,2.25,0,0,1,0,3.66,2.26,2.26,0,0,1,0,3.67,2.26,2.26,0,0,1-1.32,4.1H58.45a2.28,2.28,0,0,1-2-1.21c-5.87,3.51-7.72,7.25-5.82,14.25s-1.42,6.6-3.86,11.37,0,15.52,8.93,17.35a61.65,61.65,0,0,0,25.77,0C90.41,333.07,92.85,322.32,90.41,317.55Z"/><path class="cls-1" d="M68.7,274c.7.17,3.09.78,5.12,1.5l5-4.66s-.74-2.91-4.76-1.33c-3.19,1.25-3.74-.18-4.3-1.23a1.76,1.76,0,0,0-.76-.79c-.56-.25-1.19,0-1.63.79-.57,1.05-1.1,2.48-4.3,1.23-4-1.58-4.75,1.33-4.75,1.33L63.83,276,68.56,274Z"/><path class="cls-2" d="M68.17,279.87a1.38,1.38,0,0,0-.24-.77,12.55,12.55,0,0,1-3.67.62,6.46,6.46,0,0,1-1.46-.16,1.61,1.61,0,0,1-1.14-.82,1,1,0,0,1-.11-.27h-3.1a1.41,1.41,0,0,0,0,2.81h8.31A1.41,1.41,0,0,0,68.17,279.87Z"/><path class="cls-2" d="M68.17,283.54a1.41,1.41,0,0,0-1.41-1.41H58.45a1.41,1.41,0,0,0,0,2.82h8.31A1.41,1.41,0,0,0,68.17,283.54Z"/><path class="cls-2" d="M68.17,287.21a1.41,1.41,0,0,0-1.41-1.41H58.45a1.41,1.41,0,0,0,0,2.81h8.31A1.41,1.41,0,0,0,68.17,287.21Z"/><path class="cls-2" d="M58.45,292.28h8.31a1.41,1.41,0,1,0,0-2.81H58.45a1.41,1.41,0,0,0,0,2.81Z"/><path class="cls-2" d="M68.63,274.89l-6.25,2.59a1.31,1.31,0,0,0,0,.87.81.81,0,0,0,.58.38,11.33,11.33,0,0,0,6.25-1l.35-.15.19.32c.06.1,5.6,9.38,12,13.43h5.52v-9.14H77.62l-.05-.38a9.94,9.94,0,0,0-.57-2.21,7.24,7.24,0,0,0-.85-1.93C75.58,276.85,71.29,275.55,68.63,274.89Z"/><path class="cls-2" d="M374.11,328.47a7.61,7.61,0,1,0,7.61,7.61A7.62,7.62,0,0,0,374.11,328.47Zm0,10.9a3.29,3.29,0,1,1,3.29-3.29A3.29,3.29,0,0,1,374.11,339.37Z"/><path class="cls-1" d="M405.08,295.72H359a.6.6,0,0,0-.59.59v2.07a.59.59,0,0,0,.59.59h.19v36.8h1.72a2.35,2.35,0,0,0,2.35-2.35V299h.87l3.12,30.86a9.29,9.29,0,1,1,13.63,12.63h17a1.87,1.87,0,0,0,1.87-1.87L404,299h1.05a.58.58,0,0,0,.59-.59v-2.07A.59.59,0,0,0,405.08,295.72Zm-27.77,18-2.62-1.27-.72-.36a10.27,10.27,0,0,1,9.94-7.77v-2.5l5.72,4.3-5.72,4.3v-2.51A6.67,6.67,0,0,0,377.31,313.7Zm6.81,11.68a10.49,10.49,0,0,1-3.17-.5,10.19,10.19,0,0,1-6-5.09l-2.23,1.14,1-5.82.09-.55.12-.68,1.38.68,1.83.89,3.22,1.57-2.23,1.14a6.68,6.68,0,0,0,8.58,3.08l.23,3,.06.75A10,10,0,0,1,384.12,325.38Zm4.49-1.31,0-.17-.55-7,2.11,1.34h0a6.65,6.65,0,0,0-1.92-9.1l2.37-1.78.61-.46a10.24,10.24,0,0,1,2,13.27h0l2.11,1.34Z"/><path class="cls-1" d="M395.51,167.29c4.07,0,5.71-3.5,5.71-6.66H389.81C389.81,163.79,391.63,167.29,395.51,167.29Z"/><path class="cls-3" d="M391.65,153.05a1.85,1.85,0,1,1-1.84-1.85A1.84,1.84,0,0,1,391.65,153.05Z"/><path class="cls-1" d="M390.78,152.61a.77.77,0,0,1-1.54,0,.77.77,0,1,1,1.54,0Z"/><path class="cls-3" d="M399.38,153.05a1.85,1.85,0,1,0,1.84-1.85A1.84,1.84,0,0,0,399.38,153.05Z"/><path class="cls-1" d="M400.26,152.61a.76.76,0,0,0,1.52,0,.76.76,0,1,0-1.52,0Z"/><path class="cls-2" d="M406.66,135.5a34.1,34.1,0,0,1-21.93,7.87s-.09-3.55-2.69-3.84a3.86,3.86,0,0,0-3.79,1.8c-2.79-2.75-7.29-6-13-5.82,0,0,2.6,10.62,10.61,10.62-8,0-6.11,14.91-6.11,14.91,8.17-3.34,11.36-10.55,12.54-14.54.18,0,13.2,6.55,32.54-2.16C415.05,144.25,411.86,137.57,406.66,135.5Z"/><path class="cls-1" d="M386.27,141.49a33.31,33.31,0,0,0,17.14-5.79,21,21,0,0,0-20,2.31A5.13,5.13,0,0,1,386.27,141.49Z"/><path class="cls-1" d="M409.76,148.27a11.82,11.82,0,0,1,3.05,7.84c0,8.09-7.76,14.68-17.29,14.68-9,0-16.48-5.93-17.22-13.45a21.87,21.87,0,0,1-3.23,2.84,21.11,21.11,0,0,0,10.42,13.49l2.21-2.5a21.79,21.79,0,0,0,15.63,0l2.2,2.5c7-4.07,11-10.5,11-18.48a21,21,0,0,0-1.91-8.76Q412.19,147.48,409.76,148.27Z"/><path class="cls-2" d="M426.76,195.48c0-10.31-5-18.74-10.79-19.43V200.6h10.79Z"/><path class="cls-2" d="M364.26,195.48v5.12h10.8V178.06A19.46,19.46,0,0,0,364.26,195.48Z"/><path class="cls-1" d="M395.51,188.29h14.38V176H383.76a20.58,20.58,0,0,0-2.62.19v12.11Z"/><path class="cls-1" d="M385.32,242.52h.4s-.2-5.44,4.34-6.7v-.36c-4.54-1.26-4.34-6.7-4.34-6.7h-.4s.2,5.44-4.33,6.7v.36C385.52,237.08,385.32,242.52,385.32,242.52Z"/><path class="cls-1" d="M407.24,218.2h.56s-.28-7.72,6.15-9.5v-.52c-6.43-1.78-6.15-9.5-6.15-9.5h-.56s.28,7.72-6.15,9.5v.52C407.52,210.48,407.24,218.2,407.24,218.2Z"/><path class="cls-2" d="M398.08,246.79a2.58,2.58,0,1,0,2.58,2.58A2.59,2.59,0,0,0,398.08,246.79Zm0,4.07a1.49,1.49,0,1,1,1.5-1.49A1.49,1.49,0,0,1,398.08,250.86Z"/><path class="cls-2" d="M390.91,264.7a2,2,0,1,0,2,2A2,2,0,0,0,390.91,264.7Zm0,2.89a.91.91,0,1,1,.9-.9A.9.9,0,0,1,390.91,267.59Z"/><path class="cls-2" d="M385.52,254.5a2,2,0,1,0,2,2A2,2,0,0,0,385.52,254.5Zm0,2.89a.91.91,0,0,1,0-1.81.91.91,0,1,1,0,1.81Z"/><path class="cls-2" d="M404.8,231a3.26,3.26,0,1,0,3.26,3.26A3.27,3.27,0,0,0,404.8,231Zm0,5.43a2.17,2.17,0,1,1,2.18-2.17A2.17,2.17,0,0,1,404.8,236.41Z"/><path class="cls-2" d="M382.85,263.91a2,2,0,1,0,2,2A2,2,0,0,0,382.85,263.91Zm0,2.9a.91.91,0,1,1,.91-.91A.9.9,0,0,1,382.85,266.81Z"/><path class="cls-2" d="M411.59,240.49a2,2,0,1,0,2,2A2,2,0,0,0,411.59,240.49Zm0,2.89a.91.91,0,0,1,0-1.81.91.91,0,1,1,0,1.81Z"/><path class="cls-2" d="M421.91,235.63a14.88,14.88,0,0,0-25.44-6c-2,2.22-2.49,4.91-2.93,7.28a23.36,23.36,0,0,1-.75,3.22c-.87,2.57-5.13,7.32-7.6,8.46a22.85,22.85,0,0,1-3.12,1.09c-2.32.69-4.94,1.47-6.93,3.68A14.89,14.89,0,0,0,386,278.16c6.34,1.21,13.92.91,16.71-2.2,2.28-2.54,2.16-5.8,3.26-8.73,1-2.64,5.11-7.23,7.63-8.49,2.8-1.41,6.05-1.63,8.34-4.17C425.19,250.93,424.38,241.77,421.91,235.63Zm-25,40.42a1.45,1.45,0,1,1,0-2.89,1.45,1.45,0,0,1,0,2.89Zm5.2-11.22a1.45,1.45,0,1,1,1.45-1.45A1.45,1.45,0,0,1,402.09,264.83Zm9.5-9.13a1.45,1.45,0,1,1,1.45-1.45A1.44,1.44,0,0,1,411.59,255.7Zm-.81-5.64a25.24,25.24,0,0,0-3.56,1.26c-3.29,1.51-8.17,6.94-9.33,10.37a26.61,26.61,0,0,0-.86,3.67c-.4,2.14-.77,4.16-2.15,5.69a11.64,11.64,0,0,1-8.66,3.86h0a11.64,11.64,0,0,1-8.66-19.42c1.38-1.53,3.35-2.12,5.44-2.74a26.38,26.38,0,0,0,3.55-1.25c3.29-1.52,8.17-6.95,9.33-10.38a27.83,27.83,0,0,0,.87-3.67c.39-2.14.77-4.16,2.14-5.69a11.64,11.64,0,0,1,20.28,7.16,11.52,11.52,0,0,1-3,8.4C414.83,248.86,412.86,249.44,410.78,250.06Zm8.59,2.74a1.45,1.45,0,1,1,1.45-1.44A1.44,1.44,0,0,1,419.37,252.8Z"/><path class="cls-1" d="M49,130.92h.41s-.2-5.57,4.43-6.85v-.38c-4.63-1.28-4.43-6.85-4.43-6.85H49s.21,5.57-4.43,6.85v.38C49.25,125.35,49,130.92,49,130.92Z"/><path class="cls-1" d="M40.54,134.92h.19s-.1-2.6,2.06-3.19v-.18c-2.16-.6-2.06-3.19-2.06-3.19h-.19s.09,2.59-2.07,3.19v.18C40.63,132.32,40.54,134.92,40.54,134.92Z"/><path class="cls-2" d="M65.4,144.62H39.74a18.38,18.38,0,0,0,9.51,16.1V177.2H85.49v-9.3H67v-7.18a18.5,18.5,0,0,0,7-6.81H85.49v-9.29H65.4Z"/><rect class="cls-1" x="39.74" y="138.2" width="34.3" height="3.73"/><polygon class="cls-1" points="83.88 112.4 83.88 109.49 76.93 109.49 76.93 112.4 72.95 112.4 75.45 141.92 85.49 141.92 87.85 112.4 83.88 112.4"/><path class="cls-3" d="M117.5,340.66a2.35,2.35,0,1,0,.79-4.63,2.35,2.35,0,0,0-.79,4.63ZM116,337.82a1.86,1.86,0,1,1,1.52,2.14A1.85,1.85,0,0,1,116,337.82Z"/><path class="cls-1" d="M106.53,336a3.51,3.51,0,1,0-2.88-4.06A3.52,3.52,0,0,0,106.53,336Zm-1.84-4a2.78,2.78,0,1,1,2.27,3.21A2.77,2.77,0,0,1,104.69,332.06Z"/><path class="cls-1" d="M134.43,332.78a3.52,3.52,0,1,0-4.9-.83A3.51,3.51,0,0,0,134.43,332.78Zm-3.82-4.89a2.78,2.78,0,1,1-.67,3.88A2.78,2.78,0,0,1,130.61,327.89Z"/><path class="cls-1" d="M103.22,350.27l1.24,19.82c8.4,2.09,17.28-2.19,21.86-10.18a3,3,0,0,1-.35-2.59,3,3,0,1,1,3.45,3.87c-5.07,9.17-15.07,14.25-24.74,12.35l1.12,17.83s7.48-.1,16.7-.1h0c9.23,0,16.7.1,16.7.1l2.54-41.1Z"/><path class="cls-2" d="M141.74,350.26h-.05a12.13,12.13,0,0,0,.9-4.09,10.33,10.33,0,0,0-10.19-10.32h-.14a10.32,10.32,0,0,0-3.56.64,9.15,9.15,0,0,0-17.84,1.38,7.87,7.87,0,0,0-7.64,12.41h38.52Zm-35.47,0c-1.71-1.85-2.16-3.31-2.16-4.62a5.45,5.45,0,0,1,7.45-5.09l1.72.67-.08-2a.62.62,0,0,1,0-.13A6.73,6.73,0,0,1,126.56,338a9.13,9.13,0,0,0-3.23,5.81,7.78,7.78,0,0,0-1.27-.11,7.89,7.89,0,0,0-7.77,6.59Zm32.8,0H116.75a5.47,5.47,0,0,1,7.29-3.8l1.72.68-.09-2c0-.05,0-.09,0-.14a6.75,6.75,0,0,1,6.69-6.73,7.92,7.92,0,0,1,7.82,7.91A11.83,11.83,0,0,1,139.07,350.26Z"/><path class="cls-2" d="M323.44,290.67a6.19,6.19,0,1,0,8.63,1.47A6.19,6.19,0,0,0,323.44,290.67Zm8,2.56a4.9,4.9,0,1,1-6.83-1.16A4.89,4.89,0,0,1,331.45,293.23Z"/><path class="cls-2" d="M162.61,114a9.27,9.27,0,1,0,12.93,2.2A9.28,9.28,0,0,0,162.61,114Zm10.84,4a7.32,7.32,0,1,1-10.21-1.74A7.32,7.32,0,0,1,173.45,118Z"/><path class="cls-2" d="M112.54,239.18a9.27,9.27,0,1,0,12.93,2.21A9.28,9.28,0,0,0,112.54,239.18Zm10.83,4a7.32,7.32,0,1,1-10.21-1.74A7.3,7.3,0,0,1,123.37,243.17Z"/><path class="cls-2" d="M116.65,172.14a9.27,9.27,0,1,0,10.69-7.59A9.26,9.26,0,0,0,116.65,172.14Zm16.25,2a7.32,7.32,0,1,1-6-8.46A7.33,7.33,0,0,1,132.9,174.11Z"/><path class="cls-1" d="M329.48,232.69a9.27,9.27,0,1,0,10.7-7.59A9.27,9.27,0,0,0,329.48,232.69Zm16.25,2a7.32,7.32,0,1,1-6-8.46A7.32,7.32,0,0,1,345.73,234.66Z"/><path class="cls-2" d="M321,185.17a9.27,9.27,0,1,0,10.69-7.58A9.26,9.26,0,0,0,321,185.17Zm16.25,2a7.32,7.32,0,1,1-6-8.46A7.33,7.33,0,0,1,337.21,187.15Z"/><path class="cls-2" d="M163.83,347.27a9.27,9.27,0,1,0,10.7-7.58A9.27,9.27,0,0,0,163.83,347.27Zm16.25,2a7.32,7.32,0,1,1-6-8.46A7.33,7.33,0,0,1,180.08,349.25Z"/><path class="cls-2" d="M245.77,104.72a9.27,9.27,0,1,0,10.7-7.59A9.26,9.26,0,0,0,245.77,104.72Zm16.25,2a7.32,7.32,0,1,1-6-8.46A7.33,7.33,0,0,1,262,106.69Z"/><path class="cls-2" d="M309.41,125.38a9.27,9.27,0,1,0,10.7-7.58A9.27,9.27,0,0,0,309.41,125.38Zm16.25,2a7.32,7.32,0,1,1-6-8.45A7.31,7.31,0,0,1,325.66,127.35Z"/><path class="cls-2" d="M256.06,331.87a9.27,9.27,0,1,0,10.69-7.58A9.26,9.26,0,0,0,256.06,331.87Zm16.24,2a7.32,7.32,0,1,1-6-8.45A7.3,7.3,0,0,1,272.3,333.84Z"/><path class="cls-1" d="M137.58,86.18l.45-.59a1.85,1.85,0,0,0-.35-2.6l-5.45-4.16a1.84,1.84,0,0,0-2.6.35l-.45.59Z"/><path class="cls-1" d="M165,87.85c-2.87-5.16-8.62-7.34-11.61-8.15a.44.44,0,0,1,.08.15,3.53,3.53,0,0,1-.6,2.18c2.64.75,7.66,2.67,10,7,3.36,6-1.88,12.92-1.94,13l1.89,1.44C163.13,103.1,169.13,95.28,165,87.85Z"/><path class="cls-2" d="M152.76,79.19a2.28,2.28,0,0,0-1.33-.83,1.4,1.4,0,0,0-.3-.38c-9.65-8.52-19-12.24-27.19-13.47a43.85,43.85,0,0,0-8-.47,42.81,42.81,0,0,0-13.29,2.54,29.27,29.27,0,0,0-4.15,1.88l-.52.28c-1.29.76-.22,2.1-.22,2.1l32.82,25a7.31,7.31,0,0,1,4.06.58,20.87,20.87,0,0,0,3.17,1.59,3.53,3.53,0,0,0,3.94-1.65c2.52-3.81,7.65-13.6,7.65-13.6h0a3.36,3.36,0,0,0,1.31-.82,1.55,1.55,0,0,0,1.38-.17l.07-.08a3.8,3.8,0,0,0,.66-2.38A.8.8,0,0,0,152.76,79.19ZM138,87.79,123.89,77s5.56-7.29,22.21,5.42C146.1,82.42,139.85,87.09,138,87.79Z"/><path class="cls-1" d="M129.82,98l-.53-.4.38-.49L96.85,72l-.37.49-1-.75c-.91-.7-2.07.64-1.11,1.37,8.4,6.4,29.8,22.74,33.91,25.88C129.94,100.28,131,98.89,129.82,98Z"/><path class="cls-1" d="M124.13,63.5l-3.8-2.91a1.87,1.87,0,0,0-2.61.36L116.13,63A43.85,43.85,0,0,1,124.13,63.5Z"/><path class="cls-2" d="M124.2,103.83a7.33,7.33,0,0,1-10.65,1.94,7.58,7.58,0,0,1-2.13-2.24,1.31,1.31,0,0,0-.85-.58,1.3,1.3,0,0,0-1,.22,9,9,0,0,1-14-9.67,1.3,1.3,0,0,0-.15-1,1.29,1.29,0,0,0-.84-.6,7.62,7.62,0,0,1-6-6.12A7.66,7.66,0,0,1,89.79,80,7.9,7.9,0,0,1,91,78.71a1.29,1.29,0,1,0-1.74-1.91A10.22,10.22,0,0,0,92.8,94.08,11.6,11.6,0,0,0,110,106a10.12,10.12,0,0,0,2.09,1.93,10.53,10.53,0,0,0,6,1.95,10,10,0,0,0,8.27-4.55,1.31,1.31,0,0,0-.33-1.8A1.29,1.29,0,0,0,124.2,103.83Z"/><path class="cls-1" d="M100.8,83.48a.86.86,0,0,0-1.16-1.27,5.58,5.58,0,0,0-.85,1,5.59,5.59,0,0,0,2.67,8.42A6.31,6.31,0,0,0,110.7,98a5.23,5.23,0,0,0,1,.94A5.71,5.71,0,0,0,115,100a5.51,5.51,0,0,0,4.52-2.49.86.86,0,1,0-1.42-1,3.66,3.66,0,0,1-5.38,1,3.75,3.75,0,0,1-1.08-1.13.92.92,0,0,0-.57-.39.9.9,0,0,0-.67.15,4.59,4.59,0,0,1-7.12-4.92.88.88,0,0,0-.1-.69.87.87,0,0,0-.56-.39,3.87,3.87,0,0,1-2.42-6A4,4,0,0,1,100.8,83.48Z"/><path class="cls-2" d="M319,38.49a1.37,1.37,0,0,0-.3-.45,1.42,1.42,0,0,0-1-.41H273.05a1.42,1.42,0,0,0-1,.41,1.37,1.37,0,0,0-.3.45,1.42,1.42,0,0,0-.11.55v7.2h47.5V39A1.42,1.42,0,0,0,319,38.49Zm-34,5.78h-11V40.14h11Zm6.94-.8a1.27,1.27,0,1,1,1.27-1.27A1.26,1.26,0,0,1,292,43.47Zm6.52,0a1.27,1.27,0,1,1,1.27-1.27A1.26,1.26,0,0,1,298.49,43.47Zm6.53,0a1.27,1.27,0,1,1,1.26-1.27A1.27,1.27,0,0,1,305,43.47Zm6.52,0a1.27,1.27,0,1,1,1.27-1.27A1.27,1.27,0,0,1,311.54,43.47Z"/><path class="cls-2" d="M271.54,93.32a1.41,1.41,0,0,0,1.41,1.4h44.69a1.41,1.41,0,0,0,1.41-1.4V48.24H271.54Zm24.09-38.7a16.49,16.49,0,1,1-16.49,16.49A16.51,16.51,0,0,1,295.63,54.62Z"/><path class="cls-1" d="M295.63,85a14.36,14.36,0,0,0,2.73-.27l.22,0c.29-.06.58-.14.86-.22s.59-.18.89-.29l.4-.15.69-.29.28-.14c.34-.17.68-.35,1-.54l.47-.29.42-.28a14,14,0,0,0,4.77-5.82,13.82,13.82,0,0,0,1.15-5.1c0-.16,0-.31,0-.47A13.91,13.91,0,0,0,282,68.62a14.59,14.59,0,0,0-.23,2.49A14,14,0,0,0,295.63,85ZM282.72,70.88a16.32,16.32,0,0,1,1.66.93,8.31,8.31,0,0,0,4.8,1.37,9.24,9.24,0,0,0,5.53-1.81,8.16,8.16,0,0,1,4.58-1.24c4.48,0,5,2.39,8.57,2.94a12.36,12.36,0,0,1-.69,2.34c-.09.21-.19.41-.28.62l-.14-.06a11.92,11.92,0,0,1-1.4-.76,10.87,10.87,0,0,0-11.89,0,6.89,6.89,0,0,1-4.17,1.27,6.8,6.8,0,0,1-4.15-1.26l-1.95-1.17A12.71,12.71,0,0,1,282.72,70.88Zm6.57,7.32A8.16,8.16,0,0,0,293.87,77a9.22,9.22,0,0,1,5.53-1.8c3.54,0,4.61,1.49,6.66,2.38a10.39,10.39,0,0,1-.93,1.25,12.68,12.68,0,0,1-20.88-2.1A8.54,8.54,0,0,0,289.29,78.2Z"/><polygon class="cls-3" points="226.19 54.41 222.45 62.88 217.46 62.88 217.46 54.41 226.19 54.41"/><path class="cls-1" d="M234,65a8.25,8.25,0,1,0,8.24,8.24A8.24,8.24,0,0,0,234,65Zm0,13.2a5,5,0,1,1,5-5A5,5,0,0,1,234,78.19Z"/><path class="cls-1" d="M225.7,68.45c0-10,3.3-15.63,6.1-17.4a3,3,0,0,1,1.53-.54,3.18,3.18,0,0,1,.62.06c.91.16,2.43.89,2.43,3.85V64a9.63,9.63,0,0,1,2.71,1.17V45.06c0-2.93-1.23-5.37-4.67-5.83a9.69,9.69,0,0,0-1.24-.08,7.23,7.23,0,0,0-2.92.79c-5.56,2.58-14.41,11.73-14.41,30.93a5.91,5.91,0,0,0,5.91,5.91h3.34a9.49,9.49,0,0,1,.6-8.33Z"/><path class="cls-2" d="M233.71,51.89a2.25,2.25,0,0,0-.38,0,1.61,1.61,0,0,0-.81.33c-1.9,1.2-5,5.55-5.42,14.41a9.53,9.53,0,0,1,6.9-3c.35,0,.69,0,1,.06V54.42C235,52.91,234.58,52.05,233.71,51.89Z"/><path class="cls-2" d="M195.76,86.83h-4.22V32.08a9.51,9.51,0,1,1,19,0V51.55h-4.22V32.08a5.29,5.29,0,1,0-10.58,0Z"/><path class="cls-1" d="M215.85,60.87a9.51,9.51,0,0,1-9.51-9.51h4.22a5.29,5.29,0,0,0,5.29,5.29Z"/><path class="cls-1" d="M202.23,79.08H185.07a7.75,7.75,0,0,0-7.75,7.75H210A7.75,7.75,0,0,0,202.23,79.08Z"/><rect class="cls-1" x="189.05" y="74.69" width="9.2" height="5.52"/><path class="cls-1" d="M160.12,312.78H289.88V220.05H160.12Zm91.49-26H228.06V269h23.55Zm0-22.91H228.06V244.17h23.55Zm-53.22-19.69H223v19.69H198.39Zm0,24.8H223v17.8H198.39Z"/><polygon class="cls-1" points="282.82 150.7 287.68 150.7 287.68 137.22 248.56 137.22 248.56 150.7 253.44 150.7 253.44 158.9 282.82 182.62 282.82 150.7"/><polygon class="cls-1" points="281.23 188.39 251.85 164.67 225 143 137.13 213.94 160.12 213.94 289.88 213.94 312.87 213.94 281.23 188.39"/></svg>