<svg id="Calque_1" data-name="Calque 1" xmlns="http://www.w3.org/2000/svg" xmlns:xlink="http://www.w3.org/1999/xlink" viewBox="0 0 69 81"><defs><style>.cls-1,.cls-2,.cls-4{fill:none;}.cls-2{stroke:#b3d8e7;}.cls-2,.cls-4{stroke-width:3.91px;}.cls-3{fill:#ffac37;}.cls-4{stroke:#797979;}.cls-5{clip-path:url(#clip-path);}</style><clipPath id="clip-path"><rect id="SVGID" class="cls-1" width="67.36" height="81"/></clipPath></defs><title>Plan de travail 1</title><polygon class="cls-2" points="44.17 41.63 44.17 57.02 40.82 60.83 44.17 64.63 44.17 67.17 66.66 67.17 66.66 41.63 44.17 41.63"/><polygon class="cls-3" points="0 38.83 0 79.82 36.1 79.82 36.1 75.75 41.48 69.64 36.1 63.54 36.1 38.83 0 38.83"/><polygon class="cls-4" points="23.43 13.61 23.43 54.61 45.19 54.61 50.56 60.71 55.94 54.61 59.52 54.61 59.52 13.61 23.43 13.61"/><g class="cls-5"><polygon class="cls-2" points="10.51 0.85 32.99 0.85 32.99 16.24 36.34 20.04 32.99 23.85 32.99 26.39 10.51 26.39 10.51 0.85"/></g></svg>